<svg width="15" height="15" viewBox="0 0 15 15" fill="none" xmlns="http://www.w3.org/2000/svg">
<g clip-path="url(#clip0_6047_1573)">
<path fill-rule="evenodd" clip-rule="evenodd" d="M2.5 3.125C2.5 2.62772 2.69754 2.15081 3.04917 1.79917C3.40081 1.44754 3.87772 1.25 4.375 1.25H10.625C11.1223 1.25 11.5992 1.44754 11.9508 1.79917C12.3025 2.15081 12.5 2.62772 12.5 3.125V13.1425C12.5 13.905 11.6375 14.3487 11.0175 13.9056L7.5 11.3931L3.9825 13.9056C3.36188 14.3494 2.5 13.9056 2.5 13.1431V3.125ZM4.375 2.5C4.20924 2.5 4.05027 2.56585 3.93306 2.68306C3.81585 2.80027 3.75 2.95924 3.75 3.125V12.5356L6.955 10.2462C7.11402 10.1326 7.30457 10.0716 7.5 10.0716C7.69543 10.0716 7.88598 10.1326 8.045 10.2462L11.25 12.5356V3.125C11.25 2.95924 11.1842 2.80027 11.0669 2.68306C10.9497 2.56585 10.7908 2.5 10.625 2.5H4.375Z" fill="#F7931A"/>
</g>
<defs>
<clipPath id="clip0_6047_1573">
<rect width="15" height="15" fill="white"/>
</clipPath>
</defs>
</svg>
