<svg width="136" height="48" viewBox="0 0 136 48" fill="none" xmlns="http://www.w3.org/2000/svg">
<path d="M2.64 40V10.2H15.24C17.2933 10.2 19.0533 10.5467 20.52 11.24C21.9867 11.9333 23.1067 12.9333 23.88 14.24C24.6533 15.52 25.04 17.08 25.04 18.92C25.04 20.2267 24.68 21.48 23.96 22.68C23.24 23.8533 22.0533 24.84 20.4 25.64V22.6C21.9733 23.2133 23.1867 23.9467 24.04 24.8C24.8933 25.6533 25.48 26.5867 25.8 27.6C26.12 28.5867 26.28 29.6267 26.28 30.72C26.28 33.6533 25.3067 35.9333 23.36 37.56C21.4133 39.1867 18.7067 40 15.24 40H2.64ZM8.84 34.6H15.96C17.2133 34.6 18.2133 34.24 18.96 33.52C19.7067 32.8 20.08 31.8667 20.08 30.72C20.08 29.5467 19.7067 28.6 18.96 27.88C18.2133 27.16 17.2133 26.8 15.96 26.8H8.84V34.6ZM8.84 21.4H15.68C16.64 21.4 17.4 21.1333 17.96 20.6C18.5467 20.04 18.84 19.3067 18.84 18.4C18.84 17.4933 18.5467 16.7733 17.96 16.24C17.4 15.68 16.64 15.4 15.68 15.4H8.84V21.4ZM38.0572 40.48C36.2972 40.48 34.7905 40.1067 33.5372 39.36C32.3105 38.5867 31.3772 37.52 30.7372 36.16C30.0972 34.8 29.7772 33.2133 29.7772 31.4V18.16H35.7772V30.92C35.7772 31.7467 35.9372 32.48 36.2572 33.12C36.6039 33.7333 37.0839 34.2133 37.6972 34.56C38.3105 34.9067 39.0039 35.08 39.7772 35.08C40.5772 35.08 41.2705 34.9067 41.8572 34.56C42.4705 34.2133 42.9372 33.7333 43.2572 33.12C43.6039 32.48 43.7772 31.7467 43.7772 30.92V18.16H49.7772V40H44.1772V35.68L44.4972 36.64C43.9905 37.9467 43.1639 38.92 42.0172 39.56C40.8972 40.1733 39.5772 40.48 38.0572 40.48ZM54.5625 40V18.16H60.5625V40H54.5625ZM54.5625 16.2V10.2H60.5625V16.2H54.5625ZM65.3531 40V9.72H71.3531V40H65.3531ZM86.4237 40.48C84.2904 40.48 82.3837 39.9733 80.7037 38.96C79.0237 37.9467 77.6904 36.5733 76.7037 34.84C75.7437 33.1067 75.2637 31.1867 75.2637 29.08C75.2637 26.9467 75.7571 25.0267 76.7437 23.32C77.7304 21.5867 79.0637 20.2133 80.7437 19.2C82.4237 18.1867 84.3037 17.68 86.3837 17.68C87.9837 17.68 89.3971 17.9867 90.6237 18.6C91.8771 19.1867 92.8637 20.0267 93.5837 21.12L92.6637 22.32V9.72H98.6637V40H93.0637V36L93.6237 37.24C92.8771 38.3067 91.8637 39.12 90.5837 39.68C89.3037 40.2133 87.9171 40.48 86.4237 40.48ZM87.1437 35.08C88.2371 35.08 89.1971 34.8267 90.0237 34.32C90.8504 33.8133 91.4904 33.1067 91.9437 32.2C92.4237 31.2933 92.6637 30.2533 92.6637 29.08C92.6637 27.9067 92.4237 26.8667 91.9437 25.96C91.4904 25.0533 90.8504 24.3467 90.0237 23.84C89.1971 23.3333 88.2371 23.08 87.1437 23.08C86.0504 23.08 85.0637 23.3467 84.1837 23.88C83.3304 24.3867 82.6637 25.0933 82.1837 26C81.7037 26.88 81.4637 27.9067 81.4637 29.08C81.4637 30.2533 81.7037 31.2933 82.1837 32.2C82.6637 33.1067 83.3304 33.8133 84.1837 34.32C85.0637 34.8267 86.0504 35.08 87.1437 35.08Z" fill="white"/>
<g clip-path="url(#clip0_6021_840)">
<path d="M136 26.5986L123.5 44.6797V34.4899L136 26.5986ZM129.375 32.9541L125.362 35.4793V38.7481L129.375 32.9541Z" fill="#5A9DED"/>
<path d="M111 26.5986L123.5 44.6797V34.4899L111 26.5986ZM117.625 32.9541L121.638 35.4793V38.7481L117.625 32.9541Z" fill="#53D3E0"/>
<path d="M125.086 18.3318L133.365 22.9426L133.658 23.8398L132.672 24.7003L125.086 20.4662V18.3318Z" fill="#D995D1"/>
<path d="M121.92 18.3318L113.641 22.9426L113.347 23.8398L114.333 24.7003L121.92 20.4662V18.3318Z" fill="#A6E276"/>
<path d="M123.5 3L136 24.4065L123.5 32.2784V3ZM125.346 9.8669V28.9795L133.512 23.8397L125.346 9.8669Z" fill="#FF9C92"/>
<path d="M123.5 3L111 24.4065L123.5 32.2784V3ZM121.654 9.8669V28.9795L113.488 23.8398L121.654 9.8669Z" fill="#FFE94D"/>
</g>
<defs>
<clipPath id="clip0_6021_840">
<rect width="25" height="41.6992" fill="white" transform="translate(111 3)"/>
</clipPath>
</defs>
</svg>
