<svg width="32" height="32" viewBox="0 0 32 32" fill="none" xmlns="http://www.w3.org/2000/svg">
<path d="M10.4099 27.4166C10.8914 27.4166 11.2817 27.0062 11.2817 26.4999C11.2817 25.9937 10.8914 25.5833 10.4099 25.5833C9.9284 25.5833 9.53809 25.9937 9.53809 26.4999C9.53809 27.0062 9.9284 27.4166 10.4099 27.4166Z" stroke="#F7931A" stroke-width="1.5" stroke-linecap="round" stroke-linejoin="round"/>
<path d="M22.615 27.4166C23.0964 27.4166 23.4868 27.0062 23.4868 26.4999C23.4868 25.9937 23.0964 25.5833 22.615 25.5833C22.1335 25.5833 21.7432 25.9937 21.7432 26.4999C21.7432 27.0062 22.1335 27.4166 22.615 27.4166Z" stroke="#F7931A" stroke-width="1.5" stroke-linecap="round" stroke-linejoin="round"/>
<path d="M3.43555 7.25H6.92273L9.53811 22.8333H23.4868" stroke="#F7931A" stroke-width="1.5" stroke-linecap="round" stroke-linejoin="round"/>
<path d="M9.53851 17.9444H23.1298C23.2306 17.9445 23.3283 17.9078 23.4063 17.8406C23.4843 17.7734 23.5377 17.6799 23.5575 17.576L25.1267 9.32599C25.1394 9.25947 25.1379 9.19082 25.1222 9.12499C25.1066 9.05917 25.0773 8.99782 25.0363 8.94537C24.9954 8.89291 24.9439 8.85066 24.8856 8.82167C24.8273 8.79268 24.7635 8.77766 24.699 8.77771H7.79492" stroke="#F7931A" stroke-width="1.5" stroke-linecap="round" stroke-linejoin="round"/>
</svg>
