<svg width="20" height="16" viewBox="0 0 20 16" fill="none" xmlns="http://www.w3.org/2000/svg">
<path fill-rule="evenodd" clip-rule="evenodd" d="M10.9638 9.80469C11.0732 9.92613 11.2196 9.99332 11.3716 9.9918C11.5236 9.99028 11.669 9.92017 11.7765 9.79657C11.884 9.67296 11.9449 9.50575 11.9462 9.33095C11.9476 9.15616 11.8891 8.98776 11.7835 8.86202L8.88499 5.52869C8.77627 5.40371 8.62885 5.3335 8.47513 5.3335C8.32141 5.3335 8.17399 5.40371 8.06528 5.52869L5.16672 8.86202C5.11136 8.92352 5.06719 8.99708 5.03681 9.07842C5.00643 9.15975 4.99044 9.24723 4.98977 9.33575C4.9891 9.42427 5.00377 9.51206 5.03291 9.59399C5.06206 9.67592 5.10511 9.75035 5.15954 9.81295C5.21397 9.87554 5.2787 9.92505 5.34994 9.95857C5.42118 9.99209 5.49752 10.009 5.57449 10.0082C5.65147 10.0074 5.72754 9.98903 5.79826 9.95409C5.86899 9.91915 5.93296 9.86836 5.98643 9.80469L8.47513 6.94269L10.9638 9.80469Z" fill="white"/>
</svg>
