<svg width="24" height="24" viewBox="0 0 24 24" fill="none" xmlns="http://www.w3.org/2000/svg">
<path d="M1 5C1 2.79086 2.79086 1 5 1H19C21.2091 1 23 2.79086 23 5V19C23 21.2091 21.2091 23 19 23H5C2.79086 23 1 21.2091 1 19V5Z" stroke="white" stroke-opacity="0.05" stroke-width="2"/>
<path d="M9.37498 11.6016C9.13998 11.8219 9.13998 12.1782 9.37498 12.3961L14.175 16.8985C14.41 17.1188 14.79 17.1188 15.0225 16.8985C15.255 16.6782 15.2575 16.3219 15.0225 16.1039L10.6475 12L15.025 7.89846C15.26 7.67815 15.26 7.3219 15.025 7.10393C14.79 6.88596 14.41 6.88362 14.1775 7.10393L9.37498 11.6016Z" fill="#FFFEFE"/>
</svg>
