<svg width="32" height="27" viewBox="0 0 32 27" fill="none" xmlns="http://www.w3.org/2000/svg">
<path d="M8.04004 8.66112L10.3425 8.86573L9.33754 4.72291C9.2473 4.34962 9.03874 4.00397 8.73409 3.72278C8.42944 3.44158 8.0401 3.23538 7.60754 3.12612L2.98504 1.95331C2.06754 1.72127 1.14254 2.29924 1.14254 3.10924C1.14254 3.87073 2.04004 4.40229 2.88754 4.14284L3.53004 4.02049L6.12004 4.66807C6.37189 4.73131 6.59973 4.8491 6.78087 5.00972C6.96202 5.17033 7.09015 5.36816 7.15254 5.58354L8.04004 8.66112ZM10.4275 17.4551L12.03 23.2031L13.9775 22.6231L12.7775 17.4551H10.4275Z" fill="#65878D"/>
<path d="M11.56 21.5156H27.29V23.2727H11.915L11.56 21.5156Z" fill="#65878D"/>
<path d="M31.5122 10.1419L29.6597 17.7609C29.5172 18.3516 28.9022 18.7734 28.1897 18.7734H11.0597C10.9466 18.7735 10.8368 18.7412 10.7483 18.6818C10.6597 18.6224 10.5976 18.5395 10.5722 18.4465L7.5672 7.47563C7.4897 7.19508 7.7597 6.93563 8.0997 6.96094L30.1772 8.62735C30.3876 8.64316 30.5916 8.69632 30.776 8.78333C30.9603 8.87035 31.1208 8.98926 31.2468 9.13226C31.3729 9.27527 31.4617 9.43914 31.5074 9.61314C31.5532 9.78713 31.5548 9.96732 31.5122 10.1419ZM28.0247 10.3718L26.9597 10.2916C26.8559 10.2838 26.7513 10.2942 26.6525 10.3223C26.5538 10.3504 26.4631 10.3956 26.3862 10.4549C26.3093 10.5143 26.2478 10.5865 26.2058 10.667C26.1638 10.7474 26.1422 10.8344 26.1422 10.9223V11.9391C26.1422 12.2892 26.4772 12.5719 26.8922 12.5719H28.0122C28.3672 12.5719 28.6747 12.3609 28.7472 12.0656L28.9122 11.3822C28.9414 11.2659 28.9409 11.1457 28.9109 11.0295C28.8809 10.9134 28.822 10.8039 28.7381 10.7084C28.6542 10.6129 28.5472 10.5335 28.4242 10.4754C28.3012 10.4174 28.1651 10.3821 28.0247 10.3718ZM18.4722 14.2573H17.0522C16.6372 14.2573 16.3022 14.5399 16.3022 14.8901V16.2422C16.3022 16.5923 16.6372 16.875 17.0522 16.875H18.4722C18.8872 16.875 19.2222 16.5923 19.2222 16.2422V14.8901C19.2222 14.5399 18.8872 14.2573 18.4722 14.2573ZM17.0522 12.5698H18.4722C18.8872 12.5698 19.2222 12.2871 19.2222 11.937V10.2853C19.2222 9.95836 18.9247 9.68414 18.5397 9.65461L17.1197 9.54703C17.0159 9.53915 16.9113 9.5496 16.8126 9.57772C16.7138 9.60584 16.6231 9.651 16.5462 9.71034C16.4693 9.76968 16.4078 9.84188 16.3658 9.92236C16.3238 10.0028 16.3022 10.0898 16.3022 10.1777V11.937C16.3022 12.2871 16.6372 12.5698 17.0522 12.5698ZM21.2222 14.8901V16.2422C21.2222 16.5923 21.5572 16.875 21.9722 16.875H23.3922C23.8072 16.875 24.1422 16.5923 24.1422 16.2422V14.8901C24.1422 14.5399 23.8072 14.2573 23.3922 14.2573H21.9722C21.5572 14.2573 21.2222 14.5399 21.2222 14.8901ZM21.9722 12.5698H23.3922C23.8072 12.5698 24.1422 12.2871 24.1422 11.937V10.6566C24.1422 10.3296 23.8447 10.0554 23.4597 10.0259L22.0397 9.91828C21.9359 9.9104 21.8313 9.92085 21.7325 9.94897C21.6338 9.97709 21.5431 10.0223 21.4662 10.0816C21.3893 10.1409 21.3278 10.2131 21.2858 10.2936C21.2438 10.3741 21.2222 10.4611 21.2222 10.549V11.937C21.2222 12.2871 21.5572 12.5698 21.9722 12.5698ZM10.5372 9.88242L11.1397 12.0783C11.1779 12.2175 11.2708 12.3417 11.4034 12.4305C11.536 12.5194 11.7004 12.5678 11.8697 12.5677H13.5522C13.9672 12.5677 14.3022 12.285 14.3022 11.9348V9.91406C14.3022 9.58711 14.0047 9.31289 13.6197 9.28336L11.3372 9.11039C10.8272 9.07242 10.4222 9.46477 10.5372 9.88242ZM13.2472 16.875H13.7997C14.0747 16.875 14.2997 16.6852 14.2997 16.4531V14.8901C14.2997 14.5399 13.9647 14.2573 13.5497 14.2573H12.6772C12.1947 14.2573 11.8372 14.637 11.9472 15.0335L12.2722 16.2232C12.324 16.4086 12.4484 16.5738 12.6254 16.6921C12.8023 16.8104 13.0214 16.8749 13.2472 16.875ZM28.0622 14.8838C28.1422 14.5589 27.8472 14.2552 27.4547 14.2552H26.8922C26.4772 14.2552 26.1422 14.5378 26.1422 14.888V16.3498C26.1422 16.4885 26.2075 16.6216 26.3238 16.7197C26.4401 16.8178 26.5978 16.8729 26.7622 16.8729C27.2372 16.8729 27.6472 16.5902 27.7422 16.1979L28.0622 14.8838Z" fill="#FAC136"/>
<path d="M13.1152 24.7493C11.5965 24.7493 10.3652 23.7104 10.3652 22.429C10.3652 21.1475 11.5965 20.1086 13.1152 20.1086C14.634 20.1086 15.8652 21.1475 15.8652 22.429C15.8652 23.7104 14.634 24.7493 13.1152 24.7493Z" fill="#2F2F2F"/>
<path d="M13.115 23.5111C12.4067 23.5111 11.8325 23.0267 11.8325 22.429C11.8325 21.8314 12.4067 21.3469 13.115 21.3469C13.8233 21.3469 14.3975 21.8314 14.3975 22.429C14.3975 23.0267 13.8233 23.5111 13.115 23.5111Z" fill="#65878D"/>
<path d="M26.3252 24.7493C24.8064 24.7493 23.5752 23.7104 23.5752 22.429C23.5752 21.1475 24.8064 20.1086 26.3252 20.1086C27.844 20.1086 29.0752 21.1475 29.0752 22.429C29.0752 23.7104 27.844 24.7493 26.3252 24.7493Z" fill="#2F2F2F"/>
<path d="M26.3249 23.5111C25.6166 23.5111 25.0424 23.0267 25.0424 22.429C25.0424 21.8314 25.6166 21.3469 26.3249 21.3469C27.0332 21.3469 27.6074 21.8314 27.6074 22.429C27.6074 23.0267 27.0332 23.5111 26.3249 23.5111Z" fill="#65878D"/>
<path d="M2.35258 4.99084C1.32947 4.99084 0.500078 4.29104 0.500078 3.42779C0.500078 2.56455 1.32947 1.86475 2.35258 1.86475C3.37569 1.86475 4.20508 2.56455 4.20508 3.42779C4.20508 4.29104 3.37569 4.99084 2.35258 4.99084Z" fill="#65878D"/>
</svg>
