<svg width="225" height="282" viewBox="0 0 225 282" fill="none" xmlns="http://www.w3.org/2000/svg">
<rect width="225" height="281.25" rx="10" fill="black"/>
<rect x="34" y="47" width="146" height="24" fill="#2BB5F6"/>
<rect x="34" y="102" width="146" height="24" fill="#00CC77"/>
<rect x="34" y="159" width="146" height="24" fill="#F7931A"/>
<rect x="34" y="216" width="146" height="24" fill="#E33629"/>
<path d="M61.56 53.5H68.13V58H55.68V36.85H61.56V53.5ZM86.7963 49.39C86.7963 49.85 86.7663 50.31 86.7063 50.77H75.5763C75.6363 51.69 75.8863 52.38 76.3263 52.84C76.7863 53.28 77.3663 53.5 78.0663 53.5C79.0463 53.5 79.7463 53.06 80.1663 52.18H86.4363C86.1763 53.34 85.6663 54.38 84.9063 55.3C84.1663 56.2 83.2263 56.91 82.0863 57.43C80.9463 57.95 79.6863 58.21 78.3063 58.21C76.6463 58.21 75.1663 57.86 73.8663 57.16C72.5863 56.46 71.5763 55.46 70.8363 54.16C70.1163 52.86 69.7563 51.33 69.7563 49.57C69.7563 47.81 70.1163 46.29 70.8363 45.01C71.5563 43.71 72.5563 42.71 73.8363 42.01C75.1363 41.31 76.6263 40.96 78.3063 40.96C79.9663 40.96 81.4363 41.3 82.7163 41.98C83.9963 42.66 84.9963 43.64 85.7163 44.92C86.4363 46.18 86.7963 47.67 86.7963 49.39ZM80.7963 47.92C80.7963 47.2 80.5563 46.64 80.0763 46.24C79.5963 45.82 78.9963 45.61 78.2763 45.61C77.5563 45.61 76.9663 45.81 76.5063 46.21C76.0463 46.59 75.7463 47.16 75.6063 47.92H80.7963ZM88.5427 49.57C88.5427 47.83 88.8527 46.31 89.4727 45.01C90.1127 43.71 90.9727 42.71 92.0527 42.01C93.1527 41.31 94.3727 40.96 95.7127 40.96C96.8727 40.96 97.8727 41.19 98.7127 41.65C99.5527 42.11 100.203 42.73 100.663 43.51V41.17H106.543V58H100.663V55.66C100.203 56.44 99.5427 57.06 98.6827 57.52C97.8427 57.98 96.8527 58.21 95.7127 58.21C94.3727 58.21 93.1527 57.86 92.0527 57.16C90.9727 56.46 90.1127 55.46 89.4727 54.16C88.8527 52.84 88.5427 51.31 88.5427 49.57ZM100.663 49.57C100.663 48.49 100.363 47.64 99.7627 47.02C99.1827 46.4 98.4627 46.09 97.6027 46.09C96.7227 46.09 95.9927 46.4 95.4127 47.02C94.8327 47.62 94.5427 48.47 94.5427 49.57C94.5427 50.65 94.8327 51.51 95.4127 52.15C95.9927 52.77 96.7227 53.08 97.6027 53.08C98.4627 53.08 99.1827 52.77 99.7627 52.15C100.363 51.53 100.663 50.67 100.663 49.57ZM116.073 44.14C116.733 43.18 117.533 42.42 118.473 41.86C119.413 41.3 120.423 41.02 121.503 41.02V47.29H119.853C118.573 47.29 117.623 47.54 117.003 48.04C116.383 48.54 116.073 49.41 116.073 50.65V58H110.193V41.17H116.073V44.14ZM134.921 41.02C136.861 41.02 138.401 41.67 139.541 42.97C140.681 44.25 141.251 45.99 141.251 48.19V58H135.371V48.97C135.371 48.01 135.121 47.26 134.621 46.72C134.121 46.16 133.451 45.88 132.611 45.88C131.731 45.88 131.041 46.16 130.541 46.72C130.041 47.26 129.791 48.01 129.791 48.97V58H123.911V41.17H129.791V43.57C130.311 42.81 131.011 42.2 131.891 41.74C132.771 41.26 133.781 41.02 134.921 41.02ZM147.628 58.24C146.588 58.24 145.748 57.96 145.108 57.4C144.488 56.82 144.178 56.09 144.178 55.21C144.178 54.33 144.488 53.6 145.108 53.02C145.748 52.44 146.588 52.15 147.628 52.15C148.648 52.15 149.468 52.44 150.088 53.02C150.728 53.6 151.048 54.33 151.048 55.21C151.048 56.07 150.728 56.79 150.088 57.37C149.468 57.95 148.648 58.24 147.628 58.24Z" fill="#FBFBFB"/>
<path d="M54.96 103.38C54.96 101.3 55.39 99.45 56.25 97.83C57.13 96.19 58.37 94.92 59.97 94.02C61.57 93.1 63.41 92.64 65.49 92.64C68.13 92.64 70.35 93.35 72.15 94.77C73.95 96.17 75.11 98.08 75.63 100.5H69.3C68.92 99.7 68.39 99.09 67.71 98.67C67.05 98.25 66.28 98.04 65.4 98.04C64.04 98.04 62.95 98.53 62.13 99.51C61.33 100.47 60.93 101.76 60.93 103.38C60.93 105.02 61.33 106.33 62.13 107.31C62.95 108.27 64.04 108.75 65.4 108.75C66.28 108.75 67.05 108.54 67.71 108.12C68.39 107.7 68.92 107.09 69.3 106.29H75.63C75.11 108.71 73.95 110.63 72.15 112.05C70.35 113.45 68.13 114.15 65.49 114.15C63.41 114.15 61.57 113.7 59.97 112.8C58.37 111.88 57.13 110.61 56.25 108.99C55.39 107.35 54.96 105.48 54.96 103.38ZM86.5444 114.21C84.8644 114.21 83.3544 113.86 82.0144 113.16C80.6944 112.46 79.6544 111.46 78.8944 110.16C78.1344 108.86 77.7544 107.33 77.7544 105.57C77.7544 103.83 78.1344 102.31 78.8944 101.01C79.6744 99.71 80.7244 98.71 82.0444 98.01C83.3844 97.31 84.8944 96.96 86.5744 96.96C88.2544 96.96 89.7544 97.31 91.0744 98.01C92.4144 98.71 93.4644 99.71 94.2244 101.01C95.0044 102.31 95.3944 103.83 95.3944 105.57C95.3944 107.31 95.0044 108.84 94.2244 110.16C93.4644 111.46 92.4144 112.46 91.0744 113.16C89.7344 113.86 88.2244 114.21 86.5444 114.21ZM86.5444 109.11C87.3644 109.11 88.0444 108.81 88.5844 108.21C89.1444 107.59 89.4244 106.71 89.4244 105.57C89.4244 104.43 89.1444 103.56 88.5844 102.96C88.0444 102.36 87.3744 102.06 86.5744 102.06C85.7744 102.06 85.1044 102.36 84.5644 102.96C84.0244 103.56 83.7544 104.43 83.7544 105.57C83.7544 106.73 84.0144 107.61 84.5344 108.21C85.0544 108.81 85.7244 109.11 86.5444 109.11ZM97.1266 105.57C97.1266 103.83 97.4366 102.31 98.0566 101.01C98.6966 99.71 99.5666 98.71 100.667 98.01C101.767 97.31 102.987 96.96 104.327 96.96C105.407 96.96 106.367 97.19 107.207 97.65C108.067 98.09 108.737 98.7 109.217 99.48V91.8H115.127V114H109.217V111.66C108.757 112.44 108.107 113.06 107.267 113.52C106.427 113.98 105.437 114.21 104.297 114.21C102.957 114.21 101.737 113.86 100.637 113.16C99.5566 112.46 98.6966 111.46 98.0566 110.16C97.4366 108.84 97.1266 107.31 97.1266 105.57ZM109.247 105.57C109.247 104.49 108.947 103.64 108.347 103.02C107.767 102.4 107.047 102.09 106.187 102.09C105.307 102.09 104.577 102.4 103.997 103.02C103.417 103.62 103.127 104.47 103.127 105.57C103.127 106.65 103.417 107.51 103.997 108.15C104.577 108.77 105.307 109.08 106.187 109.08C107.047 109.08 107.767 108.77 108.347 108.15C108.947 107.53 109.247 106.67 109.247 105.57ZM134.857 105.39C134.857 105.85 134.827 106.31 134.767 106.77H123.637C123.697 107.69 123.947 108.38 124.387 108.84C124.847 109.28 125.427 109.5 126.127 109.5C127.107 109.5 127.807 109.06 128.227 108.18H134.497C134.237 109.34 133.727 110.38 132.967 111.3C132.227 112.2 131.287 112.91 130.147 113.43C129.007 113.95 127.747 114.21 126.367 114.21C124.707 114.21 123.227 113.86 121.927 113.16C120.647 112.46 119.637 111.46 118.897 110.16C118.177 108.86 117.817 107.33 117.817 105.57C117.817 103.81 118.177 102.29 118.897 101.01C119.617 99.71 120.617 98.71 121.897 98.01C123.197 97.31 124.687 96.96 126.367 96.96C128.027 96.96 129.497 97.3 130.777 97.98C132.057 98.66 133.057 99.64 133.777 100.92C134.497 102.18 134.857 103.67 134.857 105.39ZM128.857 103.92C128.857 103.2 128.617 102.64 128.137 102.24C127.657 101.82 127.057 101.61 126.337 101.61C125.617 101.61 125.027 101.81 124.567 102.21C124.107 102.59 123.807 103.16 123.667 103.92H128.857ZM140.414 114.24C139.374 114.24 138.534 113.96 137.894 113.4C137.274 112.82 136.964 112.09 136.964 111.21C136.964 110.33 137.274 109.6 137.894 109.02C138.534 108.44 139.374 108.15 140.414 108.15C141.434 108.15 142.254 108.44 142.874 109.02C143.514 109.6 143.834 110.33 143.834 111.21C143.834 112.07 143.514 112.79 142.874 113.37C142.254 113.95 141.434 114.24 140.414 114.24Z" fill="#FBFBFB"/>
<path d="M61.56 153.56V157.01H68.31V161.48H61.56V165.29H69.21V170H55.68V148.85H69.21V153.56H61.56ZM71.4555 161.57C71.4555 159.83 71.7655 158.31 72.3855 157.01C73.0255 155.71 73.8855 154.71 74.9655 154.01C76.0655 153.31 77.2855 152.96 78.6255 152.96C79.7855 152.96 80.7855 153.19 81.6255 153.65C82.4655 154.11 83.1155 154.73 83.5755 155.51V153.17H89.4555V170H83.5755V167.66C83.1155 168.44 82.4555 169.06 81.5955 169.52C80.7555 169.98 79.7655 170.21 78.6255 170.21C77.2855 170.21 76.0655 169.86 74.9655 169.16C73.8855 168.46 73.0255 167.46 72.3855 166.16C71.7655 164.84 71.4555 163.31 71.4555 161.57ZM83.5755 161.57C83.5755 160.49 83.2755 159.64 82.6755 159.02C82.0955 158.4 81.3755 158.09 80.5155 158.09C79.6355 158.09 78.9055 158.4 78.3255 159.02C77.7455 159.62 77.4555 160.47 77.4555 161.57C77.4555 162.65 77.7455 163.51 78.3255 164.15C78.9055 164.77 79.6355 165.08 80.5155 165.08C81.3755 165.08 82.0955 164.77 82.6755 164.15C83.2755 163.53 83.5755 162.67 83.5755 161.57ZM98.9862 156.14C99.6462 155.18 100.446 154.42 101.386 153.86C102.326 153.3 103.336 153.02 104.416 153.02V159.29H102.766C101.486 159.29 100.536 159.54 99.9162 160.04C99.2962 160.54 98.9862 161.41 98.9862 162.65V170H93.1062V153.17H98.9862V156.14ZM117.834 153.02C119.774 153.02 121.314 153.67 122.454 154.97C123.594 156.25 124.164 157.99 124.164 160.19V170H118.284V160.97C118.284 160.01 118.034 159.26 117.534 158.72C117.034 158.16 116.364 157.88 115.524 157.88C114.644 157.88 113.954 158.16 113.454 158.72C112.954 159.26 112.704 160.01 112.704 160.97V170H106.824V153.17H112.704V155.57C113.224 154.81 113.924 154.2 114.804 153.74C115.684 153.26 116.694 153.02 117.834 153.02ZM130.541 170.24C129.501 170.24 128.661 169.96 128.021 169.4C127.401 168.82 127.091 168.09 127.091 167.21C127.091 166.33 127.401 165.6 128.021 165.02C128.661 164.44 129.501 164.15 130.541 164.15C131.561 164.15 132.381 164.44 133.001 165.02C133.641 165.6 133.961 166.33 133.961 167.21C133.961 168.07 133.641 168.79 133.001 169.37C132.381 169.95 131.561 170.24 130.541 170.24Z" fill="#FBFBFB"/>
<path d="M66.65 209.175C66.3667 208.708 65.975 208.35 65.475 208.1C64.9917 207.85 64.4167 207.725 63.75 207.725C62.5167 207.725 61.5417 208.125 60.825 208.925C60.125 209.725 59.775 210.8 59.775 212.15C59.775 213.667 60.15 214.825 60.9 215.625C61.6667 216.408 62.775 216.8 64.225 216.8C65.9417 216.8 67.1667 216.025 67.9 214.475H62.975V210.95H72.125V215.7C71.7417 216.633 71.175 217.508 70.425 218.325C69.6917 219.142 68.7583 219.817 67.625 220.35C66.4917 220.867 65.2 221.125 63.75 221.125C61.9833 221.125 60.4167 220.75 59.05 220C57.7 219.233 56.65 218.175 55.9 216.825C55.1667 215.458 54.8 213.9 54.8 212.15C54.8 210.417 55.1667 208.875 55.9 207.525C56.65 206.158 57.7 205.1 59.05 204.35C60.4 203.583 61.9583 203.2 63.725 203.2C65.9417 203.2 67.775 203.733 69.225 204.8C70.675 205.867 71.575 207.325 71.925 209.175H66.65ZM87.9709 213.825C87.9709 214.208 87.9459 214.592 87.8959 214.975H78.6209C78.6709 215.742 78.8792 216.317 79.2459 216.7C79.6292 217.067 80.1126 217.25 80.6959 217.25C81.5126 217.25 82.0959 216.883 82.4459 216.15H87.6709C87.4542 217.117 87.0292 217.983 86.3959 218.75C85.7792 219.5 84.9959 220.092 84.0459 220.525C83.0959 220.958 82.0459 221.175 80.8959 221.175C79.5126 221.175 78.2792 220.883 77.1959 220.3C76.1292 219.717 75.2876 218.883 74.6709 217.8C74.0709 216.717 73.7709 215.442 73.7709 213.975C73.7709 212.508 74.0709 211.242 74.6709 210.175C75.2709 209.092 76.1042 208.258 77.1709 207.675C78.2542 207.092 79.4959 206.8 80.8959 206.8C82.2792 206.8 83.5042 207.083 84.5709 207.65C85.6376 208.217 86.4709 209.033 87.0709 210.1C87.6709 211.15 87.9709 212.392 87.9709 213.825ZM82.9709 212.6C82.9709 212 82.7709 211.533 82.3709 211.2C81.9709 210.85 81.4709 210.675 80.8709 210.675C80.2709 210.675 79.7792 210.842 79.3959 211.175C79.0126 211.492 78.7626 211.967 78.6459 212.6H82.9709ZM98.5012 216.825V221H96.3762C92.7928 221 91.0012 219.225 91.0012 215.675V211.05H89.2762V206.975H91.0012V203.575H95.9262V206.975H98.4762V211.05H95.9262V215.75C95.9262 216.133 96.0095 216.408 96.1762 216.575C96.3595 216.742 96.6595 216.825 97.0762 216.825H98.5012ZM121.809 203.375V221H116.909V213.925H110.934V221H106.034V203.375H110.934V210H116.909V203.375H121.809ZM127.338 205.675C126.471 205.675 125.771 205.442 125.238 204.975C124.721 204.492 124.463 203.892 124.463 203.175C124.463 202.442 124.721 201.833 125.238 201.35C125.771 200.867 126.471 200.625 127.338 200.625C128.188 200.625 128.871 200.867 129.388 201.35C129.921 201.833 130.188 202.442 130.188 203.175C130.188 203.892 129.921 204.492 129.388 204.975C128.871 205.442 128.188 205.675 127.338 205.675ZM129.763 206.975V221H124.863V206.975H129.763ZM137.703 209.45C138.253 208.65 138.92 208.017 139.703 207.55C140.487 207.083 141.328 206.85 142.228 206.85V212.075H140.853C139.787 212.075 138.995 212.283 138.478 212.7C137.962 213.117 137.703 213.842 137.703 214.875V221H132.803V206.975H137.703V209.45ZM157.635 213.825C157.635 214.208 157.61 214.592 157.56 214.975H148.285C148.335 215.742 148.543 216.317 148.91 216.7C149.293 217.067 149.777 217.25 150.36 217.25C151.177 217.25 151.76 216.883 152.11 216.15H157.335C157.118 217.117 156.693 217.983 156.06 218.75C155.443 219.5 154.66 220.092 153.71 220.525C152.76 220.958 151.71 221.175 150.56 221.175C149.177 221.175 147.943 220.883 146.86 220.3C145.793 219.717 144.952 218.883 144.335 217.8C143.735 216.717 143.435 215.442 143.435 213.975C143.435 212.508 143.735 211.242 144.335 210.175C144.935 209.092 145.768 208.258 146.835 207.675C147.918 207.092 149.16 206.8 150.56 206.8C151.943 206.8 153.168 207.083 154.235 207.65C155.302 208.217 156.135 209.033 156.735 210.1C157.335 211.15 157.635 212.392 157.635 213.825ZM152.635 212.6C152.635 212 152.435 211.533 152.035 211.2C151.635 210.85 151.135 210.675 150.535 210.675C149.935 210.675 149.443 210.842 149.06 211.175C148.677 211.492 148.427 211.967 148.31 212.6H152.635ZM159.09 213.975C159.09 212.525 159.349 211.258 159.865 210.175C160.399 209.092 161.124 208.258 162.04 207.675C162.957 207.092 163.974 206.8 165.09 206.8C165.99 206.8 166.79 206.992 167.49 207.375C168.207 207.742 168.765 208.25 169.165 208.9V202.5H174.09V221H169.165V219.05C168.782 219.7 168.24 220.217 167.54 220.6C166.84 220.983 166.015 221.175 165.065 221.175C163.949 221.175 162.932 220.883 162.015 220.3C161.115 219.717 160.399 218.883 159.865 217.8C159.349 216.7 159.09 215.425 159.09 213.975ZM169.19 213.975C169.19 213.075 168.94 212.367 168.44 211.85C167.957 211.333 167.357 211.075 166.64 211.075C165.907 211.075 165.299 211.333 164.815 211.85C164.332 212.35 164.09 213.058 164.09 213.975C164.09 214.875 164.332 215.592 164.815 216.125C165.299 216.642 165.907 216.9 166.64 216.9C167.357 216.9 167.957 216.642 168.44 216.125C168.94 215.608 169.19 214.892 169.19 213.975ZM179.507 221.2C178.641 221.2 177.941 220.967 177.407 220.5C176.891 220.017 176.632 219.408 176.632 218.675C176.632 217.942 176.891 217.333 177.407 216.85C177.941 216.367 178.641 216.125 179.507 216.125C180.357 216.125 181.041 216.367 181.557 216.85C182.091 217.333 182.357 217.942 182.357 218.675C182.357 219.392 182.091 219.992 181.557 220.475C181.041 220.958 180.357 221.2 179.507 221.2Z" fill="#FBFBFB"/>
</svg>
