<svg width="20" height="20" viewBox="0 0 20 20" fill="none" xmlns="http://www.w3.org/2000/svg">
<g clip-path="url(#clip0_8465_492)">
<path d="M15.3125 0H4.6875C2.09867 0 0 2.09867 0 4.6875V15.3125C0 17.9013 2.09867 20 4.6875 20H15.3125C17.9013 20 20 17.9013 20 15.3125V4.6875C20 2.09867 17.9013 0 15.3125 0Z" fill="#5865F2"/>
<mask id="mask0_8465_492" style="mask-type:luminance" maskUnits="userSpaceOnUse" x="2" y="3" width="16" height="14">
<path d="M2.1875 3.98438H17.8125V16.0883H2.1875V3.98438Z" fill="white"/>
</mask>
<g mask="url(#mask0_8465_492)">
<path d="M15.4146 5.06224C14.4016 4.59723 13.3326 4.26563 12.2342 4.07576C12.2243 4.07391 12.214 4.07526 12.2048 4.0796C12.1956 4.08395 12.188 4.09108 12.1832 4.09998C12.0458 4.34419 11.8936 4.66294 11.7871 4.91341C10.5861 4.73357 9.39136 4.73357 8.21503 4.91341C8.10847 4.65732 7.95081 4.34419 7.81284 4.09998C7.80773 4.09126 7.80012 4.08429 7.79099 4.07997C7.78186 4.07565 7.77165 4.07418 7.76167 4.07576C6.66324 4.26525 5.59413 4.59686 4.58128 5.06224C4.57261 5.06592 4.5653 5.0722 4.56034 5.08021C2.53472 8.10646 1.97987 11.0583 2.25206 13.9736C2.25282 13.9808 2.25501 13.9877 2.2585 13.994C2.26199 14.0003 2.26671 14.0058 2.27237 14.0102C3.60878 14.9917 4.90339 15.5876 6.17394 15.9825C6.18382 15.9854 6.19437 15.9853 6.20417 15.9821C6.21397 15.9789 6.22256 15.9727 6.22878 15.9645C6.52933 15.554 6.79722 15.1213 7.02698 14.6662C7.03015 14.66 7.03195 14.6532 7.03228 14.6462C7.03261 14.6392 7.03146 14.6322 7.0289 14.6257C7.02634 14.6192 7.02242 14.6133 7.01742 14.6084C7.01242 14.6036 7.00644 14.5998 6.99987 14.5974C6.57487 14.4361 6.17026 14.2397 5.78105 14.0165C5.77396 14.0123 5.768 14.0064 5.76371 13.9994C5.75942 13.9924 5.75692 13.9844 5.75643 13.9762C5.75595 13.968 5.75749 13.9598 5.76092 13.9523C5.76436 13.9448 5.76958 13.9383 5.77612 13.9333C5.85823 13.872 5.93893 13.8087 6.01815 13.7436C6.02509 13.7379 6.03349 13.7342 6.04241 13.733C6.05133 13.7318 6.06041 13.7331 6.06862 13.7368C8.62581 14.9043 11.3942 14.9043 13.9211 13.7368C13.9294 13.7329 13.9386 13.7314 13.9476 13.7325C13.9567 13.7336 13.9652 13.7372 13.9723 13.743C14.0516 13.8085 14.1325 13.8719 14.2149 13.9333C14.2215 13.9383 14.2268 13.9447 14.2303 13.9522C14.2338 13.9596 14.2354 13.9678 14.2349 13.976C14.2345 13.9843 14.2321 13.9922 14.2278 13.9993C14.2236 14.0063 14.2177 14.0122 14.2107 14.0165C13.8212 14.2438 13.4133 14.438 12.9912 14.5968C12.9846 14.5993 12.9787 14.6031 12.9737 14.6081C12.9688 14.6131 12.9649 14.619 12.9624 14.6256C12.9599 14.6321 12.9588 14.6391 12.9592 14.6461C12.9596 14.6532 12.9615 14.66 12.9647 14.6662C13.1985 15.1177 13.465 15.5514 13.7622 15.9639C13.7683 15.9723 13.7768 15.9787 13.7866 15.982C13.7965 15.9853 13.8071 15.9855 13.8171 15.9825C15.0938 15.5876 16.3884 14.9917 17.7249 14.0102C17.7306 14.006 17.7354 14.0006 17.7389 13.9944C17.7424 13.9882 17.7445 13.9814 17.7452 13.9743C18.071 10.6039 17.1995 7.67615 15.4349 5.08084C15.4306 5.0724 15.4234 5.0658 15.4146 5.06224ZM7.40886 12.1986C6.63894 12.1986 6.00456 11.4918 6.00456 10.6237C6.00456 9.75568 6.62667 9.04888 7.40886 9.04888C8.19714 9.04888 8.82534 9.76193 8.813 10.6237C8.813 11.4918 8.19097 12.1986 7.40886 12.1986ZM12.6007 12.1986C11.8308 12.1986 11.1965 11.4918 11.1965 10.6237C11.1965 9.75568 11.8185 9.04888 12.6007 9.04888C13.389 9.04888 14.0172 9.76193 14.0049 10.6237C14.0049 11.4918 13.389 12.1986 12.6007 12.1986Z" fill="white"/>
</g>
</g>
<defs>
<clipPath id="clip0_8465_492">
<rect width="20" height="20" fill="white"/>
</clipPath>
</defs>
</svg>
