<svg width="136" height="48" viewBox="0 0 136 48" fill="none" xmlns="http://www.w3.org/2000/svg">
<path d="M2.64 40V10.2H22.68V15.6H8.84V22.36H21.88V27.76H8.84V34.6H22.68V40H2.64ZM32.9147 40.48C31.3414 40.48 29.9814 40.2267 28.8347 39.72C27.688 39.2133 26.808 38.4933 26.1947 37.56C25.5814 36.6 25.2747 35.4667 25.2747 34.16C25.2747 32.9333 25.5547 31.8533 26.1147 30.92C26.6747 29.96 27.528 29.16 28.6747 28.52C29.848 27.88 31.3014 27.4267 33.0347 27.16L39.7147 26.08V30.48L34.1147 31.48C33.2614 31.64 32.608 31.92 32.1547 32.32C31.7014 32.6933 31.4747 33.24 31.4747 33.96C31.4747 34.6267 31.728 35.1467 32.2347 35.52C32.7414 35.8933 33.368 36.08 34.1147 36.08C35.1014 36.08 35.968 35.8667 36.7147 35.44C37.4614 35.0133 38.0347 34.44 38.4347 33.72C38.8614 32.9733 39.0747 32.16 39.0747 31.28V25.6C39.0747 24.7733 38.7414 24.08 38.0747 23.52C37.4347 22.96 36.5547 22.68 35.4347 22.68C34.368 22.68 33.4214 22.9733 32.5947 23.56C31.7947 24.1467 31.208 24.92 30.8347 25.88L26.0347 23.6C26.4614 22.3733 27.1414 21.32 28.0747 20.44C29.008 19.56 30.128 18.88 31.4347 18.4C32.7414 17.92 34.168 17.68 35.7147 17.68C37.5547 17.68 39.1814 18.0133 40.5947 18.68C42.008 19.3467 43.1014 20.28 43.8747 21.48C44.6747 22.6533 45.0747 24.0267 45.0747 25.6V40H39.4747V36.48L40.8347 36.24C40.1947 37.2 39.488 38 38.7147 38.64C37.9414 39.2533 37.0747 39.7067 36.1147 40C35.1547 40.32 34.088 40.48 32.9147 40.48ZM49.875 40V18.16H55.475V23.4L55.075 22.64C55.555 20.8 56.3417 19.56 57.435 18.92C58.555 18.2533 59.875 17.92 61.395 17.92H62.675V23.12H60.795C59.3283 23.12 58.1417 23.5733 57.235 24.48C56.3283 25.36 55.875 26.6133 55.875 28.24V40H49.875ZM65.7047 40V18.16H71.3047V22.48L70.9847 21.52C71.4914 20.2133 72.3047 19.2533 73.4247 18.64C74.5714 18 75.9047 17.68 77.4247 17.68C79.078 17.68 80.518 18.0267 81.7447 18.72C82.998 19.4133 83.9714 20.3867 84.6647 21.64C85.358 22.8667 85.7047 24.3067 85.7047 25.96V40H79.7047V27.24C79.7047 26.3867 79.5314 25.6533 79.1847 25.04C78.8647 24.4267 78.398 23.9467 77.7847 23.6C77.198 23.2533 76.5047 23.08 75.7047 23.08C74.9314 23.08 74.238 23.2533 73.6247 23.6C73.0114 23.9467 72.5314 24.4267 72.1847 25.04C71.8647 25.6533 71.7047 26.3867 71.7047 27.24V40H65.7047Z" fill="white"/>
<path d="M95.5674 16.7559L99.4529 17.1045L97.7569 10.0464C97.6046 9.41043 97.2527 8.82155 96.7386 8.34248C96.2245 7.8634 95.5675 7.51209 94.8375 7.32594L87.0371 5.32782C85.4888 4.9325 83.9278 5.91719 83.9278 7.29719C83.9278 8.59454 85.4424 9.50016 86.8725 9.05813L87.9568 8.84969L92.3274 9.95297C92.7524 10.0607 93.1369 10.2614 93.4425 10.535C93.7482 10.8087 93.9645 11.1457 94.0697 11.5127L95.5674 16.7559ZM99.5963 31.7383L102.301 41.5313L105.587 40.543L103.562 31.7383H99.5963Z" fill="#65878D"/>
<path d="M101.507 38.6562H128.052V41.6498H102.106L101.507 38.6562Z" fill="#65878D"/>
<path d="M135.177 19.2787L132.051 32.2594C131.811 33.2656 130.773 33.9844 129.571 33.9844H100.664C100.473 33.9845 100.288 33.9294 100.138 33.8283C99.9888 33.7271 99.884 33.5858 99.8411 33.4273L94.7701 14.7362C94.6394 14.2583 95.095 13.8162 95.6687 13.8594L132.925 16.6984C133.28 16.7254 133.624 16.8159 133.935 16.9642C134.246 17.1124 134.517 17.315 134.73 17.5587C134.942 17.8023 135.092 18.0815 135.169 18.3779C135.246 18.6744 135.249 18.9813 135.177 19.2787ZM129.292 19.6705L127.495 19.5339C127.32 19.5205 127.143 19.5383 126.977 19.5862C126.81 19.6341 126.657 19.711 126.527 19.8121C126.397 19.9132 126.294 20.0362 126.223 20.1733C126.152 20.3104 126.115 20.4586 126.115 20.6084V22.3406C126.115 22.9372 126.681 23.4187 127.381 23.4187H129.271C129.87 23.4187 130.389 23.0594 130.511 22.5562L130.79 21.3919C130.839 21.1937 130.838 20.9889 130.788 20.791C130.737 20.5931 130.638 20.4066 130.496 20.2439C130.354 20.0812 130.174 19.9459 129.966 19.847C129.759 19.7482 129.529 19.688 129.292 19.6705ZM113.172 26.2901H110.776C110.076 26.2901 109.51 26.7717 109.51 27.3683V29.6719C109.51 30.2684 110.076 30.75 110.776 30.75H113.172C113.873 30.75 114.438 30.2684 114.438 29.6719V27.3683C114.438 26.7717 113.873 26.2901 113.172 26.2901ZM110.776 23.4151H113.172C113.873 23.4151 114.438 22.9336 114.438 22.337V19.5231C114.438 18.9661 113.936 18.4989 113.286 18.4486L110.89 18.2653C110.715 18.2519 110.538 18.2697 110.372 18.3176C110.205 18.3655 110.052 18.4424 109.922 18.5435C109.792 18.6446 109.689 18.7676 109.618 18.9047C109.547 19.0418 109.51 19.19 109.51 19.3398V22.337C109.51 22.9336 110.076 23.4151 110.776 23.4151ZM117.813 27.3683V29.6719C117.813 30.2684 118.378 30.75 119.079 30.75H121.475C122.175 30.75 122.74 30.2684 122.74 29.6719V27.3683C122.74 26.7717 122.175 26.2901 121.475 26.2901H119.079C118.378 26.2901 117.813 26.7717 117.813 27.3683ZM119.079 23.4151H121.475C122.175 23.4151 122.74 22.9336 122.74 22.337V20.1556C122.74 19.5986 122.238 19.1314 121.589 19.0811L119.192 18.8978C119.017 18.8844 118.841 18.9022 118.674 18.9501C118.508 18.998 118.354 19.0749 118.225 19.176C118.095 19.2771 117.991 19.4001 117.92 19.5372C117.849 19.6743 117.813 19.8225 117.813 19.9723V22.337C117.813 22.9336 118.378 23.4151 119.079 23.4151ZM99.782 18.8367L100.799 22.5778C100.863 22.815 101.02 23.0265 101.244 23.1779C101.467 23.3294 101.745 23.4117 102.031 23.4115H104.87C105.57 23.4115 106.135 22.93 106.135 22.3334V18.8906C106.135 18.3336 105.633 17.8664 104.984 17.8161L101.132 17.5214C100.271 17.4567 99.5879 18.1251 99.782 18.8367ZM104.355 30.75H105.287C105.752 30.75 106.131 30.4265 106.131 30.0312V27.3683C106.131 26.7717 105.566 26.2901 104.866 26.2901H103.393C102.579 26.2901 101.976 26.937 102.161 27.6126L102.71 29.6395C102.797 29.9554 103.007 30.2369 103.306 30.4384C103.604 30.64 103.974 30.7497 104.355 30.75ZM129.355 27.3575C129.49 26.804 128.993 26.2865 128.33 26.2865H127.381C126.681 26.2865 126.115 26.7681 126.115 27.3647V29.8551C126.115 30.0915 126.226 30.3182 126.422 30.4854C126.618 30.6525 126.884 30.7464 127.162 30.7464C127.963 30.7464 128.655 30.2648 128.815 29.5964L129.355 27.3575Z" fill="#FAC136"/>
<path d="M104.132 44.1655C101.569 44.1655 99.491 42.3957 99.491 40.2124C99.491 38.0292 101.569 36.2593 104.132 36.2593C106.695 36.2593 108.772 38.0292 108.772 40.2124C108.772 42.3957 106.695 44.1655 104.132 44.1655Z" fill="#2F2F2F"/>
<path d="M104.132 42.0558C102.936 42.0558 101.967 41.2304 101.967 40.2122C101.967 39.1941 102.936 38.3687 104.132 38.3687C105.327 38.3687 106.296 39.1941 106.296 40.2122C106.296 41.2304 105.327 42.0558 104.132 42.0558Z" fill="#65878D"/>
<path d="M126.423 44.1655C123.86 44.1655 121.783 42.3957 121.783 40.2124C121.783 38.0292 123.86 36.2593 126.423 36.2593C128.986 36.2593 131.064 38.0292 131.064 40.2124C131.064 42.3957 128.986 44.1655 126.423 44.1655Z" fill="#2F2F2F"/>
<path d="M126.423 42.0558C125.228 42.0558 124.259 41.2304 124.259 40.2122C124.259 39.1941 125.228 38.3687 126.423 38.3687C127.619 38.3687 128.588 39.1941 128.588 40.2122C128.588 41.2304 127.619 42.0558 126.423 42.0558Z" fill="#65878D"/>
<path d="M85.9699 10.5027C84.2434 10.5027 82.8438 9.31044 82.8438 7.83973C82.8438 6.36901 84.2434 5.17676 85.9699 5.17676C87.6963 5.17676 89.0959 6.36901 89.0959 7.83973C89.0959 9.31044 87.6963 10.5027 85.9699 10.5027Z" fill="#65878D"/>
</svg>
