<svg width="774" height="293" viewBox="0 0 774 293" fill="none" xmlns="http://www.w3.org/2000/svg">
<mask id="mask0_8510_503" style="mask-type:alpha" maskUnits="userSpaceOnUse" x="17" y="0" width="707" height="274">
<path d="M17.3926 220.931V177.028L127.204 3.60494H164.964V64.3739H142.617L73.3902 174.196V176.256H229.439V220.931H17.3926ZM143.644 267.281V207.542L144.672 188.101V3.60494H196.816V267.281H143.644Z" fill="#2862FF"/>
<path d="M369.625 273.074C347.534 272.988 328.526 267.538 312.6 256.723C296.76 245.909 284.558 230.244 275.996 209.73C267.519 189.217 263.324 164.54 263.41 135.7C263.41 106.947 267.648 82.4416 276.125 62.1852C284.687 41.9289 296.888 26.5221 312.728 15.9648C328.654 5.32158 347.62 0 369.625 0C391.63 0 410.553 5.32158 426.393 15.9648C442.319 26.6079 454.563 42.0576 463.126 62.314C471.688 82.4845 475.926 106.947 475.841 135.7C475.841 164.626 471.56 189.345 462.997 209.859C454.521 230.373 442.362 246.037 426.522 256.852C410.681 267.667 391.716 273.074 369.625 273.074ZM369.625 226.854C384.695 226.854 396.725 219.258 405.715 204.065C414.706 188.873 419.158 166.085 419.073 135.7C419.073 115.701 417.018 99.05 412.908 85.7461C408.883 72.4421 403.147 62.4427 395.697 55.7478C388.334 49.053 379.643 45.7055 369.625 45.7055C354.641 45.7055 342.654 53.2158 333.663 68.2364C324.673 83.257 320.135 105.745 320.049 135.7C320.049 155.957 322.061 172.866 326.086 186.427C330.196 199.903 335.975 210.031 343.424 216.811C350.874 223.506 359.607 226.854 369.625 226.854Z" fill="#2862FF"/>
<path d="M511.514 220.931V177.028L621.325 3.60494H659.085V64.3739H636.737L567.511 174.196V176.256H723.559V220.931H511.514ZM637.765 267.281V207.542L638.792 188.101V3.60494H690.937V267.281H637.765Z" fill="#2862FF"/>
</mask>
<g mask="url(#mask0_8510_503)">
<rect x="17.3926" y="216.72" width="706.167" height="56.3542" fill="#56EBFF"/>
</g>
<mask id="mask1_8510_503" style="mask-type:alpha" maskUnits="userSpaceOnUse" x="15" y="0" width="707" height="274">
<path d="M15.6543 220.931V177.028L125.466 3.60494H163.226V64.3739H140.878L71.6519 174.196V176.256H227.7V220.931H15.6543ZM141.906 267.281V207.542L142.933 188.101V3.60494H195.078V267.281H141.906Z" fill="#2862FF"/>
<path d="M367.887 273.074C345.796 272.988 326.788 267.538 310.862 256.723C295.021 245.909 282.82 230.244 274.258 209.73C265.781 189.217 261.586 164.54 261.671 135.7C261.671 106.947 265.91 82.4416 274.386 62.1852C282.949 41.9289 295.15 26.5221 310.99 15.9648C326.916 5.32158 345.882 0 367.887 0C389.892 0 408.815 5.32158 424.655 15.9648C440.581 26.6079 452.825 42.0576 461.387 62.314C469.95 82.4845 474.188 106.947 474.103 135.7C474.103 164.626 469.821 189.345 461.259 209.859C452.782 230.373 440.624 246.037 424.784 256.852C408.943 267.667 389.978 273.074 367.887 273.074ZM367.887 226.854C382.957 226.854 394.987 219.258 403.977 204.065C412.968 188.873 417.42 166.085 417.334 135.7C417.334 115.701 415.279 99.05 411.169 85.7461C407.145 72.4421 401.408 62.4427 393.959 55.7478C386.596 49.053 377.905 45.7055 367.887 45.7055C352.903 45.7055 340.916 53.2158 331.925 68.2364C322.935 83.257 318.397 105.745 318.311 135.7C318.311 155.957 320.323 172.866 324.347 186.427C328.457 199.903 334.237 210.031 341.686 216.811C349.135 223.506 357.869 226.854 367.887 226.854Z" fill="#2862FF"/>
<path d="M509.775 220.931V177.028L619.587 3.60494H657.347V64.3739H634.999L565.773 174.196V176.256H721.821V220.931H509.775ZM636.027 267.281V207.542L637.054 188.101V3.60494H689.199V267.281H636.027Z" fill="#2862FF"/>
</mask>
<g mask="url(#mask1_8510_503)">
<rect x="15.6543" y="162.453" width="706.167" height="54.6149" fill="#56EBFF"/>
</g>
<mask id="mask2_8510_503" style="mask-type:alpha" maskUnits="userSpaceOnUse" x="50" y="0" width="707" height="274">
<path d="M50.4414 220.931V177.028L160.253 3.60494H198.013V64.3739H175.665L106.439 174.196V176.256H262.487V220.931H50.4414ZM176.693 267.281V207.542L177.72 188.101V3.60494H229.865V267.281H176.693Z" fill="#2862FF"/>
<path d="M402.674 273.074C380.583 272.988 361.575 267.538 345.649 256.723C329.809 245.909 317.607 230.244 309.045 209.73C300.568 189.216 296.373 164.54 296.458 135.7C296.458 106.947 300.697 82.4416 309.173 62.1852C317.736 41.9289 329.937 26.5221 345.777 15.9648C361.703 5.32158 380.669 0 402.674 0C424.679 0 443.602 5.32158 459.442 15.9648C475.368 26.6079 487.612 42.0576 496.175 62.314C504.737 82.4845 508.975 106.947 508.89 135.7C508.89 164.626 504.608 189.345 496.046 209.859C487.569 230.373 475.411 246.037 459.571 256.852C443.73 267.667 424.765 273.074 402.674 273.074ZM402.674 226.854C417.744 226.854 429.774 219.258 438.764 204.065C447.755 188.873 452.207 166.085 452.121 135.7C452.121 115.701 450.066 99.05 445.957 85.7461C441.932 72.4421 436.195 62.4427 428.746 55.7478C421.383 49.053 412.692 45.7055 402.674 45.7055C387.69 45.7055 375.703 53.2158 366.712 68.2364C357.722 83.257 353.184 105.745 353.098 135.7C353.098 155.957 355.11 172.866 359.135 186.427C363.244 199.903 369.024 210.031 376.473 216.811C383.922 223.506 392.656 226.854 402.674 226.854Z" fill="#2862FF"/>
<path d="M544.562 220.931V177.028L654.374 3.60494H692.134V64.3739H669.786L600.56 174.196V176.256H756.608V220.931H544.562ZM670.814 267.281V207.542L671.841 188.101V3.60494H723.986V267.281H670.814Z" fill="#2862FF"/>
</mask>
<g mask="url(#mask2_8510_503)">
<rect x="50.4414" y="107.838" width="706.167" height="54.6149" fill="#56EBFF"/>
</g>
<mask id="mask3_8510_503" style="mask-type:alpha" maskUnits="userSpaceOnUse" x="0" y="19" width="707" height="274">
<path d="M0 240.063V196.16L109.812 22.737H147.572V83.506H125.224L55.9976 193.328V195.388H212.046V240.063H0ZM126.251 286.413V226.674L127.279 207.233V22.737H179.423V286.413H126.251Z" fill="#2862FF"/>
<path d="M352.233 292.206C330.142 292.121 311.133 286.67 295.207 275.855C279.367 265.041 267.166 249.376 258.604 228.862C250.127 208.349 245.931 183.672 246.017 154.832C246.017 126.079 250.255 101.574 258.732 81.3173C267.294 61.061 279.496 45.6541 295.336 35.0968C311.262 24.4537 330.227 19.1321 352.233 19.1321C374.238 19.1321 393.16 24.4537 409.001 35.0968C424.927 45.74 437.171 61.1897 445.733 81.4461C454.295 101.617 458.534 126.079 458.448 154.832C458.448 183.758 454.167 208.477 445.605 228.991C437.128 249.505 424.97 265.169 409.129 275.984C393.289 286.799 374.323 292.206 352.233 292.206ZM352.233 245.986C367.302 245.986 379.332 238.39 388.323 223.198C397.313 208.005 401.766 185.217 401.68 154.832C401.68 134.834 399.625 118.182 395.515 104.878C391.491 91.5742 385.754 81.5748 378.305 74.8799C370.941 68.185 362.25 64.8376 352.233 64.8376C337.249 64.8376 325.261 72.3479 316.271 87.3685C307.28 102.389 302.742 124.877 302.657 154.832C302.657 175.089 304.669 191.998 308.693 205.559C312.803 219.035 318.583 229.163 326.032 235.944C333.481 242.638 342.215 245.986 352.233 245.986Z" fill="#2862FF"/>
<path d="M494.121 240.063V196.16L603.933 22.737H641.693V83.506H619.345L550.119 193.328V195.388H706.167V240.063H494.121ZM620.372 286.413V226.674L621.4 207.233V22.737H673.544V286.413H620.372Z" fill="#2862FF"/>
</mask>
<g mask="url(#mask3_8510_503)">
<rect y="72.3558" width="706.167" height="54.6149" fill="#56EBFF"/>
</g>
<mask id="mask4_8510_503" style="mask-type:alpha" maskUnits="userSpaceOnUse" x="20" y="0" width="708" height="274">
<path d="M20.8711 220.931V177.028L130.683 3.60494H168.443V64.3739H146.095L76.8687 174.196V176.256H232.917V220.931H20.8711ZM147.123 267.281V207.542L148.15 188.101V3.60494H200.295V267.281H147.123Z" fill="#2862FF"/>
<path d="M373.104 273.074C351.013 272.988 332.004 267.538 316.079 256.723C300.238 245.909 288.037 230.244 279.475 209.73C270.998 189.216 266.802 164.54 266.888 135.7C266.888 106.947 271.126 82.4416 279.603 62.1852C288.165 41.9289 300.367 26.5221 316.207 15.9648C332.133 5.32158 351.098 0 373.104 0C395.109 0 414.032 5.32158 429.872 15.9648C445.798 26.6079 458.042 42.0576 466.604 62.314C475.167 82.4845 479.405 106.947 479.319 135.7C479.319 164.626 475.038 189.345 466.476 209.859C457.999 230.373 445.841 246.037 430 256.852C414.16 267.667 395.194 273.074 373.104 273.074ZM373.104 226.854C388.173 226.854 400.203 219.258 409.194 204.065C418.184 188.873 422.637 166.085 422.551 135.7C422.551 115.701 420.496 99.05 416.386 85.7461C412.362 72.4421 406.625 62.4427 399.176 55.7478C391.812 49.053 383.122 45.7055 373.104 45.7055C358.12 45.7055 346.132 53.2158 337.142 68.2364C328.151 83.257 323.613 105.745 323.528 135.7C323.528 155.957 325.54 172.866 329.564 186.427C333.674 199.903 339.454 210.031 346.903 216.811C354.352 223.506 363.086 226.854 373.104 226.854Z" fill="#2862FF"/>
<path d="M514.992 220.931V177.028L624.804 3.60494H662.564V64.3739H640.216L570.99 174.196V176.256H727.038V220.931H514.992ZM641.244 267.281V207.542L642.271 188.101V3.60494H694.416V267.281H641.244Z" fill="#2862FF"/>
</mask>
<g mask="url(#mask4_8510_503)">
<rect x="20.8711" width="706.167" height="54.6149" fill="#56EBFF"/>
</g>
<mask id="mask5_8510_503" style="mask-type:alpha" maskUnits="userSpaceOnUse" x="62" y="0" width="707" height="274">
<path d="M62.6152 220.931V177.028L172.427 3.60494H210.187V64.3739H187.839L118.613 174.196V176.256H274.661V220.931H62.6152ZM188.867 267.281V207.542L189.894 188.101V3.60494H242.039V267.281H188.867Z" fill="#2862FF"/>
<path d="M414.848 273.074C392.757 272.988 373.749 267.538 357.823 256.723C341.982 245.909 329.781 230.244 321.219 209.73C312.742 189.217 308.547 164.54 308.632 135.7C308.632 106.947 312.871 82.4416 321.347 62.1852C329.91 41.9289 342.111 26.5221 357.951 15.9648C373.877 5.32158 392.843 0 414.848 0C436.853 0 455.776 5.32158 471.616 15.9648C487.542 26.6079 499.786 42.0576 508.348 62.314C516.911 82.4845 521.149 106.947 521.063 135.7C521.063 164.626 516.782 189.345 508.22 209.859C499.743 230.373 487.585 246.037 471.744 256.852C455.904 267.667 436.939 273.074 414.848 273.074ZM414.848 226.854C429.917 226.854 441.948 219.258 450.938 204.065C459.928 188.873 464.381 166.085 464.295 135.7C464.295 115.701 462.24 99.05 458.13 85.7461C454.106 72.4421 448.369 62.4427 440.92 55.7478C433.556 49.053 424.866 45.7055 414.848 45.7055C399.864 45.7055 387.876 53.2158 378.886 68.2364C369.896 83.257 365.358 105.745 365.272 135.7C365.272 155.957 367.284 172.866 371.308 186.427C375.418 199.903 381.198 210.031 388.647 216.811C396.096 223.506 404.83 226.854 414.848 226.854Z" fill="#2862FF"/>
<path d="M556.736 220.931V177.028L666.548 3.60494H704.308V64.3739H681.96L612.734 174.196V176.256H768.782V220.931H556.736ZM682.988 267.281V207.542L684.015 188.101V3.60494H736.16V267.281H682.988Z" fill="#2862FF"/>
</mask>
<g mask="url(#mask5_8510_503)">
<rect x="62.6152" y="216.72" width="706.167" height="56.3542" fill="#FF0000"/>
</g>
<mask id="mask6_8510_503" style="mask-type:alpha" maskUnits="userSpaceOnUse" x="64" y="0" width="707" height="274">
<path d="M64.3535 220.931V177.028L174.165 3.60494H211.925V64.3739H189.577L120.351 174.196V176.256H276.399V220.931H64.3535ZM190.605 267.281V207.542L191.632 188.101V3.60494H243.777V267.281H190.605Z" fill="#2862FF"/>
<path d="M416.586 273.074C394.495 272.988 375.487 267.538 359.561 256.723C343.721 245.909 331.519 230.244 322.957 209.73C314.48 189.217 310.285 164.54 310.37 135.7C310.37 106.947 314.609 82.4416 323.086 62.1852C331.648 41.9289 343.849 26.5221 359.689 15.9648C375.615 5.32158 394.581 0 416.586 0C438.591 0 457.514 5.32158 473.354 15.9648C489.28 26.6079 501.524 42.0576 510.087 62.314C518.649 82.4845 522.887 106.947 522.802 135.7C522.802 164.626 518.521 189.345 509.958 209.859C501.482 230.373 489.323 246.037 473.483 256.852C457.642 267.667 438.677 273.074 416.586 273.074ZM416.586 226.854C431.656 226.854 443.686 219.258 452.676 204.065C461.667 188.873 466.119 166.085 466.034 135.7C466.034 115.701 463.979 99.05 459.869 85.7461C455.844 72.4421 450.108 62.4427 442.658 55.7478C435.295 49.053 426.604 45.7055 416.586 45.7055C401.602 45.7055 389.615 53.2158 380.624 68.2364C371.634 83.257 367.096 105.745 367.01 135.7C367.01 155.957 369.022 172.866 373.047 186.427C377.157 199.903 382.936 210.031 390.385 216.811C397.835 223.506 406.568 226.854 416.586 226.854Z" fill="#2862FF"/>
<path d="M558.474 220.931V177.028L668.286 3.60494H706.046V64.3739H683.698L614.472 174.196V176.256H770.52V220.931H558.474ZM684.726 267.281V207.542L685.753 188.101V3.60494H737.898V267.281H684.726Z" fill="#2862FF"/>
</mask>
<g mask="url(#mask6_8510_503)">
<rect x="64.3535" y="162.453" width="706.167" height="54.6149" fill="#FF0000"/>
</g>
<mask id="mask7_8510_503" style="mask-type:alpha" maskUnits="userSpaceOnUse" x="64" y="0" width="707" height="274">
<path d="M64.3535 220.931V177.028L174.165 3.60494H211.925V64.3739H189.577L120.351 174.196V176.256H276.399V220.931H64.3535ZM190.605 267.281V207.542L191.632 188.101V3.60494H243.777V267.281H190.605Z" fill="#2862FF"/>
<path d="M416.586 273.074C394.495 272.988 375.487 267.538 359.561 256.723C343.721 245.909 331.519 230.244 322.957 209.73C314.48 189.216 310.285 164.54 310.37 135.7C310.37 106.947 314.609 82.4416 323.086 62.1852C331.648 41.9289 343.849 26.5221 359.689 15.9648C375.615 5.32158 394.581 0 416.586 0C438.591 0 457.514 5.32158 473.354 15.9648C489.28 26.6079 501.524 42.0576 510.087 62.314C518.649 82.4845 522.887 106.947 522.802 135.7C522.802 164.626 518.521 189.345 509.958 209.859C501.481 230.373 489.323 246.037 473.483 256.852C457.642 267.667 438.677 273.074 416.586 273.074ZM416.586 226.854C431.656 226.854 443.686 219.258 452.676 204.065C461.667 188.873 466.119 166.085 466.033 135.7C466.033 115.701 463.979 99.05 459.869 85.7461C455.844 72.4421 450.108 62.4427 442.658 55.7478C435.295 49.053 426.604 45.7055 416.586 45.7055C401.602 45.7055 389.615 53.2158 380.624 68.2364C371.634 83.257 367.096 105.745 367.01 135.7C367.01 155.957 369.022 172.866 373.047 186.427C377.157 199.903 382.936 210.031 390.385 216.811C397.835 223.506 406.568 226.854 416.586 226.854Z" fill="#2862FF"/>
<path d="M558.474 220.931V177.028L668.286 3.60494H706.046V64.3739H683.698L614.472 174.196V176.256H770.52V220.931H558.474ZM684.726 267.281V207.542L685.753 188.101V3.60494H737.898V267.281H684.726Z" fill="#2862FF"/>
</mask>
<g mask="url(#mask7_8510_503)">
<rect x="64.3535" y="107.838" width="706.167" height="54.6149" fill="#FF0000"/>
</g>
<mask id="mask8_8510_503" style="mask-type:alpha" maskUnits="userSpaceOnUse" x="20" y="0" width="708" height="274">
<path d="M20.8711 220.931V177.028L130.683 3.60494H168.443V64.3739H146.095L76.8687 174.196V176.256H232.917V220.931H20.8711ZM147.123 267.281V207.542L148.15 188.101V3.60494H200.295V267.281H147.123Z" fill="#2862FF"/>
<path d="M373.104 273.074C351.013 272.988 332.004 267.538 316.079 256.723C300.238 245.909 288.037 230.244 279.475 209.73C270.998 189.216 266.802 164.54 266.888 135.7C266.888 106.947 271.126 82.4416 279.603 62.1852C288.165 41.9289 300.367 26.5221 316.207 15.9648C332.133 5.32158 351.098 0 373.104 0C395.109 0 414.032 5.32158 429.872 15.9648C445.798 26.6079 458.042 42.0576 466.604 62.314C475.167 82.4845 479.405 106.947 479.319 135.7C479.319 164.626 475.038 189.345 466.476 209.859C457.999 230.373 445.841 246.037 430 256.852C414.16 267.667 395.194 273.074 373.104 273.074ZM373.104 226.854C388.173 226.854 400.203 219.258 409.194 204.065C418.184 188.873 422.637 166.085 422.551 135.7C422.551 115.701 420.496 99.05 416.386 85.7461C412.362 72.4421 406.625 62.4427 399.176 55.7478C391.812 49.053 383.122 45.7055 373.104 45.7055C358.12 45.7055 346.132 53.2158 337.142 68.2364C328.151 83.257 323.613 105.745 323.528 135.7C323.528 155.957 325.54 172.866 329.564 186.427C333.674 199.903 339.454 210.031 346.903 216.811C354.352 223.506 363.086 226.854 373.104 226.854Z" fill="#2862FF"/>
<path d="M514.992 220.931V177.028L624.804 3.60494H662.564V64.3739H640.216L570.99 174.196V176.256H727.038V220.931H514.992ZM641.244 267.281V207.542L642.271 188.101V3.60494H694.416V267.281H641.244Z" fill="#2862FF"/>
</mask>
<g mask="url(#mask8_8510_503)">
<rect x="20.8711" y="53.2235" width="706.167" height="54.6149" fill="#FF0000"/>
</g>
<mask id="mask9_8510_503" style="mask-type:alpha" maskUnits="userSpaceOnUse" x="48" y="0" width="707" height="274">
<path d="M48.7012 220.931V177.028L158.513 3.60494H196.273V64.3739H173.925L104.699 174.196V176.256H260.747V220.931H48.7012ZM174.953 267.281V207.542L175.98 188.101V3.60494H228.125V267.281H174.953Z" fill="#2862FF"/>
<path d="M400.934 273.074C378.843 272.988 359.835 267.538 343.909 256.723C328.068 245.909 315.867 230.244 307.305 209.73C298.828 189.216 294.632 164.54 294.718 135.7C294.718 106.947 298.956 82.4416 307.433 62.1852C315.995 41.9289 328.197 26.5221 344.037 15.9648C359.963 5.32158 378.929 0 400.934 0C422.939 0 441.862 5.32158 457.702 15.9648C473.628 26.6079 485.872 42.0576 494.434 62.314C502.997 82.4845 507.235 106.947 507.149 135.7C507.149 164.626 502.868 189.345 494.306 209.859C485.829 230.373 473.671 246.037 457.83 256.852C441.99 267.667 423.025 273.074 400.934 273.074ZM400.934 226.854C416.003 226.854 428.034 219.258 437.024 204.065C446.014 188.873 450.467 166.085 450.381 135.7C450.381 115.701 448.326 99.05 444.216 85.7461C440.192 72.4421 434.455 62.4427 427.006 55.7478C419.642 49.053 410.952 45.7055 400.934 45.7055C385.95 45.7055 373.962 53.2158 364.972 68.2364C355.982 83.257 351.444 105.745 351.358 135.7C351.358 155.957 353.37 172.866 357.394 186.427C361.504 199.903 367.284 210.031 374.733 216.811C382.182 223.506 390.916 226.854 400.934 226.854Z" fill="#2862FF"/>
<path d="M542.822 220.931V177.028L652.634 3.60494H690.394V64.3739H668.046L598.82 174.196V176.256H754.868V220.931H542.822ZM669.074 267.281V207.542L670.101 188.101V3.60494H722.246V267.281H669.074Z" fill="#2862FF"/>
</mask>
<g mask="url(#mask9_8510_503)">
<rect x="48.7012" width="706.167" height="54.6149" fill="#FF0000"/>
</g>
<mask id="mask10_8510_503" style="mask-type:alpha" maskUnits="userSpaceOnUse" x="40" y="17" width="707" height="274">
<path d="M40.0039 238.325V194.422L149.816 20.9984H187.576V81.7674H165.228L96.0015 191.589V193.649H252.05V238.325H40.0039ZM166.255 284.674V224.935L167.283 205.494V20.9984H219.427V284.674H166.255Z" fill="#2862FF"/>
<path d="M392.236 290.468C370.146 290.382 351.137 284.932 335.211 274.117C319.371 263.302 307.17 247.638 298.607 227.124C290.131 206.61 285.935 181.933 286.021 153.094C286.021 124.34 290.259 99.835 298.736 79.5787C307.298 59.3223 319.5 43.9155 335.34 33.3582C351.266 22.715 370.231 17.3934 392.236 17.3934C414.242 17.3934 433.164 22.715 449.005 33.3582C464.931 44.0013 477.175 59.4511 485.737 79.7074C494.299 99.8779 498.538 124.34 498.452 153.094C498.452 182.019 494.171 206.739 485.609 227.253C477.132 247.766 464.973 263.431 449.133 274.246C433.293 285.06 414.327 290.468 392.236 290.468ZM392.236 244.247C407.306 244.247 419.336 236.651 428.327 221.459C437.317 206.267 441.77 183.478 441.684 153.094C441.684 133.095 439.629 116.443 435.519 103.14C431.495 89.8356 425.758 79.8362 418.309 73.1413C410.945 66.4464 402.254 63.0989 392.236 63.0989C377.252 63.0989 365.265 70.6092 356.275 85.6298C347.284 100.65 342.746 123.138 342.661 153.094C342.661 173.35 344.673 190.259 348.697 203.82C352.807 217.296 358.587 227.424 366.036 234.205C373.485 240.9 382.219 244.247 392.236 244.247Z" fill="#2862FF"/>
<path d="M534.125 238.325V194.422L643.937 20.9984H681.696V81.7674H659.349L590.122 191.589V193.649H746.171V238.325H534.125ZM660.376 284.674V224.935L661.404 205.494V20.9984H713.548V284.674H660.376Z" fill="#2862FF"/>
</mask>
<g mask="url(#mask10_8510_503)">
<rect x="40.0039" y="234.113" width="706.167" height="56.3542" fill="black"/>
</g>
<mask id="mask11_8510_503" style="mask-type:alpha" maskUnits="userSpaceOnUse" x="40" y="0" width="707" height="274">
<path d="M40.0039 220.931V177.028L149.816 3.60494H187.576V64.3739H165.228L96.0015 174.196V176.256H252.05V220.931H40.0039ZM166.255 267.281V207.542L167.283 188.101V3.60494H219.427V267.281H166.255Z" fill="#2862FF"/>
<path d="M392.237 273.074C370.146 272.988 351.137 267.538 335.211 256.723C319.371 245.909 307.17 230.244 298.607 209.73C290.131 189.217 285.935 164.54 286.021 135.7C286.021 106.947 290.259 82.4416 298.736 62.1852C307.298 41.9289 319.5 26.5221 335.34 15.9648C351.266 5.32158 370.231 0 392.237 0C414.242 0 433.164 5.32158 449.005 15.9648C464.931 26.6079 477.175 42.0576 485.737 62.314C494.299 82.4845 498.538 106.947 498.452 135.7C498.452 164.626 494.171 189.345 485.609 209.859C477.132 230.373 464.973 246.037 449.133 256.852C433.293 267.667 414.327 273.074 392.237 273.074ZM392.237 226.854C407.306 226.854 419.336 219.258 428.327 204.065C437.317 188.873 441.77 166.085 441.684 135.7C441.684 115.701 439.629 99.05 435.519 85.7461C431.495 72.4421 425.758 62.4427 418.309 55.7478C410.945 49.053 402.254 45.7055 392.237 45.7055C377.252 45.7055 365.265 53.2158 356.275 68.2364C347.284 83.257 342.746 105.745 342.661 135.7C342.661 155.957 344.673 172.866 348.697 186.427C352.807 199.903 358.587 210.031 366.036 216.811C373.485 223.506 382.219 226.854 392.237 226.854Z" fill="#2862FF"/>
<path d="M534.125 220.931V177.028L643.937 3.60494H681.697V64.3739H659.349L590.122 174.196V176.256H746.171V220.931H534.125ZM660.376 267.281V207.542L661.404 188.101V3.60494H713.548V267.281H660.376Z" fill="#2862FF"/>
</mask>
<g mask="url(#mask11_8510_503)">
<rect x="40.0039" y="162.453" width="706.167" height="54.6149" fill="black"/>
</g>
<mask id="mask12_8510_503" style="mask-type:alpha" maskUnits="userSpaceOnUse" x="67" y="0" width="707" height="274">
<path d="M67.832 220.931V177.028L177.644 3.60494H215.404V64.3739H193.056L123.83 174.196V176.256H279.878V220.931H67.832ZM194.083 267.281V207.542L195.111 188.101V3.60494H247.256V267.281H194.083Z" fill="#2862FF"/>
<path d="M420.065 273.074C397.974 272.988 378.965 267.538 363.039 256.723C347.199 245.909 334.998 230.244 326.436 209.73C317.959 189.216 313.763 164.54 313.849 135.7C313.849 106.947 318.087 82.4416 326.564 62.1852C335.126 41.9289 347.328 26.5221 363.168 15.9648C379.094 5.32158 398.059 0 420.065 0C442.07 0 460.992 5.32158 476.833 15.9648C492.759 26.6079 505.003 42.0576 513.565 62.314C522.127 82.4845 526.366 106.947 526.28 135.7C526.28 164.626 521.999 189.345 513.437 209.859C504.96 230.373 492.802 246.037 476.961 256.852C461.121 267.667 442.155 273.074 420.065 273.074ZM420.065 226.854C435.134 226.854 447.164 219.258 456.155 204.065C465.145 188.873 469.598 166.085 469.512 135.7C469.512 115.701 467.457 99.05 463.347 85.7461C459.323 72.4421 453.586 62.4427 446.137 55.7478C438.773 49.053 430.083 45.7055 420.065 45.7055C405.081 45.7055 393.093 53.2158 384.103 68.2364C375.112 83.257 370.574 105.745 370.489 135.7C370.489 155.957 372.501 172.866 376.525 186.427C380.635 199.903 386.415 210.031 393.864 216.811C401.313 223.506 410.047 226.854 420.065 226.854Z" fill="#2862FF"/>
<path d="M561.953 220.931V177.028L671.765 3.60494H709.525V64.3739H687.177L617.951 174.196V176.256H773.999V220.931H561.953ZM688.204 267.281V207.542L689.232 188.101V3.60494H741.377V267.281H688.204Z" fill="#2862FF"/>
</mask>
<g mask="url(#mask12_8510_503)">
<rect x="67.832" y="107.838" width="706.167" height="54.6149" fill="black"/>
</g>
<mask id="mask13_8510_503" style="mask-type:alpha" maskUnits="userSpaceOnUse" x="10" y="0" width="707" height="274">
<path d="M10.4355 220.931V177.028L120.247 3.60494H158.007V64.3739H135.66L66.4331 174.196V176.256H222.481V220.931H10.4355ZM136.687 267.281V207.542L137.714 188.101V3.60494H189.859V267.281H136.687Z" fill="#2862FF"/>
<path d="M362.668 273.074C340.577 272.988 321.569 267.538 305.643 256.723C289.803 245.909 277.601 230.244 269.039 209.73C260.562 189.216 256.367 164.54 256.452 135.7C256.452 106.947 260.691 82.4416 269.168 62.1852C277.73 41.9289 289.931 26.5221 305.771 15.9648C321.697 5.32158 340.663 0 362.668 0C384.673 0 403.596 5.32158 419.436 15.9648C435.362 26.6079 447.606 42.0576 456.169 62.314C464.731 82.4845 468.969 106.947 468.884 135.7C468.884 164.626 464.603 189.345 456.04 209.859C447.564 230.373 435.405 246.037 419.565 256.852C403.724 267.667 384.759 273.074 362.668 273.074ZM362.668 226.854C377.738 226.854 389.768 219.258 398.758 204.065C407.749 188.873 412.201 166.085 412.116 135.7C412.116 115.701 410.061 99.05 405.951 85.7461C401.926 72.4421 396.19 62.4427 388.74 55.7478C381.377 49.053 372.686 45.7055 362.668 45.7055C347.684 45.7055 335.697 53.2158 326.706 68.2364C317.716 83.257 313.178 105.745 313.092 135.7C313.092 155.957 315.104 172.866 319.129 186.427C323.239 199.903 329.018 210.031 336.467 216.811C343.917 223.506 352.65 226.854 362.668 226.854Z" fill="#2862FF"/>
<path d="M504.556 220.931V177.028L614.368 3.60494H652.128V64.3739H629.78L560.554 174.196V176.256H716.602V220.931H504.556ZM630.808 267.281V207.542L631.835 188.101V3.60494H683.98V267.281H630.808Z" fill="#2862FF"/>
</mask>
<g mask="url(#mask13_8510_503)">
<rect x="10.4355" y="53.2235" width="706.167" height="54.6149" fill="black"/>
</g>
<mask id="mask14_8510_503" style="mask-type:alpha" maskUnits="userSpaceOnUse" x="57" y="0" width="707" height="274">
<path d="M57.3965 220.931V177.028L167.208 3.60494H204.968V64.3739H182.62L113.394 174.196V176.256H269.442V220.931H57.3965ZM183.648 267.281V207.542L184.675 188.101V3.60494H236.82V267.281H183.648Z" fill="#2862FF"/>
<path d="M409.629 273.074C387.538 272.988 368.53 267.538 352.604 256.723C336.764 245.909 324.562 230.244 316 209.73C307.523 189.216 303.328 164.54 303.413 135.7C303.413 106.947 307.652 82.4416 316.128 62.1852C324.691 41.9289 336.892 26.5221 352.732 15.9648C368.658 5.32158 387.624 0 409.629 0C431.634 0 450.557 5.32158 466.397 15.9648C482.323 26.6079 494.567 42.0576 503.13 62.314C511.692 82.4845 515.93 106.947 515.845 135.7C515.845 164.626 511.563 189.345 503.001 209.859C494.524 230.373 482.366 246.037 466.526 256.852C450.685 267.667 431.72 273.074 409.629 273.074ZM409.629 226.854C424.699 226.854 436.729 219.258 445.719 204.065C454.71 188.873 459.162 166.085 459.076 135.7C459.076 115.701 457.021 99.05 452.912 85.7461C448.887 72.4421 443.151 62.4427 435.701 55.7478C428.338 49.053 419.647 45.7055 409.629 45.7055C394.645 45.7055 382.658 53.2158 373.667 68.2364C364.677 83.257 360.139 105.745 360.053 135.7C360.053 155.957 362.065 172.866 366.09 186.427C370.2 199.903 375.979 210.031 383.428 216.811C390.878 223.506 399.611 226.854 409.629 226.854Z" fill="#2862FF"/>
<path d="M551.517 220.931V177.028L661.329 3.60494H699.089V64.3739H676.741L607.515 174.196V176.256H763.563V220.931H551.517ZM677.769 267.281V207.542L678.796 188.101V3.60494H730.941V267.281H677.769Z" fill="#2862FF"/>
</mask>
<g mask="url(#mask14_8510_503)">
<rect x="57.3965" width="706.167" height="54.6149" fill="black"/>
</g>
</svg>
