<svg width="59" height="59" viewBox="0 0 59 59" fill="none" xmlns="http://www.w3.org/2000/svg">
<path d="M31.7588 13.2058C30.9082 11.5981 28.2631 11.5981 27.4125 13.2058L5.28747 54.9975C5.0883 55.372 4.98956 55.7918 5.00087 56.2159C5.01218 56.64 5.13316 57.0539 5.35201 57.4173C5.57085 57.7808 5.88011 58.0813 6.24965 58.2897C6.61919 58.498 7.0364 58.6071 7.46063 58.6063H51.7106C52.1346 58.6072 52.5515 58.4982 52.9208 58.29C53.2901 58.0817 53.5991 57.7813 53.8177 57.4181C54.0364 57.0549 54.1571 56.6412 54.1683 56.2174C54.1794 55.7936 54.0806 55.3742 53.8813 54.9999L31.7588 13.2058ZM32.044 51.2313H27.1273V46.3146H32.044V51.2313ZM27.1273 41.398V29.1063H32.044L32.0464 41.398H27.1273Z" fill="#FD0100"/>
</svg>
