<svg width="20" height="20" viewBox="0 0 20 20" fill="none" xmlns="http://www.w3.org/2000/svg">
<path d="M7.08317 14.5833H12.9165V13.75H7.08317V14.5833ZM7.08317 11.25H12.9165V10.4167H7.08317V11.25ZM5.51234 17.5C5.129 17.5 4.809 17.3717 4.55234 17.115C4.29511 16.8578 4.1665 16.5375 4.1665 16.1542V3.84583C4.1665 3.4625 4.29511 3.1425 4.55234 2.88583C4.809 2.62861 5.129 2.5 5.51234 2.5H12.0832L15.8332 6.25V16.1542C15.8332 16.5375 15.7048 16.8575 15.4482 17.1142C15.1909 17.3714 14.8707 17.5 14.4873 17.5H5.51234ZM11.6665 6.66667V3.33333H5.51234C5.38456 3.33333 5.26706 3.38667 5.15984 3.49333C5.05317 3.60056 4.99984 3.71806 4.99984 3.84583V16.1542C4.99984 16.2819 5.05317 16.3994 5.15984 16.5067C5.26706 16.6133 5.38456 16.6667 5.51234 16.6667H14.4873C14.6151 16.6667 14.7326 16.6133 14.8398 16.5067C14.9465 16.3994 14.9998 16.2819 14.9998 16.1542V6.66667H11.6665Z" fill="#DFDFDF"/>
</svg>
