<svg width="38" height="37" viewBox="0 0 38 37" fill="none" xmlns="http://www.w3.org/2000/svg">
<path d="M18.9359 0C16.4736 0 14.0355 0.484983 11.7606 1.42726C9.48574 2.36953 7.41876 3.75065 5.67766 5.49175C2.16135 9.00805 0.185913 13.7772 0.185913 18.75C0.185913 27.0375 5.56716 34.0687 13.0109 36.5625C13.9484 36.7125 14.2484 36.1312 14.2484 35.625V32.4562C9.05466 33.5812 7.94841 29.9437 7.94841 29.9437C7.08591 27.7687 5.86716 27.1875 5.86716 27.1875C4.16091 26.025 5.99841 26.0625 5.99841 26.0625C7.87341 26.1937 8.86716 27.9937 8.86716 27.9937C10.4984 30.8438 13.2547 30 14.3234 29.55C14.4922 28.3312 14.9797 27.5062 15.5047 27.0375C11.3422 26.5687 6.97341 24.9562 6.97341 17.8125C6.97341 15.7312 7.68591 14.0625 8.90466 12.7312C8.71716 12.2625 8.06091 10.3125 9.09216 7.78125C9.09216 7.78125 10.6672 7.275 14.2484 9.69375C15.7297 9.28125 17.3422 9.075 18.9359 9.075C20.5297 9.075 22.1422 9.28125 23.6234 9.69375C27.2047 7.275 28.7797 7.78125 28.7797 7.78125C29.8109 10.3125 29.1547 12.2625 28.9672 12.7312C30.1859 14.0625 30.8984 15.7312 30.8984 17.8125C30.8984 24.975 26.5109 26.55 22.3297 27.0187C23.0047 27.6 23.6234 28.7437 23.6234 30.4875V35.625C23.6234 36.1312 23.9234 36.7312 24.8797 36.5625C32.3234 34.05 37.6859 27.0375 37.6859 18.75C37.6859 16.2877 37.2009 13.8495 36.2587 11.5747C35.3164 9.29983 33.9353 7.23285 32.1942 5.49175C30.4531 3.75065 28.3861 2.36953 26.1112 1.42726C23.8364 0.484983 21.3982 0 18.9359 0Z" fill="white"/>
</svg>
