<svg width="43" height="42" viewBox="0 0 43 42" fill="none" xmlns="http://www.w3.org/2000/svg">
<path d="M39.5967 21.1314C39.5967 19.6401 39.4732 18.5519 39.206 17.4233H21.8293V24.1543H32.029C31.8234 25.8271 30.713 28.3462 28.2452 30.0389L28.2106 30.2643L33.7048 34.4354L34.0855 34.4726C37.5813 31.3086 39.5967 26.6533 39.5967 21.1314Z" fill="#4285F4"/>
<path d="M21.8281 38.8662C26.8251 38.8662 31.0201 37.2538 34.0842 34.4728L28.244 30.039C26.6812 31.1072 24.5836 31.8528 21.8281 31.8528C16.9339 31.8528 12.78 28.6889 11.2992 24.3157L11.0822 24.3337L5.36927 28.6667L5.29456 28.8702C8.338 34.7951 14.5895 38.8662 21.8281 38.8662Z" fill="#34A853"/>
<path d="M11.3003 24.3158C10.9096 23.1873 10.6835 21.978 10.6835 20.7286C10.6835 19.479 10.9096 18.2699 11.2798 17.1414L11.2694 16.901L5.4849 12.4985L5.29564 12.5868C4.04128 15.0454 3.32153 17.8064 3.32153 20.7286C3.32153 23.6507 4.04128 26.4116 5.29564 28.8703L11.3003 24.3158Z" fill="#FBBC05"/>
<path d="M21.8282 9.60421C25.3035 9.60421 27.6477 11.0754 28.9845 12.3048L34.2078 7.30683C30.9998 4.38468 26.8252 2.59106 21.8282 2.59106C14.5895 2.59106 8.33802 6.66191 5.29456 12.5868L11.2787 17.1414C12.78 12.7682 16.934 9.60421 21.8282 9.60421Z" fill="#EB4335"/>
</svg>
