<svg width="18" height="18" viewBox="0 0 18 18" fill="none" xmlns="http://www.w3.org/2000/svg">
<path d="M13.8751 8.25C13.8751 5.3625 11.4001 3.075 8.43759 3.4125C6.18759 3.675 4.38759 5.475 4.16259 7.725C3.97509 9.45 4.68759 10.9875 5.88759 11.9625C6.41259 12.4125 6.75009 13.05 6.75009 13.7625V13.875H11.2501V13.8375C11.2501 13.1625 11.5501 12.4875 12.0751 12.0375C13.1626 11.1375 13.8751 9.7875 13.8751 8.25Z" fill="#FBC02D"/>
<path d="M11.4751 7.57505L10.3501 6.82505C10.2376 6.75005 10.0501 6.75005 9.9376 6.82505L9.0001 7.42505L8.1001 6.82505C7.9876 6.75005 7.8001 6.75005 7.6876 6.82505L6.5626 7.57505C6.4876 7.65005 6.4126 7.72505 6.4126 7.83755C6.4126 7.95005 6.4126 8.06255 6.4876 8.13755L7.9126 9.90005V13.875H8.6626V9.75005C8.6626 9.67505 8.6251 9.60005 8.5876 9.52505L7.3501 7.98755L7.9126 7.61255L8.8126 8.21255C8.9251 8.28755 9.1126 8.28755 9.2251 8.21255L10.1251 7.61255L10.6876 7.98755L9.4501 9.52505C9.4126 9.60005 9.3751 9.67505 9.3751 9.75005V13.875H10.1251V9.90005L11.5501 8.13755C11.6251 8.06255 11.6626 7.95005 11.6251 7.83755C11.5876 7.72505 11.5501 7.61255 11.4751 7.57505Z" fill="#FFF59D"/>
<path d="M9 17.625C9.62132 17.625 10.125 17.1213 10.125 16.5C10.125 15.8787 9.62132 15.375 9 15.375C8.37868 15.375 7.875 15.8787 7.875 16.5C7.875 17.1213 8.37868 17.625 9 17.625Z" fill="#5C6BC0"/>
<path d="M9.75 16.875H8.25C7.425 16.875 6.75 16.2 6.75 15.375V13.5H11.25V15.375C11.25 16.2 10.575 16.875 9.75 16.875Z" fill="#9FA8DA"/>
<path d="M11.25 15.375L6.9 15.975C7.0125 16.2375 7.2375 16.5 7.5 16.65L11.025 16.1625C11.175 15.9375 11.25 15.675 11.25 15.375ZM6.75 14.5125V15.2625L11.25 14.625V13.875L6.75 14.5125Z" fill="#5C6BC0"/>
</svg>
