<svg width="60" height="60" viewBox="0 0 60 60" fill="none" xmlns="http://www.w3.org/2000/svg">
<path fill-rule="evenodd" clip-rule="evenodd" d="M30 2.5C14.8125 2.5 2.5 14.8125 2.5 30C2.5 45.1875 14.8125 57.5 30 57.5C45.1875 57.5 57.5 45.1875 57.5 30C57.5 14.8125 45.1875 2.5 30 2.5ZM28.75 15C28.087 15 27.4511 15.2634 26.9822 15.7322C26.5134 16.2011 26.25 16.837 26.25 17.5C26.25 18.163 26.5134 18.7989 26.9822 19.2678C27.4511 19.7366 28.087 20 28.75 20H30C30.663 20 31.2989 19.7366 31.7678 19.2678C32.2366 18.7989 32.5 18.163 32.5 17.5C32.5 16.837 32.2366 16.2011 31.7678 15.7322C31.2989 15.2634 30.663 15 30 15H28.75ZM25 25C24.337 25 23.7011 25.2634 23.2322 25.7322C22.7634 26.2011 22.5 26.837 22.5 27.5C22.5 28.163 22.7634 28.7989 23.2322 29.2678C23.7011 29.7366 24.337 30 25 30H27.5V37.5H25C24.337 37.5 23.7011 37.7634 23.2322 38.2322C22.7634 38.7011 22.5 39.337 22.5 40C22.5 40.663 22.7634 41.2989 23.2322 41.7678C23.7011 42.2366 24.337 42.5 25 42.5H35C35.663 42.5 36.2989 42.2366 36.7678 41.7678C37.2366 41.2989 37.5 40.663 37.5 40C37.5 39.337 37.2366 38.7011 36.7678 38.2322C36.2989 37.7634 35.663 37.5 35 37.5H32.5V27.5C32.5 26.837 32.2366 26.2011 31.7678 25.7322C31.2989 25.2634 30.663 25 30 25H25Z" fill="#9747FF"/>
</svg>
