<svg width="164" height="52" viewBox="0 0 164 52" fill="none" xmlns="http://www.w3.org/2000/svg">
<path d="M2.64 40V10.2H8.84V34.6H21.44V40H2.64ZM34.995 40.48C32.675 40.48 30.6617 39.9733 28.955 38.96C27.2483 37.92 25.9283 36.5333 24.995 34.8C24.0617 33.0667 23.595 31.1467 23.595 29.04C23.595 26.8533 24.075 24.9067 25.035 23.2C26.0217 21.4933 27.3417 20.1467 28.995 19.16C30.6483 18.1733 32.515 17.68 34.595 17.68C36.3283 17.68 37.8617 17.96 39.195 18.52C40.5283 19.0533 41.6483 19.8133 42.555 20.8C43.4883 21.7867 44.195 22.9333 44.675 24.24C45.155 25.52 45.395 26.92 45.395 28.44C45.395 28.8667 45.3683 29.2933 45.315 29.72C45.2883 30.12 45.2217 30.4667 45.115 30.76H28.755V26.36H41.715L38.875 28.44C39.1417 27.2933 39.1283 26.28 38.835 25.4C38.5417 24.4933 38.0217 23.7867 37.275 23.28C36.555 22.7467 35.6617 22.48 34.595 22.48C33.555 22.48 32.6617 22.7333 31.915 23.24C31.1683 23.7467 30.6083 24.4933 30.235 25.48C29.8617 26.4667 29.715 27.6667 29.795 29.08C29.6883 30.3067 29.835 31.3867 30.235 32.32C30.635 33.2533 31.2483 33.9867 32.075 34.52C32.9017 35.0267 33.9017 35.28 35.075 35.28C36.1417 35.28 37.0483 35.0667 37.795 34.64C38.5683 34.2133 39.1683 33.6267 39.595 32.88L44.395 35.16C43.9683 36.2267 43.2883 37.16 42.355 37.96C41.4483 38.76 40.3683 39.3867 39.115 39.84C37.8617 40.2667 36.4883 40.48 34.995 40.48ZM56.0881 40.48C54.5148 40.48 53.1548 40.2267 52.0081 39.72C50.8615 39.2133 49.9815 38.4933 49.3681 37.56C48.7548 36.6 48.4481 35.4667 48.4481 34.16C48.4481 32.9333 48.7281 31.8533 49.2881 30.92C49.8481 29.96 50.7015 29.16 51.8481 28.52C53.0215 27.88 54.4748 27.4267 56.2081 27.16L62.8881 26.08V30.48L57.2881 31.48C56.4348 31.64 55.7815 31.92 55.3281 32.32C54.8748 32.6933 54.6481 33.24 54.6481 33.96C54.6481 34.6267 54.9015 35.1467 55.4081 35.52C55.9148 35.8933 56.5415 36.08 57.2881 36.08C58.2748 36.08 59.1415 35.8667 59.8881 35.44C60.6348 35.0133 61.2081 34.44 61.6081 33.72C62.0348 32.9733 62.2481 32.16 62.2481 31.28V25.6C62.2481 24.7733 61.9148 24.08 61.2481 23.52C60.6081 22.96 59.7281 22.68 58.6081 22.68C57.5415 22.68 56.5948 22.9733 55.7681 23.56C54.9681 24.1467 54.3815 24.92 54.0081 25.88L49.2081 23.6C49.6348 22.3733 50.3148 21.32 51.2481 20.44C52.1815 19.56 53.3015 18.88 54.6081 18.4C55.9148 17.92 57.3415 17.68 58.8881 17.68C60.7281 17.68 62.3548 18.0133 63.7681 18.68C65.1815 19.3467 66.2748 20.28 67.0481 21.48C67.8481 22.6533 68.2481 24.0267 68.2481 25.6V40H62.6481V36.48L64.0081 36.24C63.3681 37.2 62.6615 38 61.8881 38.64C61.1148 39.2533 60.2481 39.7067 59.2881 40C58.3281 40.32 57.2615 40.48 56.0881 40.48ZM73.0484 40V18.16H78.6484V23.4L78.2484 22.64C78.7284 20.8 79.5151 19.56 80.6084 18.92C81.7284 18.2533 83.0484 17.92 84.5684 17.92H85.8484V23.12H83.9684C82.5018 23.12 81.3151 23.5733 80.4084 24.48C79.5018 25.36 79.0484 26.6133 79.0484 28.24V40H73.0484ZM88.8781 40V18.16H94.4781V22.48L94.1581 21.52C94.6648 20.2133 95.4781 19.2533 96.5981 18.64C97.7448 18 99.0781 17.68 100.598 17.68C102.251 17.68 103.691 18.0267 104.918 18.72C106.171 19.4133 107.145 20.3867 107.838 21.64C108.531 22.8667 108.878 24.3067 108.878 25.96V40H102.878V27.24C102.878 26.3867 102.705 25.6533 102.358 25.04C102.038 24.4267 101.571 23.9467 100.958 23.6C100.371 23.2533 99.6781 23.08 98.8781 23.08C98.1048 23.08 97.4115 23.2533 96.7981 23.6C96.1848 23.9467 95.7048 24.4267 95.3581 25.04C95.0381 25.6533 94.8781 26.3867 94.8781 27.24V40H88.8781Z" fill="white"/>
<path d="M128.56 35.1751C128.335 32.698 128.144 27.2584 128.075 24.8626C128.21 24.3084 128.977 23.9147 129.325 23.7792C134.506 23.7459 145.327 23.6667 147.265 23.6667C149.192 23.6667 149.854 24.7584 149.946 25.323C149.81 26.1563 149.54 28.9042 149.54 33.2501C149.54 38.6772 144.337 47.8334 139.077 47.8334C133.819 47.8334 128.852 38.2709 128.56 35.1751Z" fill="url(#paint0_linear_8425_620)"/>
<path d="M134.867 26.6294C133.092 26.5363 131.328 26.3488 129.575 26.0669C130.542 26.6169 133.852 27.6981 139.371 27.6981C146.273 27.6981 149.112 26.3689 149.112 25.5585C149.112 24.8939 148.471 24.5106 148.144 24.3877L147.254 24.5794C147.323 24.6783 147.358 24.7966 147.354 24.9169C146.431 26.7981 142.017 27.0564 139.36 27.0564C137.254 27.0564 135.485 26.7752 134.856 26.6294H134.867Z" fill="url(#paint1_linear_8425_620)"/>
<path d="M139.327 26.7419C133.629 26.7419 132.369 25.3669 132.446 24.6689H146.185V24.9273C146.275 25.5252 145.025 26.7398 139.327 26.7398" fill="#26203A"/>
<path d="M139.325 26.0313C135.585 26.0313 134.752 25.1313 134.821 24.6792H143.819V24.8375C143.875 25.2334 143.052 26.0313 139.312 26.0313H139.325Z" fill="#4470D1"/>
<path d="M128.108 25.0854C128.108 24.6896 128.706 24.1729 129.01 23.9604L129.887 24.2979L129.517 26.0313C129.053 25.9272 128.597 25.7879 128.154 25.6146C128.117 25.4443 128.102 25.27 128.108 25.0959V25.0854Z" fill="#335CA7"/>
<path d="M129 25.2314C129 25.6606 129.437 25.9981 129.652 26.1106C130.777 26.3023 133.412 26.6856 134.944 26.6627C132.017 26.246 131.229 25.0627 131.217 24.5231L129.764 24.2981C129.517 24.4231 129 24.8043 129 25.2314Z" fill="#496BAC"/>
<path d="M132.581 24.7917L131.14 24.5229C131.173 25.3667 132.492 26.9896 137.41 26.6959C133.729 26.5292 132.66 25.3563 132.571 24.7813L132.581 24.7917Z" fill="#9EA3B6"/>
<path d="M137.221 26.696H135.283C142.919 27.8106 147.998 25.9981 147.242 24.5564L145.948 24.7814C145.958 26.5835 140.137 26.8085 137.221 26.696Z" fill="url(#paint2_linear_8425_620)"/>
<path d="M145.125 24.8959H133.446C132.219 24.8959 129.279 24.5334 127.367 23.1147C124.944 21.323 125.7 16.6626 125.971 15.6605C126.237 14.6667 128.737 6.16675 138.962 6.16675C149.2 6.16675 152.365 15.4001 152.477 16.798V16.8417C152.692 18.6126 152.394 20.4042 151.621 22.0105C150.765 23.9272 146.992 24.748 145.121 24.8938" fill="url(#paint3_linear_8425_620)"/>
<path d="M143.042 10.771H135.283C133.346 10.771 128.99 11.2231 128.99 15.4231C128.99 19.6231 132.548 23.8689 138.844 23.8689C145.135 23.8689 148.798 20.1189 148.798 15.4231C148.798 11.6627 144.969 10.7502 143.044 10.7731" fill="#FFFFBA"/>
<path d="M142.906 10.9876H135.394C133.515 10.9876 129.302 11.4147 129.302 15.4918C129.302 19.5459 132.748 23.6438 138.829 23.6438C144.921 23.6438 148.469 20.0397 148.469 15.4793C148.469 11.8418 144.752 10.9751 142.894 10.9751L142.906 10.9876Z" fill="url(#paint4_linear_8425_620)"/>
<path d="M126.679 14.2084C126.442 14.2417 126.048 15.4126 125.879 15.9855C125.703 16.9745 125.612 17.9768 125.608 18.9813C125.631 19.9959 125.8 20.3105 125.879 20.3334C126.329 20.3334 126.679 18.9813 126.781 17.9917C126.894 17.0126 126.983 14.1646 126.679 14.2084Z" fill="#C9D3E8"/>
<path d="M126.712 14.7252C126.5 14.7585 126.15 15.7398 126.004 16.2127C125.925 16.6856 125.756 17.8565 125.779 18.6898C125.802 19.5231 125.935 19.794 126.004 19.8148C126.41 19.8148 126.712 18.6898 126.792 17.8669C126.894 17.0565 126.973 14.6919 126.712 14.7252Z" fill="#251F38"/>
<path d="M123.233 14.0042C123.233 18.2063 124.529 19.5229 125.181 19.6459C126.477 19.6459 126.206 17.4292 126.037 13.2292C125.869 9.0292 125.329 6.7417 124.969 6.7417C124.608 6.7417 123.246 8.75628 123.246 14.0042H123.233Z" fill="url(#paint5_linear_8425_620)"/>
<path d="M125.475 10.1646C124.327 10.3562 123.504 10.1646 123.415 10.1646C123.279 10.1979 123.335 10.3437 123.369 10.4229C123.481 10.4562 123.798 10.5146 124.327 10.5146C124.992 10.5146 125.408 10.4687 125.475 10.4229C125.521 10.3791 125.498 10.2312 125.475 10.1646Z" fill="#FFFFBA"/>
<path d="M123.829 18.0354C123.975 17.6312 124.121 17.0562 124.121 16.3479C124.121 15.3458 123.594 14.6354 123.244 14.3208C123.264 16.0083 123.514 17.2146 123.829 18.0354Z" fill="url(#paint6_linear_8425_620)"/>
<path d="M151.319 14.2084C151.564 14.2417 151.96 15.4126 152.129 15.9855C152.242 16.573 152.421 17.9792 152.4 18.9813C152.364 19.9959 152.208 20.3105 152.129 20.3334C151.677 20.3334 151.317 18.9813 151.227 17.9917C151.114 17.0126 151.025 14.1646 151.319 14.2084Z" fill="#C9D3E8"/>
<path d="M151.296 14.7252C151.51 14.7585 151.858 15.7398 151.994 16.2127C152.085 16.6856 152.254 17.8565 152.221 18.6898C152.208 19.5231 152.062 19.794 151.996 19.8148C151.6 19.8148 151.296 18.6898 151.206 17.8669C151.117 17.0565 151.037 14.6919 151.296 14.7252Z" fill="#251F38"/>
<path d="M154.765 14.0042C154.765 18.2063 153.469 19.5229 152.827 19.6459C151.531 19.6459 151.792 17.4292 151.973 13.2292C152.14 9.02712 152.681 6.7417 153.04 6.7417C153.402 6.7417 154.765 8.75628 154.765 14.0042Z" fill="url(#paint7_linear_8425_620)"/>
<path d="M152.535 10.1646C153.683 10.3562 154.506 10.1646 154.596 10.1646C154.731 10.1979 154.675 10.3437 154.629 10.4229C154.319 10.4958 154.001 10.5266 153.683 10.5146C153.019 10.5146 152.602 10.4687 152.535 10.4229C152.479 10.3791 152.512 10.2312 152.535 10.1646Z" fill="#FFFFBA"/>
<path d="M154.167 18.0354C153.977 17.4931 153.883 16.9222 153.887 16.3479C153.887 15.3458 154.417 14.6354 154.765 14.3208C154.784 15.5843 154.58 16.8414 154.167 18.0354Z" fill="url(#paint8_linear_8425_620)"/>
<path d="M142.694 11.223H135.589C133.808 11.223 129.81 11.6397 129.81 15.548C129.81 19.4647 133.077 23.4084 138.852 23.4084C144.619 23.4084 147.985 19.9292 147.985 15.548C147.985 12.0563 144.462 11.2126 142.694 11.223Z" fill="url(#paint9_linear_8425_620)"/>
<path d="M147.096 19.1958C144.606 20.2871 141.907 20.8177 139.189 20.75C135.475 20.75 132.737 20.1541 131.06 19.6354C132.512 21.8083 135.171 23.4062 138.852 23.4062C142.883 23.4062 145.733 21.7187 147.096 19.1979" fill="#483D6F"/>
<path d="M133.346 14.5335H131.433C131.549 13.9798 131.854 13.4836 132.296 13.1302C132.738 12.7767 133.288 12.5878 133.854 12.596L133.346 14.5335ZM136.162 12.6085H134.056L133.619 14.5001H136.16L136.162 12.6085ZM131.365 14.748H133.302L133.121 15.5355H131.162L131.365 14.748Z" fill="url(#paint10_linear_8425_620)"/>
<path d="M135.173 18.8356C136.521 18.8356 137.615 17.6856 137.615 16.2689C137.615 14.8502 136.521 13.7002 135.171 13.7002C133.823 13.7002 132.727 14.8502 132.727 16.2689C132.727 17.6856 133.823 18.8356 135.171 18.8356" fill="url(#paint11_linear_8425_620)"/>
<path d="M143.312 18.8356C144.662 18.8356 145.756 17.6856 145.756 16.2689C145.756 14.8502 144.662 13.7002 143.312 13.7002C141.964 13.7002 140.871 14.8502 140.871 16.2689C140.871 17.6856 141.964 18.8356 143.312 18.8356Z" fill="url(#paint12_linear_8425_620)"/>
<path d="M131.804 11.6064C131.242 10.9314 130.564 9.6689 130.273 9.03973L130.689 8.71265C130.733 9.13973 131.635 10.7168 132.096 11.4481C132.029 11.5043 131.883 11.6064 131.804 11.6064ZM145.958 11.5606C146.644 10.8328 147.234 10.0342 147.727 9.16473L147.277 8.82515C147.198 9.24181 146.206 10.6835 145.654 11.3814C145.745 11.458 145.847 11.5186 145.958 11.5606Z" fill="#FFFFBA"/>
<path d="M128.077 26.2563V26.5168C127.964 27.823 127.717 30.5022 127.717 30.7168C127.717 30.9313 128.223 32.3147 128.483 32.9918C128.639 32.5522 128.956 31.2688 128.956 29.6584C128.956 28.048 128.371 26.7293 128.077 26.2563Z" fill="#28233E"/>
<path d="M123.39 36.3479C123.39 41.0437 124.9 42.5187 125.642 42.675C127.794 42.675 128.571 37.3937 128.683 34.7583C128.942 31.9333 129.067 26.2896 127.535 26.2896C125.619 26.2896 123.39 30.4916 123.39 36.3479Z" fill="url(#paint13_linear_8425_620)"/>
<path d="M123.819 37.2146C123.819 38.8584 124.269 39.2855 124.506 39.298C125.069 39.298 125.056 37.8334 124.979 37.1022C124.99 36.0188 124.91 33.8584 124.506 33.8584C124.01 33.8584 123.819 35.1667 123.819 37.2146Z" fill="#829FD1"/>
<path d="M125.892 37.7313C124.404 37.7313 123.594 37.8438 123.302 37.9L123.233 37.5625C123.548 37.5063 124.381 37.3938 125.892 37.3938C127.198 37.3938 127.919 37.575 128.346 37.675L128.548 37.7313L128.458 38.0688L128.256 38.0125C127.486 37.8061 126.689 37.7114 125.892 37.7313Z" fill="#FFFFBA"/>
<path d="M154.358 36.3479C154.358 41.0437 152.862 42.5187 152.108 42.675C149.967 42.675 149.179 37.3937 149.067 34.7583C148.819 31.9333 148.696 26.2896 150.227 26.2896C152.142 26.2896 154.358 30.4916 154.358 36.3479Z" fill="url(#paint14_linear_8425_620)"/>
<path d="M153.944 37.2146C153.944 38.8584 153.483 39.2855 153.246 39.298C152.694 39.298 152.704 37.8334 152.773 37.1022C152.773 36.0188 152.852 33.8584 153.246 33.8584C153.752 33.8584 153.944 35.1667 153.944 37.2146Z" fill="#829FD1"/>
<path d="M151.858 37.7313C153.356 37.7313 154.167 37.8438 154.448 37.9L154.527 37.5625C154.212 37.5063 153.367 37.3938 151.858 37.3938C150.552 37.3938 149.842 37.575 149.404 37.675L149.212 37.7313L149.289 38.0688L149.494 38.0125C149.944 37.9 150.598 37.7313 151.858 37.7313Z" fill="#FFFFBA"/>
<path d="M135.012 30.3438L133.471 34.1501H134.371L135.902 30.5126C135.921 30.4757 135.95 30.4447 135.986 30.423C136.022 30.4014 136.062 30.3899 136.104 30.3897C136.146 30.39 136.187 30.4019 136.223 30.4239C136.258 30.446 136.287 30.4774 136.306 30.5147L137.748 34.1501H138.673L137.173 30.3563C137.085 30.1428 136.935 29.9604 136.743 29.832C136.551 29.7037 136.325 29.6353 136.094 29.6355C135.863 29.6306 135.636 29.6957 135.442 29.8221C135.249 29.9485 135.099 30.1303 135.01 30.3438M139.277 29.6355H140.202V34.1501H139.277V29.6355ZM141.148 34.173V33.3293H143.85C144.165 33.3293 144.425 33.0793 144.425 32.7876C144.42 32.6432 144.357 32.5067 144.252 32.4077C144.147 32.3087 144.007 32.255 143.862 32.2584H142.398C141.654 32.2584 141.046 31.6855 141.046 30.9751C141.046 30.2647 141.654 29.6918 142.398 29.6918H144.865V30.4918H142.442C142.137 30.4918 141.879 30.7272 141.879 31.0209C141.879 31.3022 142.137 31.5376 142.442 31.5376H143.827C144.604 31.5376 145.223 32.1355 145.223 32.8563C145.218 33.0346 145.178 33.2101 145.105 33.3728C145.032 33.5355 144.928 33.6822 144.798 33.8046C144.669 33.9269 144.516 34.0224 144.349 34.0856C144.183 34.1489 144.005 34.1786 143.827 34.173H141.148Z" fill="url(#paint15_linear_8425_620)"/>
<defs>
<linearGradient id="paint0_linear_8425_620" x1="149.946" y1="26.6855" x2="131.217" y2="41.223" gradientUnits="userSpaceOnUse">
<stop stop-color="#89B9ED"/>
<stop offset="0.89" stop-color="#1B5CCF"/>
<stop offset="1" stop-color="#6095D0"/>
</linearGradient>
<linearGradient id="paint1_linear_8425_620" x1="132.525" y1="26.9544" x2="148.167" y2="26.9544" gradientUnits="userSpaceOnUse">
<stop stop-color="#6192E0"/>
<stop offset="1" stop-color="#97C1EF"/>
</linearGradient>
<linearGradient id="paint2_linear_8425_620" x1="136.377" y1="27.1918" x2="146.927" y2="26.1106" gradientUnits="userSpaceOnUse">
<stop stop-color="#B9C5DE"/>
<stop offset="1" stop-color="#667AB0"/>
</linearGradient>
<linearGradient id="paint3_linear_8425_620" x1="139.09" y1="6.16675" x2="139.09" y2="24.8938" gradientUnits="userSpaceOnUse">
<stop stop-color="#72CDFF"/>
<stop offset="0.84" stop-color="#3856DC"/>
<stop offset="0.98" stop-color="#4A6DD8"/>
</linearGradient>
<linearGradient id="paint4_linear_8425_620" x1="138.896" y1="10.9751" x2="138.896" y2="23.6438" gradientUnits="userSpaceOnUse">
<stop stop-color="#8091BF"/>
<stop offset="1" stop-color="#D2DBED"/>
</linearGradient>
<linearGradient id="paint5_linear_8425_620" x1="124.708" y1="6.7417" x2="124.708" y2="19.6459" gradientUnits="userSpaceOnUse">
<stop stop-color="#72CDFF"/>
<stop offset="1" stop-color="#252B8C"/>
</linearGradient>
<linearGradient id="paint6_linear_8425_620" x1="123.683" y1="14.3208" x2="123.683" y2="18.0354" gradientUnits="userSpaceOnUse">
<stop stop-color="#32469F"/>
<stop offset="1" stop-color="#5EA3E0"/>
</linearGradient>
<linearGradient id="paint7_linear_8425_620" x1="153.287" y1="6.7417" x2="153.287" y2="19.6459" gradientUnits="userSpaceOnUse">
<stop stop-color="#72CDFF"/>
<stop offset="1" stop-color="#252B8C"/>
</linearGradient>
<linearGradient id="paint8_linear_8425_620" x1="154.327" y1="14.3208" x2="154.327" y2="18.0354" gradientUnits="userSpaceOnUse">
<stop stop-color="#32469F"/>
<stop offset="1" stop-color="#5EA3E0"/>
</linearGradient>
<linearGradient id="paint9_linear_8425_620" x1="129.81" y1="15.1751" x2="147.66" y2="15.1751" gradientUnits="userSpaceOnUse">
<stop stop-color="#27213B"/>
<stop offset="0.61" stop-color="#4A3F73"/>
<stop offset="1" stop-color="#28223C"/>
</linearGradient>
<linearGradient id="paint10_linear_8425_620" x1="133.662" y1="12.596" x2="133.312" y2="16.1897" gradientUnits="userSpaceOnUse">
<stop stop-color="#9490A1"/>
<stop offset="1" stop-color="#9490A1" stop-opacity="0"/>
</linearGradient>
<linearGradient id="paint11_linear_8425_620" x1="135.171" y1="13.7002" x2="135.171" y2="18.8356" gradientUnits="userSpaceOnUse">
<stop stop-color="#FFF962"/>
<stop offset="1" stop-color="#FCBE43"/>
</linearGradient>
<linearGradient id="paint12_linear_8425_620" x1="143.312" y1="13.7002" x2="143.312" y2="18.8356" gradientUnits="userSpaceOnUse">
<stop stop-color="#FFF962"/>
<stop offset="1" stop-color="#FCBE43"/>
</linearGradient>
<linearGradient id="paint13_linear_8425_620" x1="126.115" y1="26.2896" x2="126.115" y2="42.675" gradientUnits="userSpaceOnUse">
<stop stop-color="#87B7FD"/>
<stop offset="1" stop-color="#325CA9"/>
</linearGradient>
<linearGradient id="paint14_linear_8425_620" x1="151.633" y1="26.2896" x2="151.633" y2="42.675" gradientUnits="userSpaceOnUse">
<stop stop-color="#87B7FD"/>
<stop offset="1" stop-color="#325CA9"/>
</linearGradient>
<linearGradient id="paint15_linear_8425_620" x1="134.179" y1="33.4418" x2="144.358" y2="33.4418" gradientUnits="userSpaceOnUse">
<stop stop-color="#C6AD40"/>
<stop offset="1" stop-color="#FFE45B"/>
</linearGradient>
</defs>
</svg>
