<svg width="320" height="226" viewBox="0 0 320 226" fill="none" xmlns="http://www.w3.org/2000/svg">
<path d="M186.4 39.8411C192.397 39.8411 197.259 35.1201 197.259 29.2963C197.259 23.4725 192.397 18.7515 186.4 18.7515C180.402 18.7515 175.54 23.4725 175.54 29.2963C175.54 35.1201 180.402 39.8411 186.4 39.8411Z" fill="#F2F2F2"/>
<path d="M270.638 196.339C286.779 184.4 294.488 164.34 289.662 145.203C289.542 144.727 289.415 144.253 289.282 143.779C286.083 132.42 278.166 121.624 266.629 117.994C256.942 114.946 246.367 117.29 236.261 116.078C216.422 113.699 201.04 98.1114 190.218 81.7909C179.395 65.4704 171.078 47.2019 156.697 33.7188C132.993 11.4942 94.3247 6.70918 64.9346 21.1758C35.5445 35.6424 16.8233 67.7377 17.6217 99.7248C18.4202 131.712 37.9756 162.294 66.3749 178.519C76.8077 184.48 88.8741 188.703 100.883 187.225C111.302 185.943 120.77 180.506 131.141 178.892C147.446 176.355 163.647 183.513 177.75 191.855C191.852 200.197 205.474 210.085 221.5 213.952C237.061 217.707 256.34 206.914 270.638 196.339Z" fill="#F2F2F2"/>
<path d="M247.447 21.8473C247.094 21.6183 246.736 21.4011 246.382 21.1799C236.154 14.8278 225.191 9.66745 213.72 5.80542L211.06 41.4357H194.198V0.604237C193.137 0.390977 192.067 0.189565 190.997 0V41.4357H170.959C159.928 41.4357 149.349 37.1804 141.548 29.606C133.748 22.0316 129.366 11.7585 129.366 1.0466C128.292 1.27171 127.227 1.51258 126.161 1.76928V41.4357H109.84L107.307 7.46017C95.5182 11.8503 84.3268 17.6235 73.9815 24.6513C73.8025 24.7698 73.6236 24.8922 73.4487 25.0107C72.5499 25.6228 71.6633 26.2468 70.7808 26.8787V162.808H118.881L118.031 151.375L113.354 88.6018H207.542L202.865 151.375L202.015 162.808H249.583V23.2217C248.875 22.7557 248.163 22.2976 247.447 21.8473ZM126.161 78.2349H112.581L110.072 44.5477H126.161V78.2349ZM190.997 78.2349H168.19V77.5675C168.19 77.2467 168.124 76.929 167.998 76.6326C167.871 76.3362 167.686 76.067 167.452 75.8403C167.218 75.6136 166.941 75.4339 166.635 75.3115C166.33 75.1891 166.003 75.1263 165.672 75.1269H155.757C155.427 75.1267 155.1 75.1898 154.795 75.3124C154.49 75.435 154.213 75.6148 153.979 75.8415C153.746 76.0681 153.561 76.3372 153.434 76.6334C153.308 76.9296 153.243 77.247 153.243 77.5675V78.2349H129.366V44.5477H190.997V78.2349ZM194.198 78.2349V44.5477H210.828L208.319 78.2349H194.198Z" fill="#3F3D56"/>
<path d="M0 171.513C3.53311 175.578 7.35457 179.398 11.4364 182.946L308.564 183.341C312.645 179.793 316.467 175.973 320 171.908L0 171.513Z" fill="#3F3D56"/>
<path d="M201.491 134.904V168.75C201.492 169.182 201.668 169.595 201.982 169.9C202.296 170.205 202.722 170.377 203.167 170.377H254.819C255.264 170.377 255.689 170.205 256.004 169.9C256.318 169.595 256.494 169.182 256.495 168.75V134.904C256.493 134.473 256.317 134.06 256.003 133.755C255.689 133.45 255.263 133.279 254.819 133.279H203.167C202.723 133.279 202.297 133.45 201.983 133.755C201.669 134.06 201.492 134.473 201.491 134.904Z" fill="#3F3D56"/>
<path d="M202.703 135.325V168.333C202.703 168.563 202.798 168.784 202.966 168.947C203.133 169.11 203.361 169.202 203.598 169.202H254.389C254.626 169.202 254.854 169.11 255.022 168.947C255.19 168.784 255.284 168.563 255.284 168.333V135.325C255.284 135.094 255.19 134.873 255.022 134.709C254.854 134.546 254.627 134.454 254.389 134.453H203.598C203.361 134.454 203.133 134.546 202.965 134.709C202.797 134.873 202.703 135.094 202.703 135.325Z" fill="#6C63FF"/>
<path d="M200.411 175.351C200.506 175.466 200.626 175.559 200.763 175.623C200.9 175.687 201.05 175.719 201.201 175.719H256.509C256.661 175.718 256.81 175.685 256.947 175.622C257.083 175.559 257.203 175.467 257.299 175.353C257.394 175.239 257.462 175.105 257.497 174.963C257.533 174.82 257.535 174.671 257.504 174.528L256.646 170.568C256.61 170.406 256.534 170.256 256.423 170.13C256.312 170.005 256.171 169.908 256.012 169.85C255.897 169.806 255.775 169.783 255.651 169.783H202.057C201.933 169.783 201.811 169.806 201.695 169.85C201.537 169.908 201.395 170.005 201.285 170.13C201.174 170.256 201.097 170.406 201.062 170.568L200.203 174.528C200.173 174.671 200.176 174.82 200.211 174.962C200.247 175.105 200.316 175.238 200.411 175.351Z" fill="#2F2E41"/>
<path d="M253.754 171.489H255.06C255.17 171.489 255.258 171.403 255.258 171.296V170.689C255.258 170.583 255.17 170.497 255.06 170.497H253.754C253.644 170.497 253.555 170.583 253.555 170.689V171.296C253.555 171.403 253.644 171.489 253.754 171.489Z" fill="#3F3D56"/>
<path d="M250.346 171.489H251.652C251.762 171.489 251.851 171.403 251.851 171.296V170.689C251.851 170.583 251.762 170.497 251.652 170.497H250.346C250.236 170.497 250.147 170.583 250.147 170.689V171.296C250.147 171.403 250.236 171.489 250.346 171.489Z" fill="#3F3D56"/>
<path d="M246.94 171.489H248.246C248.356 171.489 248.444 171.403 248.444 171.296V170.689C248.444 170.583 248.356 170.497 248.246 170.497H246.94C246.83 170.497 246.741 170.583 246.741 170.689V171.296C246.741 171.403 246.83 171.489 246.94 171.489Z" fill="#3F3D56"/>
<path d="M243.533 171.489H244.839C244.949 171.489 245.038 171.403 245.038 171.296V170.689C245.038 170.583 244.949 170.497 244.839 170.497H243.533C243.423 170.497 243.334 170.583 243.334 170.689V171.296C243.334 171.403 243.423 171.489 243.533 171.489Z" fill="#3F3D56"/>
<path d="M240.126 171.489H241.432C241.542 171.489 241.631 171.403 241.631 171.296V170.689C241.631 170.583 241.542 170.497 241.432 170.497H240.126C240.016 170.497 239.927 170.583 239.927 170.689V171.296C239.927 171.403 240.016 171.489 240.126 171.489Z" fill="#3F3D56"/>
<path d="M236.719 171.489H238.025C238.135 171.489 238.224 171.403 238.224 171.296V170.689C238.224 170.583 238.135 170.497 238.025 170.497H236.719C236.609 170.497 236.52 170.583 236.52 170.689V171.296C236.52 171.403 236.609 171.489 236.719 171.489Z" fill="#3F3D56"/>
<path d="M233.312 171.489H234.618C234.728 171.489 234.817 171.403 234.817 171.296V170.689C234.817 170.583 234.728 170.497 234.618 170.497H233.312C233.202 170.497 233.113 170.583 233.113 170.689V171.296C233.113 171.403 233.202 171.489 233.312 171.489Z" fill="#3F3D56"/>
<path d="M229.905 171.489H231.212C231.321 171.489 231.41 171.403 231.41 171.296V170.689C231.41 170.583 231.321 170.497 231.212 170.497H229.905C229.796 170.497 229.707 170.583 229.707 170.689V171.296C229.707 171.403 229.796 171.489 229.905 171.489Z" fill="#3F3D56"/>
<path d="M226.498 171.489H227.804C227.914 171.489 228.003 171.403 228.003 171.296V170.689C228.003 170.583 227.914 170.497 227.804 170.497H226.498C226.388 170.497 226.299 170.583 226.299 170.689V171.296C226.299 171.403 226.388 171.489 226.498 171.489Z" fill="#3F3D56"/>
<path d="M223.091 171.489H224.397C224.507 171.489 224.596 171.403 224.596 171.296V170.689C224.596 170.583 224.507 170.497 224.397 170.497H223.091C222.981 170.497 222.892 170.583 222.892 170.689V171.296C222.892 171.403 222.981 171.489 223.091 171.489Z" fill="#3F3D56"/>
<path d="M219.685 171.489H220.991C221.101 171.489 221.189 171.403 221.189 171.296V170.689C221.189 170.583 221.101 170.497 220.991 170.497H219.685C219.575 170.497 219.486 170.583 219.486 170.689V171.296C219.486 171.403 219.575 171.489 219.685 171.489Z" fill="#3F3D56"/>
<path d="M216.277 171.489H217.583C217.693 171.489 217.782 171.403 217.782 171.296V170.689C217.782 170.583 217.693 170.497 217.583 170.497H216.277C216.167 170.497 216.079 170.583 216.079 170.689V171.296C216.079 171.403 216.167 171.489 216.277 171.489Z" fill="#3F3D56"/>
<path d="M212.871 171.489H214.177C214.287 171.489 214.375 171.403 214.375 171.296V170.689C214.375 170.583 214.287 170.497 214.177 170.497H212.871C212.761 170.497 212.672 170.583 212.672 170.689V171.296C212.672 171.403 212.761 171.489 212.871 171.489Z" fill="#3F3D56"/>
<path d="M209.463 171.489H210.769C210.879 171.489 210.968 171.403 210.968 171.296V170.689C210.968 170.583 210.879 170.497 210.769 170.497H209.463C209.353 170.497 209.265 170.583 209.265 170.689V171.296C209.265 171.403 209.353 171.489 209.463 171.489Z" fill="#3F3D56"/>
<path d="M206.056 171.489H207.363C207.472 171.489 207.561 171.403 207.561 171.296V170.689C207.561 170.583 207.472 170.497 207.363 170.497H206.056C205.946 170.497 205.858 170.583 205.858 170.689V171.296C205.858 171.403 205.946 171.489 206.056 171.489Z" fill="#3F3D56"/>
<path d="M202.649 171.489H203.956C204.065 171.489 204.154 171.403 204.154 171.296V170.689C204.154 170.583 204.065 170.497 203.956 170.497H202.649C202.54 170.497 202.451 170.583 202.451 170.689V171.296C202.451 171.403 202.54 171.489 202.649 171.489Z" fill="#3F3D56"/>
<path d="M253.794 173.143H255.1C255.21 173.143 255.299 173.057 255.299 172.95V172.343C255.299 172.237 255.21 172.151 255.1 172.151H253.794C253.684 172.151 253.595 172.237 253.595 172.343V172.95C253.595 173.057 253.684 173.143 253.794 173.143Z" fill="#3F3D56"/>
<path d="M250.387 173.143H251.694C251.803 173.143 251.892 173.057 251.892 172.95V172.343C251.892 172.237 251.803 172.151 251.694 172.151H250.387C250.278 172.151 250.189 172.237 250.189 172.343V172.95C250.189 173.057 250.278 173.143 250.387 173.143Z" fill="#3F3D56"/>
<path d="M246.98 173.143H248.286C248.396 173.143 248.485 173.057 248.485 172.95V172.343C248.485 172.237 248.396 172.151 248.286 172.151H246.98C246.87 172.151 246.781 172.237 246.781 172.343V172.95C246.781 173.057 246.87 173.143 246.98 173.143Z" fill="#3F3D56"/>
<path d="M243.573 173.143H244.879C244.989 173.143 245.078 173.057 245.078 172.95V172.343C245.078 172.237 244.989 172.151 244.879 172.151H243.573C243.463 172.151 243.374 172.237 243.374 172.343V172.95C243.374 173.057 243.463 173.143 243.573 173.143Z" fill="#3F3D56"/>
<path d="M240.166 173.143H241.473C241.582 173.143 241.671 173.057 241.671 172.95V172.343C241.671 172.237 241.582 172.151 241.473 172.151H240.166C240.057 172.151 239.968 172.237 239.968 172.343V172.95C239.968 173.057 240.057 173.143 240.166 173.143Z" fill="#3F3D56"/>
<path d="M236.759 173.143H238.065C238.175 173.143 238.264 173.057 238.264 172.95V172.343C238.264 172.237 238.175 172.151 238.065 172.151H236.759C236.649 172.151 236.56 172.237 236.56 172.343V172.95C236.56 173.057 236.649 173.143 236.759 173.143Z" fill="#3F3D56"/>
<path d="M233.352 173.143H234.658C234.768 173.143 234.857 173.057 234.857 172.95V172.343C234.857 172.237 234.768 172.151 234.658 172.151H233.352C233.242 172.151 233.153 172.237 233.153 172.343V172.95C233.153 173.057 233.242 173.143 233.352 173.143Z" fill="#3F3D56"/>
<path d="M229.945 173.143H231.252C231.361 173.143 231.45 173.057 231.45 172.95V172.343C231.45 172.237 231.361 172.151 231.252 172.151H229.945C229.836 172.151 229.747 172.237 229.747 172.343V172.95C229.747 173.057 229.836 173.143 229.945 173.143Z" fill="#3F3D56"/>
<path d="M226.538 173.143H227.844C227.954 173.143 228.043 173.057 228.043 172.95V172.343C228.043 172.237 227.954 172.151 227.844 172.151H226.538C226.428 172.151 226.339 172.237 226.339 172.343V172.95C226.339 173.057 226.428 173.143 226.538 173.143Z" fill="#3F3D56"/>
<path d="M223.132 173.143H224.438C224.548 173.143 224.636 173.057 224.636 172.95V172.343C224.636 172.237 224.548 172.151 224.438 172.151H223.132C223.022 172.151 222.933 172.237 222.933 172.343V172.95C222.933 173.057 223.022 173.143 223.132 173.143Z" fill="#3F3D56"/>
<path d="M219.725 173.143H221.031C221.141 173.143 221.229 173.057 221.229 172.95V172.343C221.229 172.237 221.141 172.151 221.031 172.151H219.725C219.615 172.151 219.526 172.237 219.526 172.343V172.95C219.526 173.057 219.615 173.143 219.725 173.143Z" fill="#3F3D56"/>
<path d="M216.318 173.143H217.624C217.734 173.143 217.823 173.057 217.823 172.95V172.343C217.823 172.237 217.734 172.151 217.624 172.151H216.318C216.208 172.151 216.119 172.237 216.119 172.343V172.95C216.119 173.057 216.208 173.143 216.318 173.143Z" fill="#3F3D56"/>
<path d="M212.911 173.143H214.217C214.327 173.143 214.416 173.057 214.416 172.95V172.343C214.416 172.237 214.327 172.151 214.217 172.151H212.911C212.801 172.151 212.712 172.237 212.712 172.343V172.95C212.712 173.057 212.801 173.143 212.911 173.143Z" fill="#3F3D56"/>
<path d="M209.504 173.143H210.81C210.92 173.143 211.009 173.057 211.009 172.95V172.343C211.009 172.237 210.92 172.151 210.81 172.151H209.504C209.394 172.151 209.305 172.237 209.305 172.343V172.95C209.305 173.057 209.394 173.143 209.504 173.143Z" fill="#3F3D56"/>
<path d="M206.097 173.143H207.403C207.513 173.143 207.602 173.057 207.602 172.95V172.343C207.602 172.237 207.513 172.151 207.403 172.151H206.097C205.987 172.151 205.898 172.237 205.898 172.343V172.95C205.898 173.057 205.987 173.143 206.097 173.143Z" fill="#3F3D56"/>
<path d="M202.69 173.143H203.996C204.106 173.143 204.195 173.057 204.195 172.95V172.343C204.195 172.237 204.106 172.151 203.996 172.151H202.69C202.58 172.151 202.491 172.237 202.491 172.343V172.95C202.491 173.057 202.58 173.143 202.69 173.143Z" fill="#3F3D56"/>
<path d="M225.516 175.128H238.747C238.856 175.128 238.945 175.042 238.945 174.936V174.329C238.945 174.222 238.856 174.136 238.747 174.136H225.516C225.407 174.136 225.318 174.222 225.318 174.329V174.936C225.318 175.042 225.407 175.128 225.516 175.128Z" fill="#3F3D56"/>
<path d="M211.499 141.675H210.342C209.992 141.675 209.708 141.951 209.708 142.291C209.708 142.632 209.992 142.908 210.342 142.908H211.499C211.85 142.908 212.134 142.632 212.134 142.291C212.134 141.951 211.85 141.675 211.499 141.675Z" fill="white"/>
<path d="M224.726 141.675H223.57C223.219 141.675 222.935 141.951 222.935 142.291C222.935 142.632 223.219 142.908 223.57 142.908H224.726C225.077 142.908 225.361 142.632 225.361 142.291C225.361 141.951 225.077 141.675 224.726 141.675Z" fill="white"/>
<path d="M228.474 141.675H227.317C226.966 141.675 226.682 141.951 226.682 142.291C226.682 142.632 226.966 142.908 227.317 142.908H228.474C228.824 142.908 229.108 142.632 229.108 142.291C229.108 141.951 228.824 141.675 228.474 141.675Z" fill="white"/>
<path d="M221.128 141.572H213.94C213.59 141.572 213.305 141.848 213.305 142.189C213.305 142.529 213.59 142.805 213.94 142.805H221.128C221.479 142.805 221.763 142.529 221.763 142.189C221.763 141.848 221.479 141.572 221.128 141.572Z" fill="white"/>
<path d="M238.764 141.572H231.576C231.226 141.572 230.942 141.848 230.942 142.189C230.942 142.529 231.226 142.805 231.576 142.805H238.764C239.115 142.805 239.399 142.529 239.399 142.189C239.399 141.848 239.115 141.572 238.764 141.572Z" fill="white"/>
<path d="M215.026 144.458H213.87C213.519 144.458 213.235 144.734 213.235 145.074C213.235 145.415 213.519 145.691 213.87 145.691H215.026C215.377 145.691 215.661 145.415 215.661 145.074C215.661 144.734 215.377 144.458 215.026 144.458Z" fill="white"/>
<path d="M228.254 144.458H227.097C226.747 144.458 226.462 144.734 226.462 145.074C226.462 145.415 226.747 145.691 227.097 145.691H228.254C228.604 145.691 228.889 145.415 228.889 145.074C228.889 144.734 228.604 144.458 228.254 144.458Z" fill="white"/>
<path d="M232.001 144.458H230.844C230.494 144.458 230.209 144.734 230.209 145.074C230.209 145.415 230.494 145.691 230.844 145.691H232.001C232.351 145.691 232.636 145.415 232.636 145.074C232.636 144.734 232.351 144.458 232.001 144.458Z" fill="white"/>
<path d="M224.656 144.355H217.468C217.117 144.355 216.833 144.631 216.833 144.971C216.833 145.312 217.117 145.588 217.468 145.588H224.656C225.006 145.588 225.291 145.312 225.291 144.971C225.291 144.631 225.006 144.355 224.656 144.355Z" fill="white"/>
<path d="M242.292 144.355H235.104C234.753 144.355 234.469 144.631 234.469 144.971C234.469 145.312 234.753 145.588 235.104 145.588H242.292C242.642 145.588 242.926 145.312 242.926 144.971C242.926 144.631 242.642 144.355 242.292 144.355Z" fill="white"/>
<path d="M218.554 147.241H217.397C217.047 147.241 216.762 147.517 216.762 147.857C216.762 148.198 217.047 148.474 217.397 148.474H218.554C218.904 148.474 219.189 148.198 219.189 147.857C219.189 147.517 218.904 147.241 218.554 147.241Z" fill="white"/>
<path d="M231.78 147.241H230.624C230.273 147.241 229.989 147.517 229.989 147.857C229.989 148.198 230.273 148.474 230.624 148.474H231.78C232.131 148.474 232.415 148.198 232.415 147.857C232.415 147.517 232.131 147.241 231.78 147.241Z" fill="white"/>
<path d="M235.528 147.241H234.371C234.021 147.241 233.736 147.517 233.736 147.857C233.736 148.198 234.021 148.474 234.371 148.474H235.528C235.879 148.474 236.163 148.198 236.163 147.857C236.163 147.517 235.879 147.241 235.528 147.241Z" fill="white"/>
<path d="M228.183 147.138H220.994C220.644 147.138 220.36 147.414 220.36 147.754C220.36 148.095 220.644 148.371 220.994 148.371H228.183C228.533 148.371 228.817 148.095 228.817 147.754C228.817 147.414 228.533 147.138 228.183 147.138Z" fill="white"/>
<path d="M245.819 147.138H238.631C238.28 147.138 237.996 147.414 237.996 147.754C237.996 148.095 238.28 148.371 238.631 148.371H245.819C246.169 148.371 246.454 148.095 246.454 147.754C246.454 147.414 246.169 147.138 245.819 147.138Z" fill="white"/>
<path d="M222.08 150.024H220.924C220.573 150.024 220.289 150.3 220.289 150.64C220.289 150.981 220.573 151.257 220.924 151.257H222.08C222.431 151.257 222.715 150.981 222.715 150.64C222.715 150.3 222.431 150.024 222.08 150.024Z" fill="white"/>
<path d="M235.308 150.024H234.151C233.8 150.024 233.516 150.3 233.516 150.64C233.516 150.981 233.8 151.257 234.151 151.257H235.308C235.658 151.257 235.942 150.981 235.942 150.64C235.942 150.3 235.658 150.024 235.308 150.024Z" fill="white"/>
<path d="M239.056 150.024H237.899C237.548 150.024 237.264 150.3 237.264 150.64C237.264 150.981 237.548 151.257 237.899 151.257H239.056C239.406 151.257 239.69 150.981 239.69 150.64C239.69 150.3 239.406 150.024 239.056 150.024Z" fill="white"/>
<path d="M231.71 149.921H224.522C224.171 149.921 223.887 150.197 223.887 150.537C223.887 150.878 224.171 151.154 224.522 151.154H231.71C232.06 151.154 232.344 150.878 232.344 150.537C232.344 150.197 232.06 149.921 231.71 149.921Z" fill="white"/>
<path d="M224.726 161.09H223.57C223.219 161.09 222.935 161.366 222.935 161.706C222.935 162.047 223.219 162.323 223.57 162.323H224.726C225.077 162.323 225.361 162.047 225.361 161.706C225.361 161.366 225.077 161.09 224.726 161.09Z" fill="white"/>
<path d="M228.474 161.09H227.317C226.966 161.09 226.682 161.366 226.682 161.706C226.682 162.047 226.966 162.323 227.317 162.323H228.474C228.824 162.323 229.108 162.047 229.108 161.706C229.108 161.366 228.824 161.09 228.474 161.09Z" fill="white"/>
<path d="M238.764 161.192H231.576C231.226 161.192 230.942 161.468 230.942 161.809C230.942 162.149 231.226 162.425 231.576 162.425H238.764C239.115 162.425 239.399 162.149 239.399 161.809C239.399 161.468 239.115 161.192 238.764 161.192Z" fill="white"/>
<path d="M211.499 161.09H210.342C209.992 161.09 209.708 161.366 209.708 161.706C209.708 162.047 209.992 162.323 210.342 162.323H211.499C211.85 162.323 212.134 162.047 212.134 161.706C212.134 161.366 211.85 161.09 211.499 161.09Z" fill="white"/>
<path d="M221.128 161.192H213.94C213.59 161.192 213.305 161.468 213.305 161.809C213.305 162.149 213.59 162.425 213.94 162.425H221.128C221.479 162.425 221.763 162.149 221.763 161.809C221.763 161.468 221.479 161.192 221.128 161.192Z" fill="white"/>
<path d="M215.026 158.307H213.87C213.519 158.307 213.235 158.583 213.235 158.923C213.235 159.264 213.519 159.54 213.87 159.54H215.026C215.377 159.54 215.661 159.264 215.661 158.923C215.661 158.583 215.377 158.307 215.026 158.307Z" fill="white"/>
<path d="M228.254 158.307H227.097C226.747 158.307 226.462 158.583 226.462 158.923C226.462 159.264 226.747 159.54 227.097 159.54H228.254C228.604 159.54 228.889 159.264 228.889 158.923C228.889 158.583 228.604 158.307 228.254 158.307Z" fill="white"/>
<path d="M232.001 158.307H230.844C230.494 158.307 230.209 158.583 230.209 158.923C230.209 159.264 230.494 159.54 230.844 159.54H232.001C232.351 159.54 232.636 159.264 232.636 158.923C232.636 158.583 232.351 158.307 232.001 158.307Z" fill="white"/>
<path d="M224.656 158.41H217.468C217.117 158.41 216.833 158.686 216.833 159.026C216.833 159.367 217.117 159.643 217.468 159.643H224.656C225.006 159.643 225.291 159.367 225.291 159.026C225.291 158.686 225.006 158.41 224.656 158.41Z" fill="white"/>
<path d="M218.554 155.524H217.397C217.047 155.524 216.762 155.8 216.762 156.14C216.762 156.481 217.047 156.757 217.397 156.757H218.554C218.904 156.757 219.189 156.481 219.189 156.14C219.189 155.8 218.904 155.524 218.554 155.524Z" fill="white"/>
<path d="M231.78 155.524H230.624C230.273 155.524 229.989 155.8 229.989 156.14C229.989 156.481 230.273 156.757 230.624 156.757H231.78C232.131 156.757 232.415 156.481 232.415 156.14C232.415 155.8 232.131 155.524 231.78 155.524Z" fill="white"/>
<path d="M235.528 155.524H234.371C234.021 155.524 233.736 155.8 233.736 156.14C233.736 156.481 234.021 156.757 234.371 156.757H235.528C235.879 156.757 236.163 156.481 236.163 156.14C236.163 155.8 235.879 155.524 235.528 155.524Z" fill="white"/>
<path d="M228.183 155.626H220.994C220.644 155.626 220.36 155.902 220.36 156.243C220.36 156.583 220.644 156.859 220.994 156.859H228.183C228.533 156.859 228.817 156.583 228.817 156.243C228.817 155.902 228.533 155.626 228.183 155.626Z" fill="white"/>
<path d="M222.08 152.741H220.924C220.573 152.741 220.289 153.017 220.289 153.357C220.289 153.698 220.573 153.974 220.924 153.974H222.08C222.431 153.974 222.715 153.698 222.715 153.357C222.715 153.017 222.431 152.741 222.08 152.741Z" fill="white"/>
<path d="M235.308 152.741H234.151C233.8 152.741 233.516 153.017 233.516 153.357C233.516 153.698 233.8 153.974 234.151 153.974H235.308C235.658 153.974 235.942 153.698 235.942 153.357C235.942 153.017 235.658 152.741 235.308 152.741Z" fill="white"/>
<path d="M239.056 152.741H237.899C237.548 152.741 237.264 153.017 237.264 153.357C237.264 153.698 237.548 153.974 237.899 153.974H239.056C239.406 153.974 239.69 153.698 239.69 153.357C239.69 153.017 239.406 152.741 239.056 152.741Z" fill="white"/>
<path d="M231.71 152.844H224.522C224.171 152.844 223.887 153.12 223.887 153.46C223.887 153.801 224.171 154.077 224.522 154.077H231.71C232.06 154.077 232.344 153.801 232.344 153.46C232.344 153.12 232.06 152.844 231.71 152.844Z" fill="white"/>
<path d="M205.35 193.704L199.921 185.37L216.962 172.179L223.996 164.612C224.91 163.628 226.074 162.896 227.371 162.486C228.668 162.076 230.053 162.004 231.387 162.277C232.722 162.55 233.959 163.158 234.976 164.041C235.993 164.924 236.753 166.051 237.181 167.308C237.815 169.172 237.679 171.201 236.801 172.969C235.923 174.737 234.372 176.104 232.475 176.783L221.353 180.762L205.35 193.704Z" fill="#FFB6B6"/>
<path d="M77.9602 133.28V173.784H107.182V133.28C107.182 132.989 107.086 132.705 106.909 132.47C106.731 132.236 106.48 132.063 106.193 131.977C106.058 131.934 105.917 131.912 105.774 131.914H79.3715C79.1864 131.913 79.003 131.948 78.8319 132.017C78.6608 132.085 78.5053 132.186 78.3742 132.313C78.2431 132.44 78.1391 132.59 78.0681 132.756C77.997 132.922 77.9604 133.1 77.9602 133.28ZM89.3641 147.197C89.3717 146.399 89.7037 145.636 90.2879 145.074C90.8721 144.511 91.6611 144.196 92.4835 144.196C93.3058 144.196 94.0949 144.511 94.6791 145.074C95.2632 145.636 95.5952 146.399 95.6029 147.197V151.897C95.5987 152.698 95.2682 153.464 94.6836 154.029C94.0991 154.594 93.308 154.911 92.4835 154.911C91.6589 154.911 90.8679 154.594 90.2833 154.029C89.6988 153.464 89.3683 152.698 89.3641 151.897V147.197Z" fill="#2F2E41"/>
<path d="M77.8711 172.489V176.394C77.8718 176.597 77.9545 176.791 78.1015 176.934C78.2484 177.077 78.4477 177.159 78.656 177.16H106.487C106.695 177.159 106.895 177.078 107.042 176.935C107.189 176.791 107.272 176.597 107.271 176.394V172.489H77.8711Z" fill="#3F3D56"/>
<path d="M31.9912 72.2562V146.21C31.992 147.153 32.3779 148.056 33.0641 148.723C33.7504 149.389 34.681 149.764 35.6515 149.764H148.511C149.481 149.764 150.412 149.389 151.098 148.723C151.785 148.056 152.17 147.153 152.171 146.21V72.2562C152.169 71.3146 151.782 70.4122 151.096 69.7468C150.41 69.0813 149.481 68.707 148.511 68.7058H35.6515C34.6818 68.707 33.7521 69.0813 33.0661 69.7468C32.38 70.4122 31.9935 71.3146 31.9912 72.2562Z" fill="#3F3D56"/>
<path d="M34.6384 73.1763V145.298C34.6393 145.801 34.8457 146.284 35.2124 146.64C35.579 146.996 36.0761 147.196 36.5947 147.197H147.571C148.09 147.196 148.587 146.996 148.953 146.64C149.32 146.284 149.526 145.801 149.527 145.298V73.1763C149.527 72.6721 149.321 72.1886 148.954 71.8317C148.588 71.4748 148.09 71.2738 147.571 71.2727H36.5947C36.0755 71.2738 35.5779 71.4748 35.2112 71.8317C34.8445 72.1886 34.6385 72.6721 34.6384 73.1763Z" fill="white"/>
<path d="M55.2336 176.896C55.3466 177.033 55.4901 177.144 55.6536 177.22C55.817 177.296 55.996 177.335 56.1772 177.334H122.201C122.381 177.334 122.56 177.295 122.723 177.219C122.886 177.144 123.029 177.034 123.143 176.898C123.257 176.761 123.338 176.602 123.38 176.432C123.423 176.262 123.426 176.084 123.388 175.913L122.364 171.185C122.321 170.992 122.23 170.813 122.098 170.663C121.965 170.514 121.797 170.398 121.607 170.328C121.47 170.276 121.324 170.249 121.176 170.249H57.198C57.0504 170.249 56.9042 170.276 56.7669 170.328C56.5772 170.398 56.4086 170.514 56.2765 170.663C56.1443 170.813 56.0529 170.992 56.0104 171.185L54.9855 175.913C54.9491 176.084 54.9524 176.261 54.9953 176.431C55.0382 176.601 55.1196 176.76 55.2336 176.896Z" fill="#2F2E41"/>
<path d="M143.97 81.2077H40.1295C40.0215 81.2054 39.9188 81.1622 39.8433 81.0872C39.7678 81.0123 39.7256 80.9116 39.7256 80.8068C39.7256 80.7019 39.7678 80.6013 39.8433 80.5263C39.9188 80.4514 40.0215 80.4081 40.1295 80.4058H143.97C144.078 80.4081 144.18 80.4514 144.256 80.5263C144.331 80.6013 144.373 80.7019 144.373 80.8068C144.373 80.9116 144.331 81.0123 144.256 81.0872C144.18 81.1622 144.078 81.2054 143.97 81.2077Z" fill="#3F3D56"/>
<path d="M47.1982 78.3584C48.5348 78.3584 49.6183 77.2828 49.6183 75.9561C49.6183 74.6293 48.5348 73.5537 47.1982 73.5537C45.8617 73.5537 44.7782 74.6293 44.7782 75.9561C44.7782 77.2828 45.8617 78.3584 47.1982 78.3584Z" fill="#3F3D56"/>
<path d="M55.5581 78.3584C56.8947 78.3584 57.9781 77.2828 57.9781 75.9561C57.9781 74.6293 56.8947 73.5537 55.5581 73.5537C54.2215 73.5537 53.1381 74.6293 53.1381 75.9561C53.1381 77.2828 54.2215 78.3584 55.5581 78.3584Z" fill="#3F3D56"/>
<path d="M63.9185 78.3584C65.255 78.3584 66.3385 77.2828 66.3385 75.9561C66.3385 74.6293 65.255 73.5537 63.9185 73.5537C62.5819 73.5537 61.4984 74.6293 61.4984 75.9561C61.4984 77.2828 62.5819 78.3584 63.9185 78.3584Z" fill="#3F3D56"/>
<path d="M138.935 74.1479H132.998C132.88 74.1506 132.769 74.1977 132.687 74.2793C132.605 74.3608 132.559 74.4703 132.559 74.5843C132.559 74.6983 132.605 74.8078 132.687 74.8894C132.769 74.9709 132.88 75.0181 132.998 75.0207H138.935C139.054 75.0191 139.166 74.9724 139.249 74.8908C139.332 74.8091 139.379 74.699 139.379 74.5843C139.379 74.4697 139.332 74.3596 139.249 74.2779C139.166 74.1963 139.054 74.1496 138.935 74.1479Z" fill="#3F3D56"/>
<path d="M138.936 75.7869H132.998C132.88 75.7894 132.768 75.8365 132.686 75.918C132.604 75.9996 132.558 76.1092 132.558 76.2233C132.558 76.3374 132.604 76.4469 132.686 76.5285C132.768 76.6101 132.88 76.6571 132.998 76.6596H138.936C139.054 76.6583 139.167 76.6117 139.25 76.53C139.333 76.4483 139.38 76.3381 139.38 76.2233C139.38 76.1084 139.333 75.9982 139.25 75.9165C139.167 75.8348 139.054 75.7882 138.936 75.7869Z" fill="#3F3D56"/>
<path d="M138.935 77.4258H132.998C132.88 77.4284 132.769 77.4756 132.687 77.5571C132.605 77.6387 132.559 77.7482 132.559 77.8622C132.559 77.9762 132.605 78.0857 132.687 78.1672C132.769 78.2488 132.88 78.2959 132.998 78.2986H138.935C139.054 78.2969 139.166 78.2503 139.249 78.1686C139.332 78.0869 139.379 77.9769 139.379 77.8622C139.379 77.7475 139.332 77.6374 139.249 77.5558C139.166 77.4741 139.054 77.4274 138.935 77.4258Z" fill="#3F3D56"/>
<path d="M282.086 174.203C282.265 174.709 282.605 175.148 283.057 175.455C283.508 175.762 284.049 175.923 284.6 175.913L295.375 175.644C295.93 175.633 296.467 175.449 296.906 175.117C297.344 174.786 297.66 174.325 297.807 173.805L299.332 157.973C299.873 158.211 300.462 158.329 301.055 158.317C301.571 158.305 302.079 158.194 302.551 157.99C303.023 157.787 303.448 157.495 303.804 157.132C304.16 156.769 304.438 156.342 304.623 155.874C304.809 155.406 304.898 154.908 304.885 154.407C304.872 153.906 304.757 153.413 304.548 152.955C304.339 152.497 304.038 152.083 303.664 151.738C303.291 151.393 302.85 151.122 302.369 150.942C301.887 150.762 301.374 150.676 300.858 150.689C300.621 150.688 300.384 150.712 300.152 150.76C299.9 150.495 299.593 150.284 299.251 150.141C298.91 149.998 298.541 149.926 298.17 149.929L281.596 150.345C281.459 150.35 281.322 150.366 281.188 150.394C280.824 150.46 280.479 150.601 280.177 150.807C279.874 151.013 279.62 151.279 279.432 151.588C279.244 151.898 279.127 152.242 279.088 152.599C279.049 152.956 279.089 153.317 279.206 153.658L282.086 174.203ZM299.644 156.898L300.729 153.126C300.853 152.69 300.856 152.23 300.738 151.793C300.79 151.793 300.837 151.769 300.889 151.769C301.633 151.754 302.353 152.026 302.89 152.525C303.428 153.025 303.74 153.711 303.757 154.433C303.775 155.156 303.496 155.855 302.983 156.378C302.47 156.902 301.765 157.206 301.021 157.225C300.54 157.24 300.064 157.127 299.644 156.898Z" fill="#2F2E41"/>
<path d="M281.187 150.394C281.54 152.355 285.51 153.733 290.284 153.493C294.673 153.297 298.262 151.8 298.92 150.026C298.676 149.957 298.423 149.924 298.169 149.929L281.596 150.345C281.459 150.35 281.322 150.366 281.187 150.394Z" fill="#3F3D56"/>
<path d="M291.159 165.503C291.181 165.498 291.201 165.489 291.22 165.477L293.56 163.99C293.588 163.972 293.612 163.947 293.628 163.918C293.644 163.89 293.652 163.857 293.652 163.825C293.652 163.792 293.644 163.76 293.628 163.731C293.612 163.702 293.588 163.677 293.56 163.659L291.128 162.113C291.106 162.098 291.081 162.088 291.055 162.083C291.028 162.078 291.001 162.079 290.975 162.084C290.949 162.089 290.924 162.099 290.902 162.114C290.88 162.129 290.861 162.147 290.846 162.169C290.831 162.191 290.821 162.215 290.816 162.241C290.811 162.266 290.812 162.292 290.817 162.318C290.823 162.343 290.833 162.367 290.848 162.389C290.864 162.41 290.883 162.429 290.905 162.443L293.077 163.824L290.998 165.146C290.957 165.172 290.928 165.211 290.914 165.255C290.9 165.3 290.903 165.348 290.923 165.391C290.942 165.434 290.976 165.469 291.02 165.489C291.063 165.51 291.112 165.515 291.159 165.503Z" fill="#6C63FF"/>
<path d="M287.463 165.669C287.502 165.659 287.538 165.638 287.565 165.609C287.592 165.58 287.609 165.543 287.615 165.504C287.62 165.465 287.614 165.426 287.596 165.39C287.578 165.355 287.549 165.326 287.514 165.306L285.358 164.105L287.442 162.602C287.464 162.586 287.482 162.567 287.495 162.545C287.509 162.522 287.518 162.498 287.522 162.472C287.526 162.447 287.525 162.42 287.518 162.395C287.512 162.37 287.5 162.347 287.484 162.326C287.468 162.305 287.448 162.287 287.425 162.274C287.402 162.261 287.377 162.252 287.351 162.248C287.324 162.244 287.297 162.246 287.271 162.252C287.246 162.258 287.221 162.27 287.2 162.285L284.866 163.968C284.839 163.988 284.817 164.014 284.803 164.043C284.789 164.073 284.782 164.106 284.784 164.139C284.786 164.171 284.796 164.203 284.814 164.231C284.832 164.259 284.857 164.282 284.886 164.298L287.312 165.649C287.358 165.674 287.412 165.681 287.463 165.669Z" fill="#6C63FF"/>
<path d="M290.926 166.807C290.945 166.802 290.964 166.794 290.981 166.784C291.004 166.77 291.024 166.753 291.04 166.732C291.056 166.711 291.067 166.687 291.073 166.662C291.08 166.637 291.081 166.61 291.077 166.585C291.073 166.559 291.063 166.534 291.05 166.512L287.733 161.217C287.705 161.172 287.659 161.14 287.607 161.128C287.555 161.116 287.499 161.124 287.453 161.151C287.407 161.179 287.374 161.222 287.361 161.273C287.349 161.324 287.357 161.378 287.385 161.423L290.702 166.718C290.725 166.754 290.759 166.782 290.799 166.798C290.839 166.814 290.884 166.817 290.926 166.807Z" fill="#6C63FF"/>
<path d="M118.232 148.827L118.32 149.097L118.325 149.106L120.979 156.94L124.032 165.969L129.775 182.935L129.831 185.571V185.58L130.258 206.781L129.075 209.656L130.406 214.368C130.406 214.368 129.794 207.245 126.509 211.335C124.649 213.66 122.473 216.039 120.686 218.269C123.289 219.292 125.934 220.217 128.62 221.044C129.2 221.224 129.785 221.396 130.369 221.567C130.494 221.603 130.62 221.639 130.745 221.675C139.65 224.232 148.855 225.669 158.137 225.95C158.619 225.964 159.092 225.973 159.552 225.982C159.714 225.986 159.872 225.991 160.029 225.991C160.549 225.995 161.064 226 161.584 226C162.632 226 163.676 225.985 164.715 225.955C172.407 225.744 180.055 224.74 187.528 222.959C187.477 219.963 187.338 216.462 187.138 212.723C187.045 210.889 184.962 208.903 184.837 206.983C184.749 205.542 186.618 204.186 186.521 202.722C185.89 193.707 185.101 197.167 184.517 190.783C184.456 190.157 184.401 189.558 184.35 188.986C183.974 184.886 183.714 182.323 183.714 182.323L186.21 167.046L190.131 143.06L189.829 142.578L189.49 142.416L168.812 132.477L167.689 129.684C167.362 128.879 166.795 128.188 166.06 127.699C165.325 127.21 164.456 126.946 163.565 126.94L149.943 126.886C149.236 126.883 148.539 127.044 147.909 127.355C147.278 127.666 146.734 128.118 146.32 128.675L142.631 133.635L118.232 148.827Z" fill="#3F3D56"/>
<path d="M132.916 179.16L129.831 185.571L127.725 189.95L124.101 208.372L122.287 210.241L120.733 203.622L104.466 207.13C103.932 204.251 104.323 207.227 103.993 204.069C104.086 203.979 104.184 203.889 104.281 203.799C104.541 203.564 104.759 203.344 104.754 203.132C104.569 192.238 105.125 173.7 109.774 162.468C110.502 160.634 111.462 158.895 112.632 157.292C112.725 157.17 112.813 157.048 112.901 156.927C115.045 154.012 116.399 151.142 118.32 149.101V149.097C118.332 149.087 118.343 149.077 118.353 149.065C118.36 149.062 118.366 149.057 118.371 149.052L131.566 142.258L132.132 157.702L132.536 168.802L132.916 179.16Z" fill="#3F3D56"/>
<path d="M180.494 180.981L184.348 188.988L185.693 191.777L189.316 210.197L191.124 212.062L192.682 205.445L193.414 205.299L206.614 202.644L210.462 214.51C211.329 213.107 211.671 211.456 211.429 209.837C211.188 208.217 210.377 206.728 209.136 205.622C208.873 205.391 208.654 205.166 208.66 204.954C208.879 192.141 208.072 168.745 200.784 159.116C198.469 156.06 197.08 153.017 195.059 150.89C195.053 150.884 195.053 150.878 195.047 150.878L190.129 143.06L189.829 142.58L189.491 142.416L180.494 180.981Z" fill="#3F3D56"/>
<path d="M157.147 123.122C167.156 123.122 175.269 115.243 175.269 105.525C175.269 95.806 167.156 87.9275 157.147 87.9275C147.139 87.9275 139.025 95.806 139.025 105.525C139.025 115.243 147.139 123.122 157.147 123.122Z" fill="#FFB6B6"/>
<path d="M181.642 93.2331C181.501 93.0874 181.332 92.9707 181.144 92.8899C180.956 92.8092 180.753 92.7661 180.548 92.7632L180.82 92.0286C180.909 91.7972 180.933 91.547 180.89 91.3037C180.846 91.0604 180.737 90.8326 180.573 90.6437C180.409 90.4549 180.197 90.3117 179.957 90.2289C179.718 90.1461 179.46 90.1266 179.21 90.1724L178.217 90.3581L178.311 89.7143C178.347 89.4746 178.318 89.2299 178.227 89.0043C178.136 88.7788 177.986 88.5801 177.792 88.4279C177.597 88.2757 177.366 88.1751 177.12 88.1362C176.873 88.0972 176.621 88.1212 176.387 88.2057C176.174 88.287 175.946 88.321 175.718 88.3053C175.49 88.2896 175.268 88.2245 175.069 88.1149C174.87 88.0086 174.697 87.8613 174.562 87.6832C174.427 87.5052 174.334 87.3007 174.289 87.0841L173.943 85.4649L173.906 85.378C172.223 82.653 168.985 80.6705 165.024 79.9438C161.498 79.2922 157.882 79.6239 154.397 79.9359C153.014 80.0623 151.452 80.2045 150.151 80.9785C149.045 81.642 148.109 82.969 148.3 84.3078C144.864 83.2849 141.179 85.3267 139.353 87.9016C137.189 90.9662 136.836 94.8049 136.779 97.8064C136.624 104.907 138.133 110.717 141.252 115.076C141.48 115.392 141.537 116.052 141.988 116.273L141.895 116.127C142.399 116.372 142.912 116.767 142.72 117.189C142.171 118.406 145.82 121.095 148.39 121.984C153.079 123.607 159.314 123.469 163.698 122.884L163.853 121.877C165.435 121.668 166.549 121.269 166.862 120.645C167.415 120.187 167.887 119.776 168.298 119.397L168.302 119.393C168.31 119.385 168.326 119.373 168.334 119.365C170.315 117.521 170.775 116.471 170.982 114.871C171.181 113.303 170.828 111.712 170.466 110.278C178.087 111.423 167.464 102.395 174.565 100.65C174.647 100.625 174.729 100.606 174.813 100.591C175.021 100.543 175.228 100.496 175.427 100.441C176.388 100.187 177.308 99.8059 178.16 99.3071C180.145 98.1342 180.8 96.5782 181.825 94.8247C181.973 94.575 182.035 94.286 182.002 93.9998C181.969 93.7135 181.843 93.445 181.642 93.2331Z" fill="#2F2E41"/>
<path d="M221.242 182.234C221.238 182.925 221.23 183.892 221.197 185.089C221.193 185.255 221.189 185.425 221.185 185.598C221.132 187.798 221.079 189.643 220.994 191.692C220.99 191.834 220.986 191.973 220.978 192.115C220.864 194.974 220.685 198.303 220.376 203.576C219.802 213.314 218.802 204.914 217.797 208.33C217.748 208.5 217.696 208.702 217.647 208.939C217.495 209.798 217.238 210.638 216.882 211.439C216.349 211.747 215.8 212.043 215.259 212.339C213.718 213.172 212.152 213.974 210.574 214.736C209.688 215.163 208.797 215.581 207.902 215.984C207.76 216.047 207.622 216.111 207.483 216.17C202.902 218.228 198.179 219.977 193.351 221.406C192.407 221.683 191.468 221.951 190.516 222.2C189.524 222.469 188.531 222.722 187.527 222.959C180.054 224.74 172.407 225.745 164.715 225.956C163.678 225.988 162.632 225.999 161.583 225.999C161.063 225.999 160.55 225.996 160.03 225.992C159.871 225.992 159.712 225.988 159.554 225.984C159.094 225.972 158.618 225.964 158.138 225.952C148.857 225.671 139.651 224.234 130.747 221.675L130.369 221.568C129.783 221.395 129.202 221.225 128.62 221.043C125.936 220.218 123.291 219.294 120.685 218.271C118.697 217.493 116.731 216.658 114.788 215.767C114.771 215.762 114.754 215.754 114.739 215.743C114.333 215.562 113.922 215.372 113.515 215.178C113.462 215.151 113.405 215.123 113.349 215.096C111.832 214.377 110.331 213.624 108.846 212.837C107.598 210.052 105.841 209.519 104.751 207.071C104.434 206.343 104.204 205.582 104.068 204.804C104.068 204.796 104.064 204.788 104.064 204.776C104.177 206.245 103.58 202.17 104.059 204.76C104.055 204.713 104.051 204.662 104.047 204.602C104.035 204.46 104.019 204.286 103.994 204.069C102.599 190.843 102.689 175.717 102.083 163.254C102.042 162.448 102 161.676 101.957 160.939C101.945 160.694 101.928 160.454 101.912 160.217C101.941 160.145 101.973 160.07 102.01 159.999C102.018 159.979 102.027 159.959 102.038 159.94C102.05 159.916 102.064 159.892 102.079 159.869C102.087 159.857 102.099 159.841 102.107 159.83C102.113 159.816 102.12 159.803 102.128 159.79C102.164 159.735 102.205 159.676 102.25 159.62C102.27 159.597 102.286 159.577 102.307 159.557C102.321 159.537 102.337 159.518 102.355 159.502C102.368 159.483 102.383 159.465 102.4 159.45C102.416 159.435 102.433 159.415 102.453 159.395C102.462 159.383 102.473 159.372 102.486 159.364C102.518 159.328 102.553 159.295 102.591 159.265C102.736 159.135 102.891 159.016 103.055 158.909C103.112 158.874 103.173 158.838 103.23 158.799C103.64 158.561 104.071 158.36 104.519 158.198C104.674 158.143 104.828 158.092 104.995 158.037C105.056 158.021 105.113 158.001 105.174 157.981C105.263 157.954 105.353 157.926 105.446 157.906C105.91 157.772 106.41 157.657 106.951 157.551C107.016 157.539 107.085 157.527 107.154 157.511C107.252 157.492 107.354 157.476 107.455 157.46C107.594 157.436 107.736 157.413 107.878 157.389C109.086 157.203 110.457 157.065 111.97 156.974C112.112 156.966 112.255 156.958 112.397 156.951C112.564 156.943 112.73 156.935 112.901 156.927C113.043 156.919 113.19 156.915 113.336 156.911C113.479 156.903 113.625 156.899 113.776 156.895C114.186 156.883 114.609 156.872 115.04 156.864C116.269 156.84 117.562 156.848 118.92 156.875C119.551 156.891 120.193 156.907 120.852 156.935C120.897 156.935 120.938 156.939 120.978 156.939C121.552 156.958 122.129 156.982 122.723 157.014C123.138 157.033 123.557 157.053 123.976 157.077C124.37 157.101 124.769 157.124 125.171 157.152C125.484 157.168 125.798 157.191 126.115 157.211C126.383 157.231 126.652 157.251 126.92 157.266L127.286 157.29C127.485 157.306 127.685 157.318 127.888 157.338C128.335 157.373 128.783 157.409 129.238 157.444C129.69 157.484 130.149 157.523 130.609 157.563C131.068 157.602 131.532 157.646 131.996 157.689C132.045 157.693 132.089 157.697 132.134 157.701C132.557 157.744 132.98 157.784 133.407 157.827C133.505 157.835 133.606 157.843 133.704 157.855C134.111 157.895 134.526 157.941 134.937 157.984C135.063 157.997 135.189 158.01 135.315 158.023C135.637 158.057 135.954 158.086 136.278 158.123C136.705 158.171 137.14 158.214 137.563 158.27C137.893 158.305 138.222 158.341 138.552 158.38C139.068 158.439 139.593 158.503 140.117 158.57C140.317 158.593 140.516 158.617 140.715 158.645C142.212 158.826 143.725 159.028 145.262 159.237C147.593 159.557 149.96 159.905 152.343 160.28C154.73 160.655 157.131 161.051 159.546 161.468C160.156 161.575 160.766 161.682 161.38 161.792C161.656 161.844 161.933 161.895 162.209 161.946C162.681 162.029 163.153 162.116 163.625 162.203C164.097 162.29 164.568 162.377 165.04 162.468C165.601 162.574 166.167 162.681 166.728 162.788C170.425 163.498 174.101 164.257 177.688 165.05C178.278 165.181 178.868 165.315 179.454 165.445C180.625 165.71 181.785 165.979 182.935 166.251C183.252 166.322 183.565 166.397 183.878 166.472C184.659 166.662 185.44 166.851 186.209 167.045L186.343 167.08C186.908 167.215 187.461 167.353 188.015 167.495C189.32 167.827 190.604 168.162 191.866 168.502C192.704 168.727 193.532 168.955 194.351 169.185C195.575 169.529 196.775 169.876 197.942 170.228C198.231 170.315 198.52 170.402 198.804 170.485C199.658 170.741 200.5 171.002 201.318 171.263C201.968 171.468 202.603 171.677 203.229 171.887C203.856 172.096 204.47 172.305 205.072 172.515C205.458 172.649 205.84 172.791 206.223 172.925C206.772 173.123 207.313 173.32 207.841 173.518C208.004 173.577 208.163 173.64 208.321 173.699C208.423 173.743 208.52 173.778 208.618 173.818C208.809 173.893 209.004 173.964 209.191 174.039C209.383 174.11 209.57 174.185 209.757 174.264C209.94 174.335 210.127 174.41 210.306 174.485C210.489 174.556 210.668 174.631 210.847 174.71C210.997 174.77 211.144 174.833 211.286 174.896C211.575 175.018 211.864 175.141 212.144 175.267C212.282 175.33 212.421 175.39 212.559 175.453L212.876 175.595C212.921 175.619 212.966 175.638 213.01 175.658C213.112 175.706 213.218 175.757 213.319 175.804C213.555 175.911 213.787 176.025 214.015 176.132C214.32 176.282 214.617 176.432 214.902 176.578C215.19 176.728 215.471 176.879 215.739 177.025C215.784 177.048 215.825 177.072 215.87 177.096C215.931 177.127 215.992 177.163 216.053 177.194C216.26 177.309 216.459 177.427 216.659 177.542C217.049 177.775 217.419 178.004 217.765 178.233C217.842 178.284 217.915 178.336 217.992 178.383C218.249 178.561 218.493 178.735 218.72 178.912C218.72 178.916 218.72 178.916 218.725 178.916C218.802 178.972 218.875 179.031 218.948 179.086C219.009 179.141 219.074 179.189 219.135 179.244C219.347 179.422 219.542 179.592 219.721 179.765C219.781 179.819 219.838 179.876 219.892 179.935C219.915 179.954 219.937 179.975 219.957 179.998C220.038 180.077 220.111 180.156 220.181 180.235C220.191 180.246 220.201 180.258 220.209 180.271C220.307 180.381 220.396 180.492 220.481 180.603C220.522 180.658 220.567 180.713 220.604 180.769C220.652 180.836 220.701 180.907 220.742 180.974C220.778 181.029 220.811 181.088 220.843 181.144C220.93 181.286 221.003 181.435 221.063 181.59C221.109 181.695 221.146 181.803 221.173 181.914C221.204 182.019 221.227 182.126 221.242 182.234Z" fill="#2F2E41"/>
<path opacity="0.2" d="M221.242 182.234C221.238 182.925 221.229 183.892 221.197 185.089C221.193 185.255 221.185 185.425 221.181 185.598C221.14 187.277 221.079 189.35 220.994 191.692C220.989 191.834 220.985 191.972 220.977 192.115C220.863 194.974 220.684 198.303 220.375 203.575C219.802 213.314 218.801 204.914 217.797 208.33C215.007 206.664 211.949 204.918 208.679 203.125C208.089 202.801 207.494 202.476 206.893 202.15C200.353 198.607 193.049 194.895 185.424 191.218C185.123 191.072 184.818 190.926 184.517 190.784C167.049 182.399 147.983 174.244 132.536 168.802C129.555 167.752 126.708 166.804 124.032 165.971C118.395 164.221 113.523 162.997 109.773 162.468C105.869 161.915 103.172 162.112 102.082 163.253C102.042 162.448 102 161.676 101.956 160.939C101.94 160.694 101.924 160.453 101.908 160.216C101.933 160.151 101.965 160.089 101.997 160.027C102.001 160.018 102.005 160.008 102.009 159.999C102.017 159.979 102.027 159.959 102.038 159.94C102.05 159.915 102.063 159.892 102.078 159.869C102.092 159.841 102.108 159.814 102.127 159.79C102.164 159.735 102.204 159.675 102.249 159.62C102.282 159.579 102.317 159.539 102.355 159.502C102.367 159.483 102.382 159.465 102.4 159.45C102.416 159.434 102.432 159.415 102.453 159.395C102.461 159.383 102.472 159.372 102.485 159.363C102.517 159.328 102.553 159.294 102.591 159.265C102.736 159.135 102.891 159.016 103.054 158.909C103.111 158.874 103.172 158.838 103.229 158.799C103.639 158.561 104.071 158.36 104.519 158.198C104.673 158.143 104.828 158.092 104.994 158.036C105.055 158.021 105.112 158.001 105.173 157.981C105.263 157.954 105.352 157.926 105.446 157.906C105.91 157.772 106.41 157.657 106.951 157.551C107.113 157.519 107.284 157.487 107.455 157.46C107.593 157.436 107.736 157.412 107.878 157.389C109.086 157.203 110.456 157.065 111.969 156.974C112.112 156.966 112.254 156.958 112.396 156.95C112.563 156.942 112.73 156.935 112.901 156.927C113.043 156.919 113.189 156.915 113.336 156.911C113.478 156.903 113.625 156.899 113.775 156.895C114.186 156.883 114.609 156.871 115.04 156.864C116.268 156.844 117.561 156.852 118.92 156.879C119.55 156.891 120.193 156.911 120.852 156.939C120.892 156.939 120.937 156.943 120.978 156.943C121.551 156.958 122.133 156.986 122.723 157.014C123.137 157.033 123.556 157.053 123.975 157.077C124.37 157.1 124.768 157.124 125.171 157.152C125.484 157.168 125.797 157.191 126.114 157.211C126.383 157.231 126.651 157.251 126.92 157.266C127.241 157.29 127.562 157.314 127.888 157.337C128.335 157.373 128.782 157.408 129.238 157.444C129.689 157.484 130.149 157.523 130.608 157.563C131.068 157.602 131.532 157.645 131.995 157.689C132.044 157.693 132.089 157.697 132.134 157.701C132.557 157.744 132.979 157.784 133.407 157.827C135.774 158.06 138.21 158.333 140.715 158.645C142.212 158.83 143.727 159.029 145.262 159.241C147.592 159.561 149.959 159.908 152.343 160.28C154.73 160.655 157.131 161.051 159.545 161.468C160.155 161.575 160.765 161.682 161.379 161.792C162.128 161.926 162.876 162.063 163.624 162.203C164.096 162.29 164.568 162.377 165.04 162.468C165.601 162.574 166.166 162.681 166.728 162.787C170.424 163.498 174.101 164.257 177.688 165.05C178.278 165.181 178.867 165.315 179.453 165.445C180.624 165.71 181.785 165.978 182.935 166.251C183.252 166.326 183.565 166.401 183.878 166.476C184.663 166.666 185.44 166.855 186.208 167.045V167.049C186.253 167.057 186.298 167.068 186.343 167.08C186.904 167.218 187.461 167.357 188.014 167.499C189.32 167.831 190.604 168.165 191.866 168.502C192.703 168.731 193.533 168.956 194.351 169.185C195.575 169.533 196.775 169.88 197.942 170.228C198.231 170.315 198.519 170.402 198.804 170.485C199.658 170.745 200.496 171.004 201.317 171.263C201.968 171.468 202.603 171.677 203.229 171.887C203.855 172.096 204.469 172.305 205.071 172.514C205.462 172.649 205.844 172.787 206.222 172.921C206.775 173.119 207.312 173.316 207.841 173.518C208.004 173.577 208.162 173.64 208.321 173.699C208.618 173.81 208.906 173.924 209.191 174.039C209.382 174.11 209.569 174.185 209.756 174.264C209.939 174.335 210.126 174.41 210.305 174.485C210.488 174.556 210.667 174.631 210.846 174.71C210.997 174.769 211.143 174.833 211.286 174.896C211.574 175.018 211.863 175.141 212.144 175.267C212.282 175.33 212.42 175.39 212.559 175.453L212.876 175.595C212.921 175.619 212.965 175.638 213.01 175.658C213.356 175.816 213.689 175.974 214.015 176.132C214.32 176.282 214.616 176.432 214.901 176.578C215.239 176.752 215.56 176.922 215.869 177.096C215.93 177.127 215.991 177.163 216.052 177.194C216.26 177.309 216.459 177.427 216.658 177.542C217.049 177.775 217.419 178.004 217.764 178.233C218.106 178.462 218.423 178.687 218.72 178.912C218.72 178.916 218.72 178.916 218.724 178.916C218.866 179.027 219.005 179.137 219.135 179.244C219.346 179.422 219.542 179.591 219.721 179.765C219.781 179.819 219.838 179.876 219.891 179.935C219.915 179.954 219.937 179.975 219.956 179.998C220.042 180.089 220.127 180.18 220.209 180.271C220.306 180.381 220.396 180.492 220.481 180.603C220.522 180.658 220.567 180.713 220.603 180.768C220.652 180.836 220.701 180.907 220.741 180.974C220.778 181.029 220.811 181.088 220.843 181.144C220.929 181.286 221.003 181.435 221.063 181.59C221.107 181.695 221.144 181.803 221.173 181.914C221.203 182.019 221.226 182.126 221.242 182.234Z" fill="black"/>
<g clip-path="url(#clip0_6021_618)">
<path d="M72.9601 61.5258C81.7921 61.5258 88.9601 54.5653 88.9601 45.989C88.9601 37.4126 81.7921 30.4521 72.9601 30.4521C64.1281 30.4521 56.9601 37.4126 56.9601 45.989C56.9601 54.5653 64.1281 61.5258 72.9601 61.5258Z" fill="#00EF8B"/>
<path d="M79.9873 43.5652H75.4689V47.9528H79.9873V43.5652Z" fill="white"/>
<path d="M70.9505 49.5935C70.9505 49.9167 70.8481 50.2398 70.6689 50.5133C70.4769 50.7867 70.2209 50.998 69.9137 51.1223C69.6065 51.2466 69.2609 51.2839 68.9281 51.2217C68.5953 51.1596 68.3009 50.998 68.0577 50.7743C67.8145 50.5381 67.6609 50.2522 67.5969 49.9291C67.5329 49.6059 67.5713 49.2828 67.6993 48.972C67.8273 48.6737 68.0449 48.4127 68.3265 48.2387C68.6081 48.0522 68.9281 47.9652 69.2737 47.9652H70.9633V43.5776H69.2737C68.0449 43.5776 66.8417 43.9257 65.8177 44.5969C64.7937 45.2556 64.0001 46.2002 63.5265 47.3065C63.0529 48.4127 62.9377 49.6183 63.1681 50.7867C63.4113 51.9551 64.0001 53.0364 64.8705 53.8692C65.7409 54.7144 66.8417 55.2862 68.0449 55.5223C69.2481 55.7585 70.5025 55.6342 71.6289 55.1743C72.7681 54.7144 73.7281 53.9438 74.4193 52.9494C75.0977 51.9551 75.4689 50.7867 75.4689 49.5935V47.9404H70.9505V49.5935Z" fill="white"/>
<path d="M77.1584 41.3651H82.24V36.9775H77.1584C75.5072 36.9775 73.9328 37.6114 72.768 38.7425C71.6032 39.8736 70.9504 41.4024 70.9504 43.0058V43.5527H75.4688V43.0058C75.4688 42.5708 75.648 42.1482 75.968 41.8375C76.288 41.5267 76.7232 41.3527 77.1712 41.3527L77.1584 41.3651Z" fill="white"/>
<path d="M70.9504 47.9403H75.4688V43.5652H70.9504V47.9403Z" fill="#00EF8B"/>
</g>
<g clip-path="url(#clip1_6021_618)">
<path d="M28.3382 96.5345L22.6637 111.96L20.6399 104.625L28.3382 96.5345ZM24.6897 102.387L22.2168 104.978L22.8661 107.331L24.6897 102.387Z" fill="#5A9DED"/>
<path d="M9.80688 101.356L22.6638 111.96L20.6399 104.625L9.80688 101.356ZM15.98 104.653L19.456 105.697L20.1052 108.05L15.98 104.653Z" fill="#53D3E0"/>
<path d="M18.606 92.6892L25.6584 94.4113L26.0542 95.0005L25.4944 95.8101L19.0299 94.2255L18.606 92.6892Z" fill="#D995D1"/>
<path d="M16.2592 93.2998L11.0383 98.2154L10.999 98.9177L11.9006 99.347L16.6832 94.8361L16.2592 93.2998Z" fill="#A6E276"/>
<path d="M14.3854 81.9592L27.9027 94.9567L20.2006 103.034L14.3854 81.9592ZM17.1177 86.5459L20.9138 100.303L25.9462 95.0285L17.1177 86.5459Z" fill="#FF9C92"/>
<path d="M14.3854 81.9593L9.37147 99.7784L20.2006 103.034L14.3854 81.9593ZM14.3809 87.2581L18.177 101.015L11.1029 98.8907L14.3809 87.2581Z" fill="#FFE94D"/>
</g>
<g clip-path="url(#clip2_6021_618)">
<path d="M261.921 112.515C259.783 120.842 251.094 125.905 242.531 123.829C233.954 121.753 228.741 113.316 230.879 105C233.017 96.6725 241.693 91.6102 250.269 93.6862C258.833 95.7499 264.059 104.187 261.921 112.515Z" fill="url(#paint0_linear_6021_618)"/>
<path d="M254.018 106.821C254.33 104.758 252.718 103.641 250.493 102.901L251.218 100.097L249.468 99.672L248.768 102.403C248.305 102.294 247.83 102.185 247.355 102.087L248.055 99.3443L246.305 98.9194L245.593 101.711C245.205 101.626 244.83 101.541 244.468 101.456V101.444L242.043 100.862L241.58 102.682C241.58 102.682 242.88 102.974 242.855 102.986C243.568 103.156 243.693 103.617 243.668 103.981L242.843 107.173C242.893 107.185 242.955 107.198 243.03 107.234C242.968 107.222 242.905 107.21 242.843 107.185L241.693 111.652C241.605 111.859 241.38 112.174 240.893 112.053C240.905 112.077 239.618 111.749 239.618 111.749L238.743 113.704L241.03 114.262C241.455 114.371 241.868 114.468 242.28 114.578L241.555 117.406L243.305 117.831L244.03 115.027C244.505 115.148 244.98 115.269 245.43 115.379L244.718 118.171L246.468 118.595L247.193 115.767C250.193 116.313 252.443 116.095 253.38 113.461C254.143 111.349 253.343 110.123 251.768 109.322C252.93 109.067 253.793 108.326 254.018 106.821ZM250.005 112.284C249.468 114.396 245.793 113.255 244.605 112.963L245.568 109.213C246.755 109.504 250.58 110.074 250.005 112.284ZM250.555 106.785C250.055 108.715 247.005 107.732 246.018 107.489L246.893 104.09C247.88 104.333 251.068 104.782 250.555 106.785Z" fill="white"/>
</g>
<defs>
<linearGradient id="paint0_linear_6021_618" x1="1829.53" y1="92.4749" x2="1829.53" y2="3200.27" gradientUnits="userSpaceOnUse">
<stop stop-color="#F9AA4B"/>
<stop offset="1" stop-color="#F7931A"/>
</linearGradient>
<clipPath id="clip0_6021_618">
<rect width="32" height="31.0736" fill="white" transform="translate(56.9601 30.4521)"/>
</clipPath>
<clipPath id="clip1_6021_618">
<rect width="19.1483" height="31.1365" fill="white" transform="matrix(0.967777 -0.251808 0.265997 0.963974 5.11975 84.3701)"/>
</clipPath>
<clipPath id="clip2_6021_618">
<rect width="32" height="31.0736" fill="white" transform="translate(230.4 93.2207)"/>
</clipPath>
</defs>
</svg>
