<svg width="18" height="17" viewBox="0 0 18 17" fill="none" xmlns="http://www.w3.org/2000/svg">
<path fill-rule="evenodd" clip-rule="evenodd" d="M15.5455 1.9546H2.45455C2.23755 1.9546 2.02944 2.0408 1.876 2.19424C1.72256 2.34768 1.63636 2.55579 1.63636 2.77278V14.2273C1.63636 14.4443 1.72256 14.6524 1.876 14.8059C2.02944 14.9593 2.23755 15.0455 2.45455 15.0455H15.5455C15.7625 15.0455 15.9706 14.9593 16.124 14.8059C16.2774 14.6524 16.3636 14.4443 16.3636 14.2273V2.77278C16.3636 2.55579 16.2774 2.34768 16.124 2.19424C15.9706 2.0408 15.7625 1.9546 15.5455 1.9546ZM2.45455 0.318237C1.80356 0.318237 1.17924 0.576841 0.71892 1.03716C0.258603 1.49747 0 2.1218 0 2.77278V14.2273C0 14.8783 0.258603 15.5026 0.71892 15.963C1.17924 16.4233 1.80356 16.6819 2.45455 16.6819H15.5455C16.1964 16.6819 16.8208 16.4233 17.2811 15.963C17.7414 15.5026 18 14.8783 18 14.2273V2.77278C18 2.1218 17.7414 1.49747 17.2811 1.03716C16.8208 0.576841 16.1964 0.318237 15.5455 0.318237H2.45455ZM4.09091 4.40915H5.72727V6.04551H4.09091V4.40915ZM8.18182 4.40915C7.96482 4.40915 7.75672 4.49535 7.60328 4.64879C7.44984 4.80223 7.36364 5.01033 7.36364 5.22733C7.36364 5.44432 7.44984 5.65243 7.60328 5.80587C7.75672 5.95931 7.96482 6.04551 8.18182 6.04551H13.0909C13.3079 6.04551 13.516 5.95931 13.6695 5.80587C13.8229 5.65243 13.9091 5.44432 13.9091 5.22733C13.9091 5.01033 13.8229 4.80223 13.6695 4.64879C13.516 4.49535 13.3079 4.40915 13.0909 4.40915H8.18182ZM5.72727 7.68187H4.09091V9.31824H5.72727V7.68187ZM7.36364 8.50006C7.36364 8.28306 7.44984 8.07495 7.60328 7.92151C7.75672 7.76807 7.96482 7.68187 8.18182 7.68187H13.0909C13.3079 7.68187 13.516 7.76807 13.6695 7.92151C13.8229 8.07495 13.9091 8.28306 13.9091 8.50006C13.9091 8.71705 13.8229 8.92516 13.6695 9.0786C13.516 9.23204 13.3079 9.31824 13.0909 9.31824H8.18182C7.96482 9.31824 7.75672 9.23204 7.60328 9.0786C7.44984 8.92516 7.36364 8.71705 7.36364 8.50006ZM5.72727 10.9546H4.09091V12.591H5.72727V10.9546ZM7.36364 11.7728C7.36364 11.5558 7.44984 11.3477 7.60328 11.1942C7.75672 11.0408 7.96482 10.9546 8.18182 10.9546H13.0909C13.3079 10.9546 13.516 11.0408 13.6695 11.1942C13.8229 11.3477 13.9091 11.5558 13.9091 11.7728C13.9091 11.9898 13.8229 12.1979 13.6695 12.3513C13.516 12.5048 13.3079 12.591 13.0909 12.591H8.18182C7.96482 12.591 7.75672 12.5048 7.60328 12.3513C7.44984 12.1979 7.36364 11.9898 7.36364 11.7728Z" fill="#F7931A"/>
</svg>
