<svg width="50" height="50" viewBox="0 0 50 50" fill="none" xmlns="http://www.w3.org/2000/svg">
<g clip-path="url(#clip0_6079_2466)">
<path fill-rule="evenodd" clip-rule="evenodd" d="M16.2124 0.141921C9.24088 2.89992 5.12838 11.2259 8.03738 23.1119C8.28788 24.1654 10.1939 25.6699 10.3444 26.6729C10.4444 27.6764 8.73938 28.1779 8.68938 29.0804C8.68938 30.8859 8.38838 32.4909 8.03738 33.9454L4.47638 33.0929C3.22238 34.5474 2.06888 35.9014 1.46688 37.3559C1.06588 38.4089 0.814879 39.6629 1.36688 40.8669C11.0469 46.9354 27.4469 49.8944 37.1769 49.9949C38.6309 50.0449 39.1324 49.7439 39.6344 48.6909C39.7844 48.3394 39.9854 47.8379 40.1859 47.2359C40.6374 46.0324 41.0884 44.3774 41.4899 42.3209C41.8409 40.3149 42.0919 37.9074 41.9914 35.3999C41.9914 34.0959 38.7314 33.1429 38.8314 31.7889C38.8819 30.7859 41.5399 29.3814 40.5869 27.4254C38.3304 22.8114 38.9819 19.3004 40.3364 16.4919C41.6404 13.6329 44.2984 11.1754 48.2604 8.51742C49.4144 7.71492 49.0629 5.90942 47.6589 5.65892L17.0649 0.0414214C16.7639 -0.0585786 16.4629 0.0414214 16.2124 0.141421M17.0649 3.25092L43.6964 8.11592C41.0384 10.2224 38.7314 12.4289 37.4774 15.1374C35.7724 18.7984 35.7724 22.5599 37.6279 27.8264C38.0294 29.0299 34.7189 30.9859 34.9199 32.1394C35.1199 33.3429 38.6814 34.9479 38.7314 36.1014C38.7814 38.3584 38.7314 39.9134 38.3804 41.7689C38.0794 43.6244 37.7284 45.1794 37.2269 46.2324C36.7754 46.9849 35.5219 46.3329 35.0704 44.7279C34.5684 42.7719 34.8194 41.7189 35.9229 40.2144C27.6474 39.5119 19.3719 37.8069 11.0969 34.6974C11.5479 33.1424 11.8489 32.2399 11.8989 30.1834C11.8989 29.1804 13.6039 29.0799 13.4539 27.9264C13.3539 26.7229 11.3974 23.6634 11.0969 22.3594C8.43838 11.6764 11.8989 5.50792 17.0649 3.25092ZM20.2749 4.30392L17.8674 6.31042C16.8644 6.31042 15.9114 6.81192 15.2594 7.56392L13.1029 8.06542L14.4569 9.46992C14.3069 10.5734 14.6574 11.7269 15.5104 12.4789L15.2594 15.4884L17.4159 13.3319C18.5194 13.3819 19.6229 12.9304 20.3249 12.0779L22.1809 11.8269L21.1774 10.1719C21.2779 9.06842 20.9269 7.91492 20.1244 7.16292L20.2749 4.30392ZM18.0179 8.41642C18.1179 8.41642 18.2689 8.41642 18.3689 8.46642C19.1214 8.81792 19.3219 9.82142 18.9209 10.4729C18.5694 11.1749 17.6169 11.5264 17.0149 11.0244C16.2624 10.4729 16.3629 9.31942 17.0149 8.76792C17.2654 8.51692 17.6669 8.36642 18.0179 8.41642ZM27.5974 12.7799L25.8419 13.8834L27.3469 16.3409L25.0894 17.4944L26.0424 19.3504L28.3999 18.1464L30.3054 21.2059L32.0609 20.1024L30.3059 17.1934L33.1644 15.7389L32.2114 13.8834L29.2024 15.3884L27.5974 12.7799ZM22.7824 16.9929L21.7794 17.1934C20.6259 17.5444 19.4724 18.1464 18.5694 18.9989L19.9739 20.5539C20.8769 19.7014 22.0304 19.1999 23.2339 18.9989L22.7824 16.9929ZM17.1149 20.9054L16.6639 21.7079C16.3997 22.3997 16.1653 23.1025 15.9614 23.8144L15.8114 25.2689L17.9174 25.4694C17.9674 24.6669 18.0679 23.8644 18.3689 23.1124C18.4689 22.6609 18.7199 22.3099 18.9209 21.9589L17.1149 20.9054ZM18.0179 27.1749L16.0119 27.7264C16.2624 28.5789 16.4629 29.4814 16.9649 30.2339C17.2154 30.8359 17.5664 31.3374 17.9174 31.8389L19.6224 30.5849C19.1214 29.8829 18.6699 29.1309 18.3689 28.2779L18.0179 27.1749ZM20.8769 31.8389L19.6229 33.5439C20.7764 34.4469 22.1809 35.0989 23.5349 35.6004L24.3374 33.6949C23.0834 33.1929 21.8799 32.6914 20.8769 31.8389ZM26.2934 34.4969L25.4409 36.4029C26.4939 36.9044 27.5469 37.5564 28.1989 38.6099L29.9544 37.4564C29.5534 36.8044 29.0519 36.3029 28.4499 35.8014C27.7799 35.2905 27.0569 34.8532 26.2934 34.4969Z" fill="#F7931A"/>
</g>
<defs>
<clipPath id="clip0_6079_2466">
<rect width="50" height="50" fill="white"/>
</clipPath>
</defs>
</svg>
