<svg width="22" height="22" viewBox="0 0 22 22" fill="none" xmlns="http://www.w3.org/2000/svg">
<path d="M9.59101 17.1996L9.59029 17.199C7.32183 15.142 5.47918 13.4679 4.19781 11.9002C2.92193 10.3393 2.25488 8.94501 2.25488 7.45598C2.25488 5.02236 4.15311 3.13171 6.57915 3.13171C7.95422 3.13171 9.28225 3.77443 10.1469 4.7818L10.5263 5.22388L10.9057 4.7818C11.7703 3.77443 13.0983 3.13171 14.4734 3.13171C16.8994 3.13171 18.7977 5.02236 18.7977 7.45598C18.7977 8.94501 18.1306 10.3393 16.8547 11.9002C15.5734 13.4679 13.7307 15.142 11.4623 17.199L11.4615 17.1996L10.5263 18.0511L9.59101 17.1996Z" stroke="#FF4444"/>
</svg>
