<svg width="25" height="25" viewBox="0 0 25 25" fill="none" xmlns="http://www.w3.org/2000/svg">
<g clip-path="url(#clip0_8162_207)">
<path d="M13.1553 14.3252C13.2053 14.7726 12.8605 15.1595 12.4026 15.1595H10.184L9.02336 13.5619C8.68651 13.104 8.15747 12.8303 7.58902 12.8303C7.0284 12.8303 6.49937 13.104 6.16517 13.5619L5.0045 15.1595H2.89899C2.45158 15.1595 2.09628 14.7726 2.14631 14.3252L2.40154 11.7802C2.58576 10.2852 3.60175 9.07202 4.94663 8.58506L4.98606 8.56409C5.72824 9.12459 6.65465 9.4483 7.65219 9.4483C8.64961 9.4483 9.57602 9.12205 10.3182 8.57458L10.3576 8.58506C11.7105 9.07467 12.729 10.2852 12.9106 11.7907L13.1553 14.3252Z" fill="white"/>
<path d="M4.3623 4.95305C4.3623 6.7691 5.83354 8.24299 7.64958 8.24299C9.46551 8.24299 10.9394 6.77175 10.9394 4.95305C10.9394 3.13713 9.46551 1.6659 7.64958 1.6659C5.83354 1.66324 4.3623 3.13713 4.3623 4.95305Z" fill="white"/>
<path d="M20.7931 18.4256L20.7562 18.4151C20.0114 18.9652 19.0902 19.2889 18.0902 19.2889C17.0901 19.2889 16.1689 18.9626 15.4241 18.4098L15.3819 18.4231C14.0344 18.9125 13.0159 20.1258 12.837 21.6233L12.5764 24.1684C12.5344 24.6158 12.8844 25 13.3291 25H22.8459C23.296 25 23.6459 24.6131 23.5986 24.1684L23.3486 21.6339C23.1723 20.1284 22.1511 18.9152 20.7931 18.4256Z" fill="white"/>
<path d="M14.803 14.7937C14.803 16.6097 16.2741 18.0836 18.0901 18.0836C19.9061 18.0836 21.3799 16.6123 21.3799 14.7937C21.3799 12.9777 19.9061 11.5065 18.0901 11.5065C16.2741 11.5065 14.803 12.9777 14.803 14.7937Z" fill="white"/>
<path d="M10.2025 18.7362H9.12876C9.20507 20.4232 9.81561 21.9708 10.8078 23.1998C10.9395 23.363 10.8027 23.6051 10.5973 23.5789C8.13387 23.2762 6.21269 21.2444 6.06259 18.7362H4.98355C4.54144 18.7362 4.28609 18.2336 4.5441 17.8756L7.15489 14.2779C7.3707 13.9805 7.81546 13.9805 8.03127 14.2779L10.6421 17.8756C10.9 18.2336 10.6447 18.7362 10.2025 18.7362Z" fill="white"/>
<path d="M18.0901 0C15.3556 0 13.137 2.21607 13.137 4.9531C13.137 7.69025 15.3529 9.90632 18.0901 9.90632C20.8272 9.90632 23.0432 7.69025 23.0432 4.9531C23.0432 2.21607 20.8246 0 18.0901 0ZM20.435 4.24781L17.8374 6.84546C17.7163 6.96651 17.5584 7.02703 17.4031 7.02703C17.2453 7.02703 17.0873 6.96651 16.9689 6.84812L15.6766 5.5558C15.4372 5.31636 15.4372 4.92417 15.6766 4.68473C15.9162 4.44517 16.3083 4.44517 16.5478 4.68473L17.4031 5.54L19.5665 3.37662C19.806 3.13718 20.1982 3.13718 20.4377 3.37662C20.6746 3.61618 20.6746 4.00837 20.435 4.24781Z" fill="white"/>
</g>
<defs>
<clipPath id="clip0_8162_207">
<rect width="25" height="25" fill="white"/>
</clipPath>
</defs>
</svg>
