<svg width="18" height="18" viewBox="0 0 18 18" fill="none" xmlns="http://www.w3.org/2000/svg">
<g clip-path="url(#clip0_6047_1695)">
<path d="M13.7812 0H4.21875C1.8888 0 0 1.8888 0 4.21875V13.7812C0 16.1112 1.8888 18 4.21875 18H13.7812C16.1112 18 18 16.1112 18 13.7812V4.21875C18 1.8888 16.1112 0 13.7812 0Z" fill="#65AFFF"/>
<path opacity="0.45" d="M11.6392 1.75781L9.00042 5.89148H3.72656L6.36349 1.75781H11.6392Z" fill="#2E2D2D"/>
<path opacity="0.6" d="M9.00021 5.89148H14.276L11.639 1.75781H6.36328L9.00021 5.89148Z" fill="#2E2D2D"/>
<path opacity="0.8" d="M6.36349 10.0235L9.00042 5.89148L6.36349 1.75781L3.72656 5.89148L6.36349 10.0235Z" fill="#2E2D2D"/>
<path opacity="0.45" d="M6.38916 16.224L9.02792 12.0903H14.3037L11.6648 16.224H6.38916Z" fill="#2E2D2D"/>
<path opacity="0.6" d="M9.02771 12.0903H3.75195L6.38888 16.224H11.6647L9.02778 12.0903H9.02771Z" fill="#2E2D2D"/>
<path opacity="0.8" d="M11.6648 7.95837L9.02783 12.0904L11.6648 16.2241L14.3035 12.0904L11.6648 7.95837Z" fill="#2E2D2D"/>
</g>
<defs>
<clipPath id="clip0_6047_1695">
<rect width="18" height="18" fill="white"/>
</clipPath>
</defs>
</svg>
