<svg width="40" height="38" viewBox="0 0 40 38" fill="none" xmlns="http://www.w3.org/2000/svg">
<path d="M20.0001 1.18677C19.3126 1.18677 18.7501 2.25032 18.7501 3.56177C18.7501 4.1904 18.8829 4.79306 19.1173 5.23688C18.7501 5.25247 18.4142 5.32298 18.047 5.41724V6.5936C19.3829 6.41399 20.711 6.42216 21.9532 6.5936V5.41724C21.6017 5.31704 21.2188 5.26063 20.8829 5.23688C21.1173 4.79306 21.2501 4.1904 21.2501 3.56177C21.2501 2.25032 20.6876 1.18677 20.0001 1.18677ZM6.73682 6.4036C6.24854 6.86747 6.64385 7.99337 7.61963 8.9211C8.09385 9.36642 8.63291 9.70782 9.13291 9.86368C8.88291 10.1234 8.69541 10.3981 8.50791 10.7098L9.39072 11.541C10.1642 10.5465 11.1017 9.65587 12.1485 8.9211L11.2735 8.08243C10.9454 8.24571 10.6485 8.46837 10.3829 8.67618C10.2188 8.20118 9.85947 7.68907 9.39072 7.24376C8.76572 6.78286 7.47275 5.7297 6.73682 6.4036ZM30.6095 7.24228C30.1407 7.68907 29.7813 8.20118 29.6173 8.67618C29.3438 8.43868 29.0548 8.26056 28.7267 8.08243L27.8517 8.9211C28.8985 9.65587 29.836 10.5465 30.6095 11.541L31.4923 10.7098C31.3204 10.3981 31.086 10.116 30.8673 9.86368C31.3595 9.7004 31.8985 9.36642 32.3673 8.9211C33.3438 7.99337 33.7423 6.86599 33.2501 6.40286C32.4767 5.81876 31.0626 6.81997 30.6095 7.24228ZM19.4923 7.8004C16.6173 7.91915 14.0079 9.01017 12.0235 10.7395C11.7657 10.9695 11.5079 11.207 11.3048 11.4223C9.48447 13.3074 8.33603 15.7863 8.21103 18.525C8.21103 18.859 8.19541 19.2004 8.21885 19.4899C8.33603 22.2211 9.48447 24.7 11.3048 26.5852C11.547 26.8227 11.8048 27.0676 12.0235 27.268C14.0079 28.9899 16.6173 30.0809 19.4923 30.1996H19.5079C19.8282 30.2145 20.1876 30.1996 20.5079 30.1996C23.3829 30.0809 25.9923 28.9899 27.9767 27.2606C28.2345 27.0305 28.4923 26.793 28.6954 26.5777C30.5157 24.6926 31.6642 22.2137 31.7892 19.4824V19.4676C31.8048 19.1559 31.7892 18.8219 31.7892 18.5176C31.6642 15.7863 30.5157 13.3074 28.6954 11.4223C28.4532 11.1774 28.2032 10.9324 27.9767 10.7395C25.9923 9.01017 23.3829 7.91915 20.5079 7.8004C20.1563 7.78556 19.797 7.8004 19.4923 7.8004ZM20.0001 8.59454C20.3438 8.59454 20.6251 8.86173 20.6251 9.18829C20.6251 9.51485 20.3438 9.78204 20.0001 9.78204C19.6563 9.78204 19.3751 9.51485 19.3751 9.18829C19.3751 8.86173 19.6563 8.59454 20.0001 8.59454ZM20.5392 10.7024C22.547 10.8211 24.3751 11.5781 25.797 12.7731C26.0626 13.0031 26.3204 13.2406 26.5548 13.493C27.8126 14.8438 28.6095 16.5805 28.7345 18.4953C28.7657 18.8367 28.7345 19.1781 28.7345 19.5121C28.6095 21.4195 27.8126 23.1563 26.5548 24.507C26.3126 24.7594 26.0626 25.0043 25.797 25.227C24.3751 26.4219 22.547 27.1789 20.5313 27.2977C20.172 27.3051 19.8126 27.3274 19.461 27.2977C17.4532 27.1789 15.6251 26.4219 14.211 25.227H14.2032C13.9376 25.0043 13.6876 24.7594 13.4532 24.507C12.1954 23.1637 11.3907 21.427 11.2657 19.5121C11.2579 19.1707 11.2345 18.8367 11.2657 18.5027C11.3048 16.5879 12.3048 14.7547 13.4454 13.493C13.6876 13.2406 13.9376 12.9957 14.2032 12.7731C15.6251 11.5781 17.4532 10.8211 19.4688 10.7024C19.8282 10.6727 20.1876 10.7024 20.5392 10.7024ZM13.1329 11.6375C13.3751 11.8676 13.3751 12.2461 13.1329 12.4762C12.8907 12.7063 12.4923 12.7063 12.2501 12.4762C12.0079 12.2461 12.0079 11.8676 12.2501 11.6375C12.5235 11.4223 12.8907 11.4223 13.1329 11.6375ZM27.7501 11.6375C27.9923 11.8676 27.9923 12.2461 27.7501 12.4762C27.5079 12.7063 27.1095 12.7063 26.8673 12.4762C26.6251 12.2461 26.6251 11.8676 26.8673 11.6375C27.1407 11.4223 27.5079 11.4223 27.7501 11.6375ZM18.7501 12.1199V12.7656C18.9454 13.0031 19.0938 13.1738 19.3595 13.2703C19.3048 14.1906 19.2345 15.1332 19.1407 16.0684C19.7188 15.9274 20.3282 15.9199 20.8673 16.0758C20.7735 15.1332 20.6954 14.1906 20.6407 13.2629C21.2579 13.107 21.2501 12.6246 21.2501 12.1199C20.3907 11.9938 19.547 12.0012 18.7501 12.1199ZM15.7579 13.2926C15.0782 13.7527 14.4767 14.3242 13.9923 14.9699L14.4767 15.4301C14.7892 15.4672 15.0235 15.4895 15.2813 15.3781C15.9298 16.0684 16.5782 16.7809 17.211 17.5082C17.5001 17.0258 17.922 16.625 18.4376 16.3504C17.6642 15.7492 16.9142 15.1332 16.1876 14.5172C16.3282 14.2871 16.2892 14.0199 16.2423 13.7527L15.7579 13.2926ZM24.2423 13.2926L23.7579 13.7527C23.7032 14.0496 23.6954 14.2649 23.8048 14.5172C23.086 15.1332 22.3282 15.7492 21.5626 16.3504C22.0704 16.625 22.4923 17.0258 22.7813 17.5156C23.4142 16.7809 24.0704 16.0684 24.711 15.3781C24.961 15.5043 25.2345 15.4746 25.5157 15.4301L26.0001 14.9699C25.5157 14.3242 24.922 13.7527 24.2423 13.2926ZM33.0548 17.1445C33.2501 18.4137 33.2345 19.6754 33.0548 20.8555H34.297C34.4142 20.5215 34.4532 20.1578 34.4767 19.8387C34.9454 20.0613 35.586 20.1875 36.2501 20.1875C37.6329 20.1875 38.7501 19.6531 38.7501 19C38.7501 18.3469 37.6329 17.8125 36.2501 17.8125C35.586 17.8125 34.9454 17.9387 34.4767 18.1613C34.4688 17.8125 34.3985 17.4934 34.297 17.1445H33.0548ZM5.70557 17.152C5.6001 17.4859 5.54072 17.8348 5.51807 18.1613C5.04775 17.9387 4.4126 17.8199 3.75244 17.8199C2.37197 17.8199 1.25244 18.3543 1.25244 19.0074C1.25244 19.6606 2.37197 20.1949 3.75244 20.1949C4.41494 20.1949 5.0501 20.0688 5.51807 19.8461C5.52978 20.1949 5.60557 20.5141 5.70557 20.8629H6.93994C6.754 19.5938 6.74463 18.332 6.93994 17.152H5.70557ZM20.0001 17.293C18.9923 17.293 18.2032 18.05 18.2032 19C18.2032 19.95 18.9923 20.707 20.0001 20.707C21.0001 20.707 21.797 19.95 21.797 19C21.797 18.05 21.0001 17.293 20.0001 17.293ZM26.5626 17.8125C26.3126 17.9981 26.1329 18.1391 26.0313 18.3914C25.0626 18.3395 24.0704 18.2727 23.086 18.1836C23.2345 18.7402 23.2345 19.3117 23.086 19.8238C24.0704 19.7348 25.0548 19.6606 26.0313 19.6086C26.1095 19.8684 26.3282 20.0317 26.5626 20.1875H27.2423C27.3751 19.3711 27.3673 18.5695 27.2423 17.8125H26.5626ZM12.7579 17.8199C12.6251 18.6289 12.6407 19.4379 12.7579 20.1949H13.4376C13.6798 20.0094 13.8751 19.8758 13.961 19.616C14.9376 19.6606 15.922 19.7348 16.9142 19.8238C16.7579 19.2672 16.7579 18.6957 16.9063 18.1836C15.922 18.2727 14.9298 18.3395 13.961 18.3914C13.8907 18.1317 13.6642 17.9684 13.4376 17.8199H12.7579ZM30.3282 18.4063C30.672 18.4063 30.9532 18.6734 30.9532 19C30.9532 19.3266 30.672 19.5938 30.3282 19.5938C29.9845 19.5938 29.7032 19.3266 29.7032 19C29.7032 18.6734 29.9845 18.4063 30.3282 18.4063ZM9.67197 18.4137C10.0157 18.4137 10.297 18.6809 10.297 19.0074C10.297 19.334 10.0157 19.6012 9.67197 19.6012C9.32822 19.6012 9.04697 19.334 9.04697 19.0074C9.04697 18.6809 9.32822 18.4137 9.67197 18.4137ZM22.7892 20.4918C22.5001 20.9742 22.0782 21.375 21.5626 21.6496C22.336 22.2508 23.086 22.8668 23.8126 23.4828C23.672 23.7129 23.711 23.9801 23.7579 24.2473L24.2423 24.7074C24.922 24.2473 25.5235 23.6758 26.0079 23.0301L25.5235 22.5699C25.211 22.5328 24.9767 22.5106 24.7188 22.6219C24.0704 21.9317 23.422 21.2192 22.7892 20.4918ZM17.211 20.4918C16.5782 21.2192 15.9298 21.9317 15.2813 22.6219C15.0392 22.4883 14.7579 22.5254 14.4845 22.5699L13.9923 23.0301C14.4767 23.6832 15.0782 24.2547 15.7657 24.7074L16.2501 24.2473C16.2892 23.9504 16.3126 23.7277 16.1954 23.4828C16.922 22.8668 17.672 22.2508 18.4376 21.6496C17.9298 21.375 17.5001 20.9742 17.211 20.4918ZM19.1329 21.9242C19.2267 22.8668 19.3048 23.8094 19.3595 24.7371C19.086 24.7965 18.9063 25.0192 18.7501 25.2344V25.8801C19.6095 26.0063 20.4532 25.9988 21.2501 25.8801V25.2344C21.0548 24.9969 20.9063 24.8262 20.6407 24.7297C20.6954 23.8094 20.7657 22.8668 20.8595 21.9317C20.2579 22.0281 19.6251 22.0578 19.1329 21.9242ZM13.1407 25.5238C13.3829 25.7539 13.3829 26.1324 13.1407 26.3625C12.8985 26.5926 12.5001 26.5926 12.2579 26.3625C12.0157 26.1324 12.0157 25.7539 12.2579 25.5238C12.5313 25.3012 12.8985 25.3012 13.1407 25.5238ZM27.7501 25.5238C27.9923 25.7539 27.9923 26.1324 27.7501 26.3625C27.5079 26.5926 27.1095 26.5926 26.8673 26.3625C26.6251 26.1324 26.6251 25.7539 26.8673 25.5238C27.1407 25.3012 27.5157 25.3012 27.7501 25.5238ZM30.6095 26.459C29.836 27.4535 28.8985 28.3442 27.8517 29.0789L28.7267 29.9176C29.0548 29.7543 29.3517 29.5317 29.6173 29.3238C29.7813 29.7988 30.1407 30.3109 30.6095 30.7563C31.586 31.684 32.7657 32.0551 33.2579 31.5949C33.7423 31.1274 33.3517 30.0067 32.3751 29.0789C31.9063 28.6336 31.3673 28.2922 30.8673 28.1363C31.1173 27.8766 31.3048 27.602 31.4923 27.2902L30.6095 26.459ZM9.39072 26.459L8.51572 27.2902C8.69541 27.5945 8.91416 27.8988 9.14072 28.1363C8.64072 28.2922 8.10166 28.6336 7.62744 29.0789C6.65322 30.0067 6.25869 31.1274 6.74463 31.5949C7.23213 32.0625 8.42197 31.684 9.39853 30.7563C9.86728 30.3109 10.2267 29.7988 10.3907 29.3238C10.6642 29.5613 10.9532 29.7395 11.2813 29.9176L12.1563 29.0863C11.1017 28.3442 10.172 27.4609 9.39072 26.459ZM20.0001 28.218C20.3438 28.218 20.6251 28.4852 20.6251 28.8117C20.6251 29.1383 20.3438 29.4055 20.0001 29.4055C19.6563 29.4055 19.3751 29.1383 19.3751 28.8117C19.3751 28.4852 19.6563 28.218 20.0001 28.218ZM18.047 31.4094V32.582C18.3985 32.6859 18.7813 32.7379 19.1173 32.7602C18.8829 33.2055 18.7501 33.8067 18.7501 34.4375C18.7501 35.7512 19.3126 36.8125 20.0001 36.8125C20.6876 36.8125 21.2501 35.7512 21.2501 34.4375C21.2501 33.8067 21.1173 33.2055 20.8829 32.7602C21.2501 32.7453 21.586 32.6785 21.9532 32.582V31.402C20.6173 31.5875 19.2892 31.5801 18.047 31.4094Z" fill="black"/>
</svg>
