<svg width="18" height="18" viewBox="0 0 18 18" fill="none" xmlns="http://www.w3.org/2000/svg">
<path d="M3.75 6.75V15.75H0.75V6.75H3.75ZM6.75 15.75C6.35218 15.75 5.97064 15.592 5.68934 15.3107C5.40804 15.0294 5.25 14.6478 5.25 14.25V6.75C5.25 6.3375 5.415 5.9625 5.6925 5.6925L10.6275 0.75L11.4225 1.545C11.625 1.7475 11.7525 2.025 11.7525 2.3325L11.73 2.5725L11.0175 6H15.75C16.1478 6 16.5294 6.15804 16.8107 6.43934C17.092 6.72064 17.25 7.10218 17.25 7.5V9C17.25 9.195 17.2125 9.375 17.145 9.5475L14.88 14.835C14.655 15.375 14.1225 15.75 13.5 15.75H6.75ZM6.75 14.25H13.5225L15.75 9V7.5H9.1575L10.005 3.51L6.75 6.7725V14.25Z" fill="#47D16C"/>
<path d="M7.17627 7.0885C7.17627 6.72265 7.33481 6.65493 7.63779 6.47314" stroke="#47D16C" stroke-width="3" stroke-linecap="round"/>
<path d="M9.33013 4.01172C9.28789 4.56079 9.12078 6.39448 8.63785 6.78083C8.37436 6.99162 8.4071 8.74812 8.4071 9.08841C8.4071 9.56846 8.51371 10.8108 8.17634 11.1482C8.1112 11.2133 8.04233 10.5044 8.0225 10.4131C7.9643 10.1454 7.94558 9.90849 7.94558 9.6354C7.94558 9.32279 7.73233 8.44597 7.64645 8.74655C7.42576 9.51894 7.79174 10.4459 7.79174 11.2422C7.79174 11.4779 7.98239 13.1185 8.06523 13.054C8.79484 12.4866 10.7521 13.0882 11.5608 13.0882C11.8412 13.0882 12.1271 13.1047 12.4069 13.0882C12.6332 13.0749 12.7135 12.4067 12.8684 12.2336C13.2808 11.7727 13.6352 10.9815 13.8 10.4046C13.9268 9.96092 14.2274 9.46333 14.5607 9.08841C15.2733 8.2867 13.6721 8.93458 13.4838 8.93458C12.9533 8.93458 12.452 9.08841 11.8685 9.08841C11.6419 9.08841 11.4429 8.79783 11.2531 8.79783C11.2178 8.79783 11.3345 9.65033 11.407 9.78069C11.7475 10.3936 11.3311 10.9345 10.7147 10.9345C10.3616 10.9345 9.83701 11.3506 9.48397 11.7037" stroke="#47D16C" stroke-width="3" stroke-linecap="round"/>
<path d="M9.17627 8.16541C10.215 8.16541 11.0174 8.78076 12.0992 8.78076" stroke="#47D16C" stroke-width="3" stroke-linecap="round"/>
<path d="M6.86865 14.0113C6.98521 13.9967 7.40809 13.3939 7.48401 13.2421" stroke="#47D16C" stroke-width="3" stroke-linecap="round"/>
</svg>
