<svg width="18" height="18" viewBox="0 0 18 18" fill="none" xmlns="http://www.w3.org/2000/svg">
<path d="M14.25 11.25V2.25H17.25V11.25H14.25ZM11.25 2.25C11.6478 2.25 12.0294 2.40804 12.3107 2.68934C12.592 2.97064 12.75 3.35218 12.75 3.75V11.25C12.75 11.6625 12.585 12.0375 12.3075 12.3075L7.3725 17.25L6.5775 16.455C6.375 16.2525 6.2475 15.975 6.2475 15.66L6.27 15.4275L6.9825 12H2.25C1.85218 12 1.47064 11.842 1.18934 11.5607C0.908035 11.2794 0.75 10.8978 0.75 10.5V9C0.75 8.805 0.7875 8.625 0.855 8.4525L3.12 3.165C3.345 2.625 3.8775 2.25 4.5 2.25H11.25ZM11.25 3.75H4.4775L2.25 9V10.5H8.835L7.9875 14.49L11.25 11.2275V3.75Z" fill="#FD0100"/>
<path d="M2.94238 9.55C3.51954 9.03697 3.51953 8.28925 3.87397 7.60991C4.21141 6.96313 4.40126 6.29901 4.78845 5.66983C5.13528 5.10624 5.37416 5.39634 6.09609 5.39634C6.92903 5.39634 8.62093 5.71002 9.40363 5.36215C10.0252 5.08589 7.72334 4.95892 7.41227 4.94336C6.9833 4.92192 5.34531 5.16015 6.48069 4.90063C7.31086 4.71088 8.18123 4.78098 9.03613 4.78098C9.42882 4.78098 10.3267 4.55696 10.3267 5.08866C10.3267 5.65851 10.1048 5.96117 9.94207 6.48176C9.70292 7.24704 9.71131 8.12989 9.71131 8.93464C9.71131 9.33762 9.92972 9.41752 10.0104 9.78075C10.0897 10.1375 9.88151 10.3488 9.86515 10.6269C9.83181 11.1937 9.45258 12.0464 9.17287 12.5499C9.01409 12.8357 8.90869 13.2619 8.94211 12.6268C8.9624 12.2413 9.16834 11.5223 9.32671 11.1739C9.46687 10.8655 9.83474 9.7418 9.52328 9.43034C9.23842 9.14548 8.94524 9.65443 9.08741 9.15685C9.18323 8.82148 8.51805 8.92339 8.32676 8.93464C7.79851 8.96571 7.16413 9.08848 6.55761 9.08848C5.8238 9.08848 5.40381 9.68349 5.40381 8.7808C5.40381 8.02967 6.41086 8.08143 6.78836 7.70392C7.2176 7.27469 7.7087 6.93473 8.32676 6.93473" stroke="#FD0100" stroke-width="3" stroke-linecap="round"/>
<path d="M5.40399 10.1653C5.15969 10.1653 3.64592 10.279 3.79723 9.92598C4.03459 9.37213 4.17328 9.015 4.17328 8.39614C4.17328 8.01237 4.39841 7.34823 4.51514 6.96885C4.69988 6.36847 4.78864 5.87817 4.78864 5.24243" stroke="#FD0100" stroke-width="3" stroke-linecap="round"/>
</svg>
