<svg width="146" height="9" viewBox="0 0 146 9" fill="none" xmlns="http://www.w3.org/2000/svg">
<path d="M1.76836 6.26887C1.45515 6.3432 1.11713 6.37811 0.754317 6.3736C0.694197 6.37352 0.63417 6.3625 0.579876 6.34158C0.525581 6.32066 0.478805 6.29053 0.443944 6.25402C0.272018 6.07419 0.163533 5.87268 0.118489 5.64949C0.101924 5.56207 0.141372 5.49172 0.236834 5.43845C0.680366 5.18923 1.20284 5.00639 1.80425 4.88991C1.89861 4.87237 1.96079 4.83053 1.99079 4.76437C2.10855 4.50241 2.37878 4.3197 2.80148 4.21626C6.87176 3.22107 10.3879 2.63166 13.3501 2.44803C15.7724 2.29885 18.3033 2.25804 20.7745 2.10454C26.1489 1.77085 31.4532 1.43102 36.6875 1.08507C38.6582 0.955127 40.5756 0.915099 42.4398 0.964987C44.2012 1.01305 45.8353 1.02777 47.3423 1.00915C49.548 0.982886 51.6745 0.893804 53.8262 1.03691C55.0339 1.11678 56.3177 1.12306 57.6776 1.05574C58.8792 0.997518 60.2477 0.969651 61.7831 0.972145C72.6555 0.991928 83.5302 1.21611 94.4071 1.64469C94.5076 1.64918 94.5999 1.63289 94.6838 1.59582C95.0323 1.44145 95.4238 1.38257 95.8585 1.41916C98.7669 1.66501 101.681 1.91139 104.589 2.05833C105.198 2.08866 105.824 2.14777 106.468 2.23564C108.09 2.45629 109.883 2.61967 111.85 2.72577C113.057 2.79275 114.052 3.18287 115.206 3.28379C118.393 3.56261 121.528 3.81324 124.642 4.26199C125.932 4.44787 127.27 4.60294 128.658 4.72719C130.024 4.85103 131.425 5.12626 132.732 5.4168C132.85 5.44404 132.974 5.44822 133.091 5.42888C133.496 5.36118 133.863 5.3768 134.192 5.47574C135.038 5.73461 135.899 5.68099 136.776 5.82651C138.524 6.11703 140.182 6.3602 141.749 6.55604C142.331 6.62995 142.936 6.7488 143.564 6.91259C144.14 7.06472 144.76 7.16631 145.426 7.21736C145.61 7.23063 145.705 7.30339 145.709 7.43562L145.712 7.5132C145.713 7.53735 145.702 7.56047 145.679 7.57802C145.657 7.59556 145.626 7.60626 145.591 7.608C145.149 7.63238 144.731 7.6266 144.337 7.59067C143.45 7.50879 142.558 7.4143 141.662 7.30719C140.903 7.21644 140.043 7.19283 139.083 7.23635C138.939 7.2424 138.811 7.21252 138.697 7.14672C138.609 7.09458 138.509 7.06645 138.396 7.06232C137.271 7.02412 136.238 6.86777 135.295 6.5933C135.166 6.55471 135.089 6.58387 135.067 6.68077C134.943 7.19868 136.867 7.48524 137.402 7.52349C137.659 7.54307 137.923 7.61205 138.195 7.73044C138.297 7.77368 138.398 7.78039 138.499 7.75058C138.661 7.70452 138.747 7.68415 138.931 7.7239C140.372 8.02192 141.852 8.26026 143.37 8.43891C143.773 8.48568 144.151 8.57105 144.504 8.69502C144.682 8.75647 144.675 8.78669 144.483 8.78569C143.171 8.77545 141.958 8.65426 140.844 8.42213C140.202 8.28857 139.5 8.20495 138.738 8.17125C137.208 8.10192 135.597 7.94018 133.904 7.68603C132.474 7.47065 131.062 7.28617 129.667 7.1326C126.933 6.8332 124.26 6.49187 121.482 6.24452C118.541 5.98511 115.676 5.73227 112.579 5.56237C110.377 5.44066 108.084 5.21856 105.886 5.09071C100.481 4.77551 95.9198 4.52402 92.2012 4.33626C82.7451 3.85859 73.2575 3.60101 63.7387 3.56351C55.3291 3.53136 46.8831 3.7783 38.4005 4.30434C29.6095 4.84926 17.8991 5.79434 3.26912 7.13957C2.92335 7.17094 2.56947 7.15646 2.20751 7.09613C2.15092 7.08667 2.09822 7.0664 2.05531 7.03759C2.0124 7.00879 1.98096 6.97258 1.9645 6.93301C1.88255 6.73955 1.86882 6.55063 1.92329 6.36625C1.94977 6.27112 1.89813 6.23866 1.76836 6.26887ZM134.514 6.66894C134.518 6.61689 134.494 6.56443 134.445 6.52309C134.397 6.48175 134.328 6.45493 134.255 6.44852C134.181 6.4421 134.109 6.45663 134.054 6.4889C133.999 6.52117 133.966 6.56854 133.961 6.62059C133.957 6.67263 133.981 6.7251 134.03 6.76643C134.079 6.80777 134.147 6.8346 134.22 6.84101C134.294 6.84742 134.366 6.83289 134.421 6.80063C134.476 6.76836 134.509 6.72099 134.514 6.66894Z" fill="#5A4BDA"/>
</svg>
