<svg width="32" height="32" viewBox="0 0 32 32" fill="none" xmlns="http://www.w3.org/2000/svg">
<path d="M9.15698 24.744L5.25098 24.927C5.82898 19.674 10.281 15.587 15.688 15.587H16.313C21.727 15.587 26.185 19.686 26.752 24.95L22.375 24.744V29.931H9.15698V24.744Z" fill="url(#paint0_radial_8207_1169)"/>
<path d="M9.15698 24.744L5.25098 24.927C5.82898 19.674 10.281 15.587 15.688 15.587H16.313C21.727 15.587 26.185 19.686 26.752 24.95L22.375 24.744V29.931H9.15698V24.744Z" fill="url(#paint1_radial_8207_1169)"/>
<path d="M9.15698 24.744L5.25098 24.927C5.82898 19.674 10.281 15.587 15.688 15.587H16.313C21.727 15.587 26.185 19.686 26.752 24.95L22.375 24.744V29.931H9.15698V24.744Z" fill="url(#paint2_linear_8207_1169)"/>
<path d="M15.988 12.682H15.987C14.8211 12.682 13.876 13.6271 13.876 14.793V16.599C13.876 17.7649 14.8211 18.71 15.987 18.71H15.988C17.1538 18.71 18.099 17.7649 18.099 16.599V14.793C18.099 13.6271 17.1538 12.682 15.988 12.682Z" fill="url(#paint3_radial_8207_1169)"/>
<path d="M22.925 17.9301C25.0779 19.6727 26.4538 22.1964 26.7521 24.9501L22.925 24.7701V17.9301Z" fill="url(#paint4_radial_8207_1169)"/>
<path d="M22.925 17.9301C25.0779 19.6727 26.4538 22.1964 26.7521 24.9501L22.925 24.7701V17.9301Z" fill="url(#paint5_linear_8207_1169)"/>
<path d="M5.25098 24.9271L9.09798 24.7671L9.15698 24.9501H9.18798V17.8401C8.09423 18.701 7.18281 19.771 6.50687 20.9877C5.83094 22.2045 5.40401 23.5436 5.25098 24.9271Z" fill="url(#paint6_radial_8207_1169)"/>
<path d="M5.25098 24.9271L9.09798 24.7671L9.15698 24.9501H9.18798V17.8401C8.09423 18.701 7.18281 19.771 6.50687 20.9877C5.83094 22.2045 5.40401 23.5436 5.25098 24.9271Z" fill="url(#paint7_radial_8207_1169)"/>
<g filter="url(#filter0_i_8207_1169)">
<path d="M26.3751 28.5251C26.9751 27.4751 26.8281 25.7131 26.7501 24.9281L22.8121 24.7591C22.3991 24.9721 21.2861 24.8481 20.7811 24.7591L11.8831 23.3531C11.2661 23.2361 9.78708 23.1221 9.11008 23.4861C8.34408 23.8981 8.11008 24.6791 8.17208 25.0641C12.4431 26.5951 20.8041 29.6271 21.9291 29.8771C23.7491 30.1891 25.6251 29.8371 26.3751 28.5251Z" fill="url(#paint8_radial_8207_1169)"/>
</g>
<path d="M26.3751 28.5251C26.9751 27.4751 26.8281 25.7131 26.7501 24.9281L22.8121 24.7591C22.3991 24.9721 21.2861 24.8481 20.7811 24.7591L11.8831 23.3531C11.2661 23.2361 9.78708 23.1221 9.11008 23.4861C8.34408 23.8981 8.11008 24.6791 8.17208 25.0641C12.4431 26.5951 20.8041 29.6271 21.9291 29.8771C23.7491 30.1891 25.6251 29.8371 26.3751 28.5251Z" fill="url(#paint9_radial_8207_1169)"/>
<path d="M26.3751 28.5251C26.9751 27.4751 26.8281 25.7131 26.7501 24.9281L22.8121 24.7591C22.3991 24.9721 21.2861 24.8481 20.7811 24.7591L11.8831 23.3531C11.2661 23.2361 9.78708 23.1221 9.11008 23.4861C8.34408 23.8981 8.11008 24.6791 8.17208 25.0641C12.4431 26.5951 20.8041 29.6271 21.9291 29.8771C23.7491 30.1891 25.6251 29.8371 26.3751 28.5251Z" fill="url(#paint10_radial_8207_1169)"/>
<path d="M26.3751 28.5251C26.9751 27.4751 26.8281 25.7131 26.7501 24.9281L22.8121 24.7591C22.3991 24.9721 21.2861 24.8481 20.7811 24.7591L11.8831 23.3531C11.2661 23.2361 9.78708 23.1221 9.11008 23.4861C8.34408 23.8981 8.11008 24.6791 8.17208 25.0641C12.4431 26.5951 20.8041 29.6271 21.9291 29.8771C23.7491 30.1891 25.6251 29.8371 26.3751 28.5251Z" fill="url(#paint11_radial_8207_1169)"/>
<g filter="url(#filter1_i_8207_1169)">
<path d="M5.62505 28.525C5.02505 27.475 5.17205 25.713 5.25005 24.928L9.18805 24.759C9.60005 24.972 10.7141 24.848 11.2191 24.759L20.8911 23.197C21.5081 23.08 22.3391 23.02 23.0161 23.385C23.7441 23.777 23.7161 24.35 23.6581 24.736C23.6557 24.7535 23.6485 24.77 23.6374 24.7838C23.6263 24.7975 23.6117 24.808 23.5951 24.814C19.3091 26.354 11.1911 29.628 10.0711 29.877C8.25105 30.189 6.37505 29.837 5.62505 28.525Z" fill="url(#paint12_radial_8207_1169)"/>
<path d="M5.62505 28.525C5.02505 27.475 5.17205 25.713 5.25005 24.928L9.18805 24.759C9.60005 24.972 10.7141 24.848 11.2191 24.759L20.8911 23.197C21.5081 23.08 22.3391 23.02 23.0161 23.385C23.7441 23.777 23.7161 24.35 23.6581 24.736C23.6557 24.7535 23.6485 24.77 23.6374 24.7838C23.6263 24.7975 23.6117 24.808 23.5951 24.814C19.3091 26.354 11.1911 29.628 10.0711 29.877C8.25105 30.189 6.37505 29.837 5.62505 28.525Z" fill="url(#paint13_linear_8207_1169)"/>
</g>
<g filter="url(#filter2_i_8207_1169)">
<path d="M11.2141 12.2591C12.1336 12.2591 12.8791 11.5136 12.8791 10.5941C12.8791 9.67452 12.1336 8.92908 11.2141 8.92908C10.2945 8.92908 9.54907 9.67452 9.54907 10.5941C9.54907 11.5136 10.2945 12.2591 11.2141 12.2591Z" fill="url(#paint14_radial_8207_1169)"/>
</g>
<g filter="url(#filter3_f_8207_1169)">
<path d="M11.2142 11.5861C11.762 11.5861 12.2062 11.1419 12.2062 10.5941C12.2062 10.0462 11.762 9.60205 11.2142 9.60205C10.6663 9.60205 10.2222 10.0462 10.2222 10.5941C10.2222 11.1419 10.6663 11.5861 11.2142 11.5861Z" fill="url(#paint15_linear_8207_1169)"/>
</g>
<g filter="url(#filter4_i_8207_1169)">
<path d="M20.7011 12.2591C21.6207 12.2591 22.3661 11.5136 22.3661 10.5941C22.3661 9.67452 21.6207 8.92908 20.7011 8.92908C19.7816 8.92908 19.0361 9.67452 19.0361 10.5941C19.0361 11.5136 19.7816 12.2591 20.7011 12.2591Z" fill="url(#paint16_linear_8207_1169)"/>
<path d="M20.7011 12.2591C21.6207 12.2591 22.3661 11.5136 22.3661 10.5941C22.3661 9.67452 21.6207 8.92908 20.7011 8.92908C19.7816 8.92908 19.0361 9.67452 19.0361 10.5941C19.0361 11.5136 19.7816 12.2591 20.7011 12.2591Z" fill="url(#paint17_radial_8207_1169)"/>
</g>
<g filter="url(#filter5_f_8207_1169)">
<path d="M20.701 11.5861C21.2489 11.5861 21.693 11.1419 21.693 10.5941C21.693 10.0462 21.2489 9.60205 20.701 9.60205C20.1531 9.60205 19.709 10.0462 19.709 10.5941C19.709 11.1419 20.1531 11.5861 20.701 11.5861Z" fill="#D79E81"/>
<path d="M20.701 11.5861C21.2489 11.5861 21.693 11.1419 21.693 10.5941C21.693 10.0462 21.2489 9.60205 20.701 9.60205C20.1531 9.60205 19.709 10.0462 19.709 10.5941C19.709 11.1419 20.1531 11.5861 20.701 11.5861Z" fill="url(#paint18_radial_8207_1169)"/>
<path d="M20.701 11.5861C21.2489 11.5861 21.693 11.1419 21.693 10.5941C21.693 10.0462 21.2489 9.60205 20.701 9.60205C20.1531 9.60205 19.709 10.0462 19.709 10.5941C19.709 11.1419 20.1531 11.5861 20.701 11.5861Z" fill="url(#paint19_radial_8207_1169)"/>
</g>
<g filter="url(#filter6_i_8207_1169)">
<path d="M10.8632 9.98299C10.8795 9.98421 10.8958 9.98487 10.9122 9.98498C10.9122 9.98498 10.8582 9.13399 10.8052 8.54899C10.8052 8.28298 10.9122 7.96399 11.1262 7.80399L11.2862 7.64399C11.5542 7.43199 11.6612 7.11299 11.6612 6.79399V5.94299C11.6612 5.67699 11.8212 5.46298 12.0892 5.41098C12.7312 5.25098 14.0682 4.98499 15.9942 4.98499C17.9192 4.98499 19.2572 5.25098 19.8992 5.41098C20.1122 5.46398 20.3262 5.67699 20.3262 5.94299V6.79299C20.3262 7.11299 20.4872 7.43199 20.7012 7.64499C21.2012 7.99499 21.1712 8.18799 21.1292 8.60199C21.086 9.08007 21.0504 9.55879 21.0222 10.038H21.0402L20.7752 13.985C20.6152 15.75 19.2272 16.98 17.5732 16.98H14.3722C12.6642 16.98 11.3302 15.75 11.1702 13.985L10.8632 9.98299Z" fill="url(#paint20_linear_8207_1169)"/>
<path d="M10.8632 9.98299C10.8795 9.98421 10.8958 9.98487 10.9122 9.98498C10.9122 9.98498 10.8582 9.13399 10.8052 8.54899C10.8052 8.28298 10.9122 7.96399 11.1262 7.80399L11.2862 7.64399C11.5542 7.43199 11.6612 7.11299 11.6612 6.79399V5.94299C11.6612 5.67699 11.8212 5.46298 12.0892 5.41098C12.7312 5.25098 14.0682 4.98499 15.9942 4.98499C17.9192 4.98499 19.2572 5.25098 19.8992 5.41098C20.1122 5.46398 20.3262 5.67699 20.3262 5.94299V6.79299C20.3262 7.11299 20.4872 7.43199 20.7012 7.64499C21.2012 7.99499 21.1712 8.18799 21.1292 8.60199C21.086 9.08007 21.0504 9.55879 21.0222 10.038H21.0402L20.7752 13.985C20.6152 15.75 19.2272 16.98 17.5732 16.98H14.3722C12.6642 16.98 11.3302 15.75 11.1702 13.985L10.8632 9.98299Z" fill="url(#paint21_radial_8207_1169)"/>
<path d="M10.8632 9.98299C10.8795 9.98421 10.8958 9.98487 10.9122 9.98498C10.9122 9.98498 10.8582 9.13399 10.8052 8.54899C10.8052 8.28298 10.9122 7.96399 11.1262 7.80399L11.2862 7.64399C11.5542 7.43199 11.6612 7.11299 11.6612 6.79399V5.94299C11.6612 5.67699 11.8212 5.46298 12.0892 5.41098C12.7312 5.25098 14.0682 4.98499 15.9942 4.98499C17.9192 4.98499 19.2572 5.25098 19.8992 5.41098C20.1122 5.46398 20.3262 5.67699 20.3262 5.94299V6.79299C20.3262 7.11299 20.4872 7.43199 20.7012 7.64499C21.2012 7.99499 21.1712 8.18799 21.1292 8.60199C21.086 9.08007 21.0504 9.55879 21.0222 10.038H21.0402L20.7752 13.985C20.6152 15.75 19.2272 16.98 17.5732 16.98H14.3722C12.6642 16.98 11.3302 15.75 11.1702 13.985L10.8632 9.98299Z" fill="url(#paint22_linear_8207_1169)"/>
<path d="M10.8632 9.98299C10.8795 9.98421 10.8958 9.98487 10.9122 9.98498C10.9122 9.98498 10.8582 9.13399 10.8052 8.54899C10.8052 8.28298 10.9122 7.96399 11.1262 7.80399L11.2862 7.64399C11.5542 7.43199 11.6612 7.11299 11.6612 6.79399V5.94299C11.6612 5.67699 11.8212 5.46298 12.0892 5.41098C12.7312 5.25098 14.0682 4.98499 15.9942 4.98499C17.9192 4.98499 19.2572 5.25098 19.8992 5.41098C20.1122 5.46398 20.3262 5.67699 20.3262 5.94299V6.79299C20.3262 7.11299 20.4872 7.43199 20.7012 7.64499C21.2012 7.99499 21.1712 8.18799 21.1292 8.60199C21.086 9.08007 21.0504 9.55879 21.0222 10.038H21.0402L20.7752 13.985C20.6152 15.75 19.2272 16.98 17.5732 16.98H14.3722C12.6642 16.98 11.3302 15.75 11.1702 13.985L10.8632 9.98299Z" fill="url(#paint23_radial_8207_1169)"/>
<path d="M10.8632 9.98299C10.8795 9.98421 10.8958 9.98487 10.9122 9.98498C10.9122 9.98498 10.8582 9.13399 10.8052 8.54899C10.8052 8.28298 10.9122 7.96399 11.1262 7.80399L11.2862 7.64399C11.5542 7.43199 11.6612 7.11299 11.6612 6.79399V5.94299C11.6612 5.67699 11.8212 5.46298 12.0892 5.41098C12.7312 5.25098 14.0682 4.98499 15.9942 4.98499C17.9192 4.98499 19.2572 5.25098 19.8992 5.41098C20.1122 5.46398 20.3262 5.67699 20.3262 5.94299V6.79299C20.3262 7.11299 20.4872 7.43199 20.7012 7.64499C21.2012 7.99499 21.1712 8.18799 21.1292 8.60199C21.086 9.08007 21.0504 9.55879 21.0222 10.038H21.0402L20.7752 13.985C20.6152 15.75 19.2272 16.98 17.5732 16.98H14.3722C12.6642 16.98 11.3302 15.75 11.1702 13.985L10.8632 9.98299Z" fill="url(#paint24_radial_8207_1169)"/>
</g>
<g filter="url(#filter7_i_8207_1169)">
<path d="M20.7551 4.13403L21.1821 4.34704C21.9321 4.71904 22.3591 5.57004 22.1991 6.47404L21.6101 9.50603C21.5581 9.81904 21.3501 10.03 21.0401 10.038H21.0221C21.0221 10.038 21.0751 9.13404 21.1291 8.60204C21.1721 8.17004 21.0971 8.03804 20.7011 7.64504C20.4871 7.43204 20.3271 7.11304 20.3271 6.79404V5.94303C20.3271 5.67703 20.1131 5.46303 19.8991 5.41103C19.2571 5.25103 17.9191 4.98504 15.9941 4.98504C14.0681 4.98504 12.7311 5.25103 12.0891 5.41103C11.9655 5.43295 11.854 5.49892 11.7753 5.59674C11.6966 5.69456 11.656 5.81759 11.6611 5.94303V6.79304C11.6611 7.11304 11.5541 7.43204 11.2871 7.64504L11.1271 7.80504C10.9121 7.96404 10.8051 8.28304 10.8051 8.54904C10.8591 9.13404 10.9121 9.98503 10.9121 9.98503C10.8961 9.98503 10.8791 9.98503 10.8631 9.98304C10.7185 9.97597 10.5807 9.91948 10.4727 9.82301C10.3648 9.72654 10.2933 9.59593 10.2701 9.45304L9.68207 6.42004C9.57507 5.57004 10.0021 4.71804 10.7521 4.34604L11.1801 4.13303C11.4471 3.97303 11.7141 3.76104 11.9821 3.54804L12.9451 2.53804C13.5331 2.00604 14.3891 1.84604 15.1381 2.21804C15.6731 2.37804 16.2611 2.37804 16.7961 2.21804C17.5991 1.95304 18.5081 2.16504 19.1501 2.75004L19.9521 3.54804C20.1661 3.81404 20.4331 3.97403 20.7541 4.13303" fill="#EBCC94"/>
<path d="M20.7551 4.13403L21.1821 4.34704C21.9321 4.71904 22.3591 5.57004 22.1991 6.47404L21.6101 9.50603C21.5581 9.81904 21.3501 10.03 21.0401 10.038H21.0221C21.0221 10.038 21.0751 9.13404 21.1291 8.60204C21.1721 8.17004 21.0971 8.03804 20.7011 7.64504C20.4871 7.43204 20.3271 7.11304 20.3271 6.79404V5.94303C20.3271 5.67703 20.1131 5.46303 19.8991 5.41103C19.2571 5.25103 17.9191 4.98504 15.9941 4.98504C14.0681 4.98504 12.7311 5.25103 12.0891 5.41103C11.9655 5.43295 11.854 5.49892 11.7753 5.59674C11.6966 5.69456 11.656 5.81759 11.6611 5.94303V6.79304C11.6611 7.11304 11.5541 7.43204 11.2871 7.64504L11.1271 7.80504C10.9121 7.96404 10.8051 8.28304 10.8051 8.54904C10.8591 9.13404 10.9121 9.98503 10.9121 9.98503C10.8961 9.98503 10.8791 9.98503 10.8631 9.98304C10.7185 9.97597 10.5807 9.91948 10.4727 9.82301C10.3648 9.72654 10.2933 9.59593 10.2701 9.45304L9.68207 6.42004C9.57507 5.57004 10.0021 4.71804 10.7521 4.34604L11.1801 4.13303C11.4471 3.97303 11.7141 3.76104 11.9821 3.54804L12.9451 2.53804C13.5331 2.00604 14.3891 1.84604 15.1381 2.21804C15.6731 2.37804 16.2611 2.37804 16.7961 2.21804C17.5991 1.95304 18.5081 2.16504 19.1501 2.75004L19.9521 3.54804C20.1661 3.81404 20.4331 3.97403 20.7541 4.13303" fill="url(#paint25_radial_8207_1169)"/>
<path d="M20.7551 4.13403L21.1821 4.34704C21.9321 4.71904 22.3591 5.57004 22.1991 6.47404L21.6101 9.50603C21.5581 9.81904 21.3501 10.03 21.0401 10.038H21.0221C21.0221 10.038 21.0751 9.13404 21.1291 8.60204C21.1721 8.17004 21.0971 8.03804 20.7011 7.64504C20.4871 7.43204 20.3271 7.11304 20.3271 6.79404V5.94303C20.3271 5.67703 20.1131 5.46303 19.8991 5.41103C19.2571 5.25103 17.9191 4.98504 15.9941 4.98504C14.0681 4.98504 12.7311 5.25103 12.0891 5.41103C11.9655 5.43295 11.854 5.49892 11.7753 5.59674C11.6966 5.69456 11.656 5.81759 11.6611 5.94303V6.79304C11.6611 7.11304 11.5541 7.43204 11.2871 7.64504L11.1271 7.80504C10.9121 7.96404 10.8051 8.28304 10.8051 8.54904C10.8591 9.13404 10.9121 9.98503 10.9121 9.98503C10.8961 9.98503 10.8791 9.98503 10.8631 9.98304C10.7185 9.97597 10.5807 9.91948 10.4727 9.82301C10.3648 9.72654 10.2933 9.59593 10.2701 9.45304L9.68207 6.42004C9.57507 5.57004 10.0021 4.71804 10.7521 4.34604L11.1801 4.13303C11.4471 3.97303 11.7141 3.76104 11.9821 3.54804L12.9451 2.53804C13.5331 2.00604 14.3891 1.84604 15.1381 2.21804C15.6731 2.37804 16.2611 2.37804 16.7961 2.21804C17.5991 1.95304 18.5081 2.16504 19.1501 2.75004L19.9521 3.54804C20.1661 3.81404 20.4331 3.97403 20.7541 4.13303" fill="url(#paint26_linear_8207_1169)"/>
<path d="M20.7551 4.13403L21.1821 4.34704C21.9321 4.71904 22.3591 5.57004 22.1991 6.47404L21.6101 9.50603C21.5581 9.81904 21.3501 10.03 21.0401 10.038H21.0221C21.0221 10.038 21.0751 9.13404 21.1291 8.60204C21.1721 8.17004 21.0971 8.03804 20.7011 7.64504C20.4871 7.43204 20.3271 7.11304 20.3271 6.79404V5.94303C20.3271 5.67703 20.1131 5.46303 19.8991 5.41103C19.2571 5.25103 17.9191 4.98504 15.9941 4.98504C14.0681 4.98504 12.7311 5.25103 12.0891 5.41103C11.9655 5.43295 11.854 5.49892 11.7753 5.59674C11.6966 5.69456 11.656 5.81759 11.6611 5.94303V6.79304C11.6611 7.11304 11.5541 7.43204 11.2871 7.64504L11.1271 7.80504C10.9121 7.96404 10.8051 8.28304 10.8051 8.54904C10.8591 9.13404 10.9121 9.98503 10.9121 9.98503C10.8961 9.98503 10.8791 9.98503 10.8631 9.98304C10.7185 9.97597 10.5807 9.91948 10.4727 9.82301C10.3648 9.72654 10.2933 9.59593 10.2701 9.45304L9.68207 6.42004C9.57507 5.57004 10.0021 4.71804 10.7521 4.34604L11.1801 4.13303C11.4471 3.97303 11.7141 3.76104 11.9821 3.54804L12.9451 2.53804C13.5331 2.00604 14.3891 1.84604 15.1381 2.21804C15.6731 2.37804 16.2611 2.37804 16.7961 2.21804C17.5991 1.95304 18.5081 2.16504 19.1501 2.75004L19.9521 3.54804C20.1661 3.81404 20.4331 3.97403 20.7541 4.13303" fill="url(#paint27_radial_8207_1169)"/>
<path d="M20.7551 4.13403L21.1821 4.34704C21.9321 4.71904 22.3591 5.57004 22.1991 6.47404L21.6101 9.50603C21.5581 9.81904 21.3501 10.03 21.0401 10.038H21.0221C21.0221 10.038 21.0751 9.13404 21.1291 8.60204C21.1721 8.17004 21.0971 8.03804 20.7011 7.64504C20.4871 7.43204 20.3271 7.11304 20.3271 6.79404V5.94303C20.3271 5.67703 20.1131 5.46303 19.8991 5.41103C19.2571 5.25103 17.9191 4.98504 15.9941 4.98504C14.0681 4.98504 12.7311 5.25103 12.0891 5.41103C11.9655 5.43295 11.854 5.49892 11.7753 5.59674C11.6966 5.69456 11.656 5.81759 11.6611 5.94303V6.79304C11.6611 7.11304 11.5541 7.43204 11.2871 7.64504L11.1271 7.80504C10.9121 7.96404 10.8051 8.28304 10.8051 8.54904C10.8591 9.13404 10.9121 9.98503 10.9121 9.98503C10.8961 9.98503 10.8791 9.98503 10.8631 9.98304C10.7185 9.97597 10.5807 9.91948 10.4727 9.82301C10.3648 9.72654 10.2933 9.59593 10.2701 9.45304L9.68207 6.42004C9.57507 5.57004 10.0021 4.71804 10.7521 4.34604L11.1801 4.13303C11.4471 3.97303 11.7141 3.76104 11.9821 3.54804L12.9451 2.53804C13.5331 2.00604 14.3891 1.84604 15.1381 2.21804C15.6731 2.37804 16.2611 2.37804 16.7961 2.21804C17.5991 1.95304 18.5081 2.16504 19.1501 2.75004L19.9521 3.54804C20.1661 3.81404 20.4331 3.97403 20.7541 4.13303" fill="url(#paint28_radial_8207_1169)"/>
<path d="M20.7551 4.13403L21.1821 4.34704C21.9321 4.71904 22.3591 5.57004 22.1991 6.47404L21.6101 9.50603C21.5581 9.81904 21.3501 10.03 21.0401 10.038H21.0221C21.0221 10.038 21.0751 9.13404 21.1291 8.60204C21.1721 8.17004 21.0971 8.03804 20.7011 7.64504C20.4871 7.43204 20.3271 7.11304 20.3271 6.79404V5.94303C20.3271 5.67703 20.1131 5.46303 19.8991 5.41103C19.2571 5.25103 17.9191 4.98504 15.9941 4.98504C14.0681 4.98504 12.7311 5.25103 12.0891 5.41103C11.9655 5.43295 11.854 5.49892 11.7753 5.59674C11.6966 5.69456 11.656 5.81759 11.6611 5.94303V6.79304C11.6611 7.11304 11.5541 7.43204 11.2871 7.64504L11.1271 7.80504C10.9121 7.96404 10.8051 8.28304 10.8051 8.54904C10.8591 9.13404 10.9121 9.98503 10.9121 9.98503C10.8961 9.98503 10.8791 9.98503 10.8631 9.98304C10.7185 9.97597 10.5807 9.91948 10.4727 9.82301C10.3648 9.72654 10.2933 9.59593 10.2701 9.45304L9.68207 6.42004C9.57507 5.57004 10.0021 4.71804 10.7521 4.34604L11.1801 4.13303C11.4471 3.97303 11.7141 3.76104 11.9821 3.54804L12.9451 2.53804C13.5331 2.00604 14.3891 1.84604 15.1381 2.21804C15.6731 2.37804 16.2611 2.37804 16.7961 2.21804C17.5991 1.95304 18.5081 2.16504 19.1501 2.75004L19.9521 3.54804C20.1661 3.81404 20.4331 3.97403 20.7541 4.13303" fill="url(#paint29_radial_8207_1169)"/>
</g>
<path d="M20.7551 4.13403L21.1821 4.34704C21.9321 4.71904 22.3591 5.57004 22.1991 6.47404L21.6101 9.50603C21.5581 9.81904 21.3501 10.03 21.0401 10.038H21.0221C21.0221 10.038 21.0751 9.13404 21.1291 8.60204C21.1721 8.17004 21.0971 8.03804 20.7011 7.64504C20.4871 7.43204 20.3271 7.11304 20.3271 6.79404V5.94303C20.3271 5.67703 20.1131 5.46303 19.8991 5.41103C19.2571 5.25103 17.9191 4.98504 15.9941 4.98504C14.0681 4.98504 12.7311 5.25103 12.0891 5.41103C11.9655 5.43295 11.854 5.49892 11.7753 5.59674C11.6966 5.69456 11.656 5.81759 11.6611 5.94303V6.79304C11.6611 7.11304 11.5541 7.43204 11.2871 7.64504L11.1271 7.80504C10.9121 7.96404 10.8051 8.28304 10.8051 8.54904C10.8591 9.13404 10.9121 9.98503 10.9121 9.98503C10.8961 9.98503 10.8791 9.98503 10.8631 9.98304C10.7185 9.97597 10.5807 9.91948 10.4727 9.82301C10.3648 9.72654 10.2933 9.59593 10.2701 9.45304L9.68207 6.42004C9.57507 5.57004 10.0021 4.71804 10.7521 4.34604L11.1801 4.13303C11.4471 3.97303 11.7141 3.76104 11.9821 3.54804L12.9451 2.53804C13.5331 2.00604 14.3891 1.84604 15.1381 2.21804C15.6731 2.37804 16.2611 2.37804 16.7961 2.21804C17.5991 1.95304 18.5081 2.16504 19.1501 2.75004L19.9521 3.54804C20.1661 3.81404 20.4331 3.97403 20.7541 4.13303" fill="url(#paint30_radial_8207_1169)"/>
<path d="M20.7551 4.13403L21.1821 4.34704C21.9321 4.71904 22.3591 5.57004 22.1991 6.47404L21.6101 9.50603C21.5581 9.81904 21.3501 10.03 21.0401 10.038H21.0221C21.0221 10.038 21.0751 9.13404 21.1291 8.60204C21.1721 8.17004 21.0971 8.03804 20.7011 7.64504C20.4871 7.43204 20.3271 7.11304 20.3271 6.79404V5.94303C20.3271 5.67703 20.1131 5.46303 19.8991 5.41103C19.2571 5.25103 17.9191 4.98504 15.9941 4.98504C14.0681 4.98504 12.7311 5.25103 12.0891 5.41103C11.9655 5.43295 11.854 5.49892 11.7753 5.59674C11.6966 5.69456 11.656 5.81759 11.6611 5.94303V6.79304C11.6611 7.11304 11.5541 7.43204 11.2871 7.64504L11.1271 7.80504C10.9121 7.96404 10.8051 8.28304 10.8051 8.54904C10.8591 9.13404 10.9121 9.98503 10.9121 9.98503C10.8961 9.98503 10.8791 9.98503 10.8631 9.98304C10.7185 9.97597 10.5807 9.91948 10.4727 9.82301C10.3648 9.72654 10.2933 9.59593 10.2701 9.45304L9.68207 6.42004C9.57507 5.57004 10.0021 4.71804 10.7521 4.34604L11.1801 4.13303C11.4471 3.97303 11.7141 3.76104 11.9821 3.54804L12.9451 2.53804C13.5331 2.00604 14.3891 1.84604 15.1381 2.21804C15.6731 2.37804 16.2611 2.37804 16.7961 2.21804C17.5991 1.95304 18.5081 2.16504 19.1501 2.75004L19.9521 3.54804C20.1661 3.81404 20.4331 3.97403 20.7541 4.13303" fill="url(#paint31_radial_8207_1169)"/>
<g filter="url(#filter8_f_8207_1169)">
<path d="M15.6741 10.472L14.8561 12.167C14.7551 12.516 14.9981 12.864 15.3431 12.864H16.0781C16.4231 12.864 16.6661 12.51 16.5651 12.167L16.0681 10.472C15.9611 10.097 15.7861 10.097 15.6741 10.472Z" fill="#C68378"/>
</g>
<g filter="url(#filter9_f_8207_1169)">
<path d="M15.568 10.3101L15.038 12.0041C15.0128 12.085 15.0071 12.1708 15.0213 12.2544C15.0355 12.338 15.0693 12.4171 15.1199 12.4851C15.1705 12.5532 15.2365 12.6083 15.3125 12.646C15.3884 12.6837 15.4722 12.7029 15.557 12.7021H16.341C16.4256 12.7024 16.509 12.683 16.5846 12.6452C16.6603 12.6074 16.726 12.5524 16.7765 12.4846C16.827 12.4168 16.8608 12.3381 16.8753 12.2548C16.8898 12.1715 16.8846 12.086 16.86 12.0051L16.33 10.3101C16.217 9.93408 15.687 9.93408 15.568 10.3101Z" fill="#E4AC8F"/>
<path d="M15.568 10.3101L15.038 12.0041C15.0128 12.085 15.0071 12.1708 15.0213 12.2544C15.0355 12.338 15.0693 12.4171 15.1199 12.4851C15.1705 12.5532 15.2365 12.6083 15.3125 12.646C15.3884 12.6837 15.4722 12.7029 15.557 12.7021H16.341C16.4256 12.7024 16.509 12.683 16.5846 12.6452C16.6603 12.6074 16.726 12.5524 16.7765 12.4846C16.827 12.4168 16.8608 12.3381 16.8753 12.2548C16.8898 12.1715 16.8846 12.086 16.86 12.0051L16.33 10.3101C16.217 9.93408 15.687 9.93408 15.568 10.3101Z" fill="url(#paint32_linear_8207_1169)"/>
<path d="M15.568 10.3101L15.038 12.0041C15.0128 12.085 15.0071 12.1708 15.0213 12.2544C15.0355 12.338 15.0693 12.4171 15.1199 12.4851C15.1705 12.5532 15.2365 12.6083 15.3125 12.646C15.3884 12.6837 15.4722 12.7029 15.557 12.7021H16.341C16.4256 12.7024 16.509 12.683 16.5846 12.6452C16.6603 12.6074 16.726 12.5524 16.7765 12.4846C16.827 12.4168 16.8608 12.3381 16.8753 12.2548C16.8898 12.1715 16.8846 12.086 16.86 12.0051L16.33 10.3101C16.217 9.93408 15.687 9.93408 15.568 10.3101Z" fill="url(#paint33_linear_8207_1169)"/>
<path d="M15.568 10.3101L15.038 12.0041C15.0128 12.085 15.0071 12.1708 15.0213 12.2544C15.0355 12.338 15.0693 12.4171 15.1199 12.4851C15.1705 12.5532 15.2365 12.6083 15.3125 12.646C15.3884 12.6837 15.4722 12.7029 15.557 12.7021H16.341C16.4256 12.7024 16.509 12.683 16.5846 12.6452C16.6603 12.6074 16.726 12.5524 16.7765 12.4846C16.827 12.4168 16.8608 12.3381 16.8753 12.2548C16.8898 12.1715 16.8846 12.086 16.86 12.0051L16.33 10.3101C16.217 9.93408 15.687 9.93408 15.568 10.3101Z" fill="url(#paint34_linear_8207_1169)"/>
</g>
<path d="M15.568 10.3101L15.038 12.0041C15.0128 12.085 15.0071 12.1708 15.0213 12.2544C15.0355 12.338 15.0693 12.4171 15.1199 12.4851C15.1705 12.5532 15.2365 12.6083 15.3125 12.646C15.3884 12.6837 15.4722 12.7029 15.557 12.7021H16.341C16.4256 12.7024 16.509 12.683 16.5846 12.6452C16.6603 12.6074 16.726 12.5524 16.7765 12.4846C16.827 12.4168 16.8608 12.3381 16.8753 12.2548C16.8898 12.1715 16.8846 12.086 16.86 12.0051L16.33 10.3101C16.217 9.93408 15.687 9.93408 15.568 10.3101Z" fill="url(#paint35_linear_8207_1169)"/>
<path d="M18.3302 9.16699C18.9812 9.16699 19.5312 9.61699 19.6802 10.223C19.6904 10.2634 19.6912 10.3056 19.6826 10.3464C19.674 10.3871 19.6562 10.4254 19.6305 10.4582C19.6048 10.491 19.572 10.5175 19.5345 10.5357C19.497 10.5539 19.4558 10.5632 19.4142 10.563H17.1892C17.1555 10.5629 17.1223 10.5555 17.0918 10.5412C17.0613 10.5269 17.0344 10.5061 17.0128 10.4803C16.9913 10.4545 16.9757 10.4242 16.9671 10.3917C16.9585 10.3591 16.9572 10.3251 16.9632 10.292C17.0255 9.97517 17.1958 9.68981 17.4451 9.48463C17.6945 9.27945 18.0073 9.16718 18.3302 9.16699Z" fill="white"/>
<path d="M18.1241 9.43799C18.2609 9.43821 18.3958 9.46996 18.5183 9.53078C18.6409 9.59159 18.7477 9.67984 18.8306 9.78867C18.9135 9.89749 18.9702 10.024 18.9963 10.1583C19.0224 10.2925 19.0172 10.431 18.9811 10.563H17.2621C17.2267 10.4308 17.2221 10.2923 17.2488 10.1581C17.2754 10.0239 17.3326 9.89757 17.4158 9.78895C17.499 9.68033 17.606 9.59228 17.7287 9.5316C17.8513 9.47092 17.9863 9.43923 18.1231 9.43899" fill="url(#paint36_radial_8207_1169)"/>
<path d="M17.614 10.328C17.614 10.045 17.841 9.81802 18.124 9.81802C18.212 9.81709 18.2986 9.83906 18.3755 9.88176C18.4524 9.92446 18.5169 9.98643 18.5626 10.0616C18.6083 10.1367 18.6336 10.2225 18.6362 10.3104C18.6387 10.3983 18.6183 10.4854 18.577 10.563H17.675C17.6344 10.4914 17.6127 10.4103 17.614 10.328Z" fill="black"/>
<g filter="url(#filter10_f_8207_1169)">
<path d="M18.058 9.62701C18.122 9.71101 17.989 9.81501 17.838 9.92701C17.688 10.04 17.576 10.119 17.513 10.034C17.449 9.95001 17.52 9.79001 17.671 9.67701C17.821 9.56401 17.995 9.54201 18.058 9.62701Z" fill="#C7A7A3"/>
<path d="M18.058 9.62701C18.122 9.71101 17.989 9.81501 17.838 9.92701C17.688 10.04 17.576 10.119 17.513 10.034C17.449 9.95001 17.52 9.79001 17.671 9.67701C17.821 9.56401 17.995 9.54201 18.058 9.62701Z" fill="url(#paint37_radial_8207_1169)"/>
</g>
<g filter="url(#filter11_f_8207_1169)">
<path d="M18.916 10.211C18.8897 10.037 18.8092 9.8757 18.686 9.75L18.426 10.034L18.543 10.262L18.916 10.211Z" fill="url(#paint38_linear_8207_1169)"/>
</g>
<path d="M13.563 9.16699C12.911 9.16699 12.361 9.61699 12.212 10.223C12.2017 10.2635 12.2009 10.3058 12.2095 10.3466C12.2182 10.3875 12.2361 10.4258 12.2619 10.4586C12.2877 10.4915 12.3207 10.5179 12.3583 10.536C12.3959 10.5541 12.4372 10.5634 12.479 10.563H14.703C14.7367 10.5631 14.77 10.5558 14.8006 10.5415C14.8312 10.5273 14.8583 10.5065 14.88 10.4807C14.9016 10.4548 14.9173 10.4245 14.926 10.3919C14.9346 10.3593 14.936 10.3252 14.93 10.292C14.8671 9.97543 14.6966 9.69039 14.4474 9.48531C14.1982 9.28022 13.8857 9.16775 13.563 9.16699Z" fill="white"/>
<path d="M13.769 9.43799C13.6321 9.43805 13.4971 9.46969 13.3744 9.53044C13.2517 9.5912 13.1447 9.67942 13.0617 9.78827C12.9787 9.89711 12.9219 10.0236 12.8958 10.158C12.8696 10.2924 12.8748 10.431 12.911 10.563H14.631C14.6519 10.4864 14.6626 10.4074 14.663 10.328C14.6614 10.0917 14.5666 9.86568 14.3991 9.699C14.2317 9.53232 14.0052 9.43851 13.769 9.43799Z" fill="url(#paint39_radial_8207_1169)"/>
<path d="M14.278 10.328C14.2783 10.261 14.2653 10.1945 14.2397 10.1325C14.2142 10.0705 14.1766 10.0142 14.1292 9.96679C14.0818 9.91938 14.0255 9.88182 13.9635 9.85628C13.9015 9.83075 13.835 9.81774 13.768 9.818C13.6802 9.81754 13.5939 9.83982 13.5173 9.88266C13.4407 9.92551 13.3765 9.98746 13.331 10.0625C13.2855 10.1375 13.2602 10.2231 13.2576 10.3108C13.2549 10.3985 13.2751 10.4854 13.316 10.563H14.218C14.2568 10.4907 14.2773 10.41 14.278 10.328Z" fill="black"/>
<g filter="url(#filter12_f_8207_1169)">
<path d="M14.5821 10.224C14.5821 9.93604 14.3481 9.74404 14.2851 9.68604L13.9971 9.96504L14.1741 10.325L14.5821 10.224Z" fill="url(#paint40_linear_8207_1169)"/>
</g>
<g filter="url(#filter13_f_8207_1169)">
<path d="M13.5922 9.99306C13.7816 9.89274 13.8938 9.73348 13.8429 9.63734C13.7919 9.5412 13.5972 9.54458 13.4078 9.6449C13.2184 9.74522 13.1062 9.90448 13.1572 10.0006C13.2081 10.0968 13.4029 10.0934 13.5922 9.99306Z" fill="#C7A7A3" fill-opacity="0.9"/>
<path d="M13.5922 9.99306C13.7816 9.89274 13.8938 9.73348 13.8429 9.63734C13.7919 9.5412 13.5972 9.54458 13.4078 9.6449C13.2184 9.74522 13.1062 9.90448 13.1572 10.0006C13.2081 10.0968 13.4029 10.0934 13.5922 9.99306Z" fill="url(#paint41_radial_8207_1169)"/>
</g>
<g filter="url(#filter14_f_8207_1169)">
<path d="M16.846 14.016C16.597 13.8545 16.3064 13.7685 16.0095 13.7685C15.7126 13.7685 15.4221 13.8545 15.173 14.016C15.1293 14.0452 15.0757 14.056 15.0241 14.046C14.9724 14.036 14.9268 14.0061 14.897 13.9627C14.8673 13.9192 14.8559 13.8659 14.8652 13.8141C14.8746 13.7623 14.904 13.7163 14.947 13.686C15.563 13.262 16.451 13.263 17.071 13.686C17.1141 13.7163 17.1435 13.7623 17.1528 13.8141C17.1622 13.8659 17.1508 13.9192 17.121 13.9627C17.0913 14.0061 17.0457 14.036 16.994 14.046C16.9423 14.056 16.8888 14.0452 16.845 14.016" stroke="url(#paint42_radial_8207_1169)" stroke-width="0.2" stroke-linecap="round" stroke-linejoin="round"/>
<path d="M16.846 14.016C16.597 13.8545 16.3064 13.7685 16.0095 13.7685C15.7126 13.7685 15.4221 13.8545 15.173 14.016C15.1293 14.0452 15.0757 14.056 15.0241 14.046C14.9724 14.036 14.9268 14.0061 14.897 13.9627C14.8673 13.9192 14.8559 13.8659 14.8652 13.8141C14.8746 13.7623 14.904 13.7163 14.947 13.686C15.563 13.262 16.451 13.263 17.071 13.686C17.1141 13.7163 17.1435 13.7623 17.1528 13.8141C17.1622 13.8659 17.1508 13.9192 17.121 13.9627C17.0913 14.0061 17.0457 14.036 16.994 14.046C16.9423 14.056 16.8888 14.0452 16.845 14.016" stroke="url(#paint43_radial_8207_1169)" stroke-width="0.2" stroke-linecap="round" stroke-linejoin="round"/>
</g>
<path fill-rule="evenodd" clip-rule="evenodd" d="M16.846 14.016C16.597 13.8545 16.3064 13.7685 16.0095 13.7685C15.7126 13.7685 15.4221 13.8545 15.173 14.016C15.1293 14.0452 15.0757 14.056 15.0241 14.046C14.9724 14.036 14.9268 14.0061 14.897 13.9627C14.8673 13.9192 14.8559 13.8659 14.8652 13.8141C14.8746 13.7623 14.904 13.7163 14.947 13.686C15.563 13.262 16.451 13.263 17.071 13.686C17.1141 13.7163 17.1435 13.7623 17.1528 13.8141C17.1622 13.8659 17.1508 13.9192 17.121 13.9627C17.0913 14.0061 17.0457 14.036 16.994 14.046C16.9423 14.056 16.8888 14.0452 16.845 14.016" fill="#890150"/>
<g filter="url(#filter15_f_8207_1169)">
<path d="M16.474 14.6861C16.474 14.5503 16.42 14.4201 16.324 14.324C16.228 14.228 16.0977 14.1741 15.962 14.1741C15.8262 14.1741 15.6959 14.228 15.5999 14.324C15.5039 14.4201 15.45 14.5503 15.45 14.6861H16.474Z" fill="url(#paint44_radial_8207_1169)"/>
</g>
<path d="M14.674 7.92004H12.542C12.2769 7.92004 12.062 8.13495 12.062 8.40004C12.062 8.66514 12.2769 8.88004 12.542 8.88004H14.674C14.9391 8.88004 15.154 8.66514 15.154 8.40004C15.154 8.13495 14.9391 7.92004 14.674 7.92004Z" fill="#946030"/>
<path d="M14.674 7.92004H12.542C12.2769 7.92004 12.062 8.13495 12.062 8.40004C12.062 8.66514 12.2769 8.88004 12.542 8.88004H14.674C14.9391 8.88004 15.154 8.66514 15.154 8.40004C15.154 8.13495 14.9391 7.92004 14.674 7.92004Z" fill="url(#paint45_linear_8207_1169)"/>
<path d="M14.674 7.92004H12.542C12.2769 7.92004 12.062 8.13495 12.062 8.40004C12.062 8.66514 12.2769 8.88004 12.542 8.88004H14.674C14.9391 8.88004 15.154 8.66514 15.154 8.40004C15.154 8.13495 14.9391 7.92004 14.674 7.92004Z" fill="url(#paint46_linear_8207_1169)"/>
<path d="M19.4421 7.92004H17.3101C17.045 7.92004 16.8301 8.13495 16.8301 8.40004C16.8301 8.66514 17.045 8.88004 17.3101 8.88004H19.4421C19.7072 8.88004 19.9221 8.66514 19.9221 8.40004C19.9221 8.13495 19.7072 7.92004 19.4421 7.92004Z" fill="#946030"/>
<path d="M19.4421 7.92004H17.3101C17.045 7.92004 16.8301 8.13495 16.8301 8.40004C16.8301 8.66514 17.045 8.88004 17.3101 8.88004H19.4421C19.7072 8.88004 19.9221 8.66514 19.9221 8.40004C19.9221 8.13495 19.7072 7.92004 19.4421 7.92004Z" fill="url(#paint47_linear_8207_1169)"/>
<path d="M19.4421 7.92004H17.3101C17.045 7.92004 16.8301 8.13495 16.8301 8.40004C16.8301 8.66514 17.045 8.88004 17.3101 8.88004H19.4421C19.7072 8.88004 19.9221 8.66514 19.9221 8.40004C19.9221 8.13495 19.7072 7.92004 19.4421 7.92004Z" fill="url(#paint48_linear_8207_1169)"/>
<g filter="url(#filter16_f_8207_1169)">
<path d="M17.3101 8.31909H19.5441" stroke="#9F6B41" stroke-width="0.25" stroke-linecap="round"/>
</g>
<g filter="url(#filter17_f_8207_1169)">
<path d="M12.5991 8.31909H14.8331" stroke="#9F6B41" stroke-width="0.25" stroke-linecap="round"/>
</g>
<defs>
<filter id="filter0_i_8207_1169" x="8.1626" y="22.7391" width="19.1621" height="7.24438" filterUnits="userSpaceOnUse" color-interpolation-filters="sRGB">
<feFlood flood-opacity="0" result="BackgroundImageFix"/>
<feBlend mode="normal" in="SourceGraphic" in2="BackgroundImageFix" result="shape"/>
<feColorMatrix in="SourceAlpha" type="matrix" values="0 0 0 0 0 0 0 0 0 0 0 0 0 0 0 0 0 0 127 0" result="hardAlpha"/>
<feOffset dx="0.5" dy="-0.5"/>
<feGaussianBlur stdDeviation="0.75"/>
<feComposite in2="hardAlpha" operator="arithmetic" k2="-1" k3="1"/>
<feColorMatrix type="matrix" values="0 0 0 0 0.694118 0 0 0 0 0.431373 0 0 0 0 0.52549 0 0 0 1 0"/>
<feBlend mode="normal" in2="shape" result="effect1_innerShadow_8207_1169"/>
</filter>
<filter id="filter1_i_8207_1169" x="5.17554" y="22.8069" width="19.009" height="7.17646" filterUnits="userSpaceOnUse" color-interpolation-filters="sRGB">
<feFlood flood-opacity="0" result="BackgroundImageFix"/>
<feBlend mode="normal" in="SourceGraphic" in2="BackgroundImageFix" result="shape"/>
<feColorMatrix in="SourceAlpha" type="matrix" values="0 0 0 0 0 0 0 0 0 0 0 0 0 0 0 0 0 0 127 0" result="hardAlpha"/>
<feOffset dx="0.5" dy="-0.3"/>
<feGaussianBlur stdDeviation="0.5"/>
<feComposite in2="hardAlpha" operator="arithmetic" k2="-1" k3="1"/>
<feColorMatrix type="matrix" values="0 0 0 0 0.737255 0 0 0 0 0.454902 0 0 0 0 0.513726 0 0 0 1 0"/>
<feBlend mode="normal" in2="shape" result="effect1_innerShadow_8207_1169"/>
</filter>
<filter id="filter2_i_8207_1169" x="9.54907" y="8.92908" width="3.53008" height="3.32996" filterUnits="userSpaceOnUse" color-interpolation-filters="sRGB">
<feFlood flood-opacity="0" result="BackgroundImageFix"/>
<feBlend mode="normal" in="SourceGraphic" in2="BackgroundImageFix" result="shape"/>
<feColorMatrix in="SourceAlpha" type="matrix" values="0 0 0 0 0 0 0 0 0 0 0 0 0 0 0 0 0 0 127 0" result="hardAlpha"/>
<feOffset dx="0.2"/>
<feGaussianBlur stdDeviation="0.2"/>
<feComposite in2="hardAlpha" operator="arithmetic" k2="-1" k3="1"/>
<feColorMatrix type="matrix" values="0 0 0 0 0.866667 0 0 0 0 0.643137 0 0 0 0 0.533333 0 0 0 1 0"/>
<feBlend mode="normal" in2="shape" result="effect1_innerShadow_8207_1169"/>
</filter>
<filter id="filter3_f_8207_1169" x="9.72217" y="9.10205" width="2.98389" height="2.98401" filterUnits="userSpaceOnUse" color-interpolation-filters="sRGB">
<feFlood flood-opacity="0" result="BackgroundImageFix"/>
<feBlend mode="normal" in="SourceGraphic" in2="BackgroundImageFix" result="shape"/>
<feGaussianBlur stdDeviation="0.25" result="effect1_foregroundBlur_8207_1169"/>
</filter>
<filter id="filter4_i_8207_1169" x="19.0361" y="8.67908" width="3.58008" height="3.57996" filterUnits="userSpaceOnUse" color-interpolation-filters="sRGB">
<feFlood flood-opacity="0" result="BackgroundImageFix"/>
<feBlend mode="normal" in="SourceGraphic" in2="BackgroundImageFix" result="shape"/>
<feColorMatrix in="SourceAlpha" type="matrix" values="0 0 0 0 0 0 0 0 0 0 0 0 0 0 0 0 0 0 127 0" result="hardAlpha"/>
<feOffset dx="0.25" dy="-0.25"/>
<feGaussianBlur stdDeviation="0.25"/>
<feComposite in2="hardAlpha" operator="arithmetic" k2="-1" k3="1"/>
<feColorMatrix type="matrix" values="0 0 0 0 0.768627 0 0 0 0 0.529412 0 0 0 0 0.505882 0 0 0 1 0"/>
<feBlend mode="normal" in2="shape" result="effect1_innerShadow_8207_1169"/>
</filter>
<filter id="filter5_f_8207_1169" x="19.209" y="9.10205" width="2.98389" height="2.98401" filterUnits="userSpaceOnUse" color-interpolation-filters="sRGB">
<feFlood flood-opacity="0" result="BackgroundImageFix"/>
<feBlend mode="normal" in="SourceGraphic" in2="BackgroundImageFix" result="shape"/>
<feGaussianBlur stdDeviation="0.25" result="effect1_foregroundBlur_8207_1169"/>
</filter>
<filter id="filter6_i_8207_1169" x="10.8052" y="4.98499" width="10.3452" height="12.245" filterUnits="userSpaceOnUse" color-interpolation-filters="sRGB">
<feFlood flood-opacity="0" result="BackgroundImageFix"/>
<feBlend mode="normal" in="SourceGraphic" in2="BackgroundImageFix" result="shape"/>
<feColorMatrix in="SourceAlpha" type="matrix" values="0 0 0 0 0 0 0 0 0 0 0 0 0 0 0 0 0 0 127 0" result="hardAlpha"/>
<feOffset dy="0.25"/>
<feGaussianBlur stdDeviation="0.25"/>
<feComposite in2="hardAlpha" operator="arithmetic" k2="-1" k3="1"/>
<feColorMatrix type="matrix" values="0 0 0 0 0.752941 0 0 0 0 0.501961 0 0 0 0 0.34902 0 0 0 1 0"/>
<feBlend mode="normal" in2="shape" result="effect1_innerShadow_8207_1169"/>
</filter>
<filter id="filter7_i_8207_1169" x="9.66577" y="1.5155" width="12.5667" height="8.52258" filterUnits="userSpaceOnUse" color-interpolation-filters="sRGB">
<feFlood flood-opacity="0" result="BackgroundImageFix"/>
<feBlend mode="normal" in="SourceGraphic" in2="BackgroundImageFix" result="shape"/>
<feColorMatrix in="SourceAlpha" type="matrix" values="0 0 0 0 0 0 0 0 0 0 0 0 0 0 0 0 0 0 127 0" result="hardAlpha"/>
<feOffset dy="-0.5"/>
<feGaussianBlur stdDeviation="0.375"/>
<feComposite in2="hardAlpha" operator="arithmetic" k2="-1" k3="1"/>
<feColorMatrix type="matrix" values="0 0 0 0 0.858824 0 0 0 0 0.690196 0 0 0 0 0.533333 0 0 0 1 0"/>
<feBlend mode="normal" in2="shape" result="effect1_innerShadow_8207_1169"/>
</filter>
<filter id="filter8_f_8207_1169" x="14.083" y="9.4408" width="3.25513" height="4.17322" filterUnits="userSpaceOnUse" color-interpolation-filters="sRGB">
<feFlood flood-opacity="0" result="BackgroundImageFix"/>
<feBlend mode="normal" in="SourceGraphic" in2="BackgroundImageFix" result="shape"/>
<feGaussianBlur stdDeviation="0.375" result="effect1_foregroundBlur_8207_1169"/>
</filter>
<filter id="filter9_f_8207_1169" x="14.7637" y="9.77808" width="2.36963" height="3.17407" filterUnits="userSpaceOnUse" color-interpolation-filters="sRGB">
<feFlood flood-opacity="0" result="BackgroundImageFix"/>
<feBlend mode="normal" in="SourceGraphic" in2="BackgroundImageFix" result="shape"/>
<feGaussianBlur stdDeviation="0.125" result="effect1_foregroundBlur_8207_1169"/>
</filter>
<filter id="filter10_f_8207_1169" x="17.3895" y="9.47532" width="0.784961" height="0.694385" filterUnits="userSpaceOnUse" color-interpolation-filters="sRGB">
<feFlood flood-opacity="0" result="BackgroundImageFix"/>
<feBlend mode="normal" in="SourceGraphic" in2="BackgroundImageFix" result="shape"/>
<feGaussianBlur stdDeviation="0.05" result="effect1_foregroundBlur_8207_1169"/>
</filter>
<filter id="filter11_f_8207_1169" x="18.226" y="9.55" width="0.88999" height="0.911963" filterUnits="userSpaceOnUse" color-interpolation-filters="sRGB">
<feFlood flood-opacity="0" result="BackgroundImageFix"/>
<feBlend mode="normal" in="SourceGraphic" in2="BackgroundImageFix" result="shape"/>
<feGaussianBlur stdDeviation="0.1" result="effect1_foregroundBlur_8207_1169"/>
</filter>
<filter id="filter12_f_8207_1169" x="13.7971" y="9.48604" width="0.984961" height="1.03904" filterUnits="userSpaceOnUse" color-interpolation-filters="sRGB">
<feFlood flood-opacity="0" result="BackgroundImageFix"/>
<feBlend mode="normal" in="SourceGraphic" in2="BackgroundImageFix" result="shape"/>
<feGaussianBlur stdDeviation="0.1" result="effect1_foregroundBlur_8207_1169"/>
</filter>
<filter id="filter13_f_8207_1169" x="13.0448" y="9.46738" width="0.910449" height="0.703174" filterUnits="userSpaceOnUse" color-interpolation-filters="sRGB">
<feFlood flood-opacity="0" result="BackgroundImageFix"/>
<feBlend mode="normal" in="SourceGraphic" in2="BackgroundImageFix" result="shape"/>
<feGaussianBlur stdDeviation="0.05" result="effect1_foregroundBlur_8207_1169"/>
</filter>
<filter id="filter14_f_8207_1169" x="14.662" y="13.1684" width="2.69414" height="1.08123" filterUnits="userSpaceOnUse" color-interpolation-filters="sRGB">
<feFlood flood-opacity="0" result="BackgroundImageFix"/>
<feBlend mode="normal" in="SourceGraphic" in2="BackgroundImageFix" result="shape"/>
<feGaussianBlur stdDeviation="0.05" result="effect1_foregroundBlur_8207_1169"/>
</filter>
<filter id="filter15_f_8207_1169" x="15.35" y="14.0741" width="1.22393" height="0.711963" filterUnits="userSpaceOnUse" color-interpolation-filters="sRGB">
<feFlood flood-opacity="0" result="BackgroundImageFix"/>
<feBlend mode="normal" in="SourceGraphic" in2="BackgroundImageFix" result="shape"/>
<feGaussianBlur stdDeviation="0.05" result="effect1_foregroundBlur_8207_1169"/>
</filter>
<filter id="filter16_f_8207_1169" x="16.9351" y="7.94409" width="2.98389" height="0.75" filterUnits="userSpaceOnUse" color-interpolation-filters="sRGB">
<feFlood flood-opacity="0" result="BackgroundImageFix"/>
<feBlend mode="normal" in="SourceGraphic" in2="BackgroundImageFix" result="shape"/>
<feGaussianBlur stdDeviation="0.125" result="effect1_foregroundBlur_8207_1169"/>
</filter>
<filter id="filter17_f_8207_1169" x="12.2241" y="7.94409" width="2.98389" height="0.75" filterUnits="userSpaceOnUse" color-interpolation-filters="sRGB">
<feFlood flood-opacity="0" result="BackgroundImageFix"/>
<feBlend mode="normal" in="SourceGraphic" in2="BackgroundImageFix" result="shape"/>
<feGaussianBlur stdDeviation="0.125" result="effect1_foregroundBlur_8207_1169"/>
</filter>
<radialGradient id="paint0_radial_8207_1169" cx="0" cy="0" r="1" gradientUnits="userSpaceOnUse" gradientTransform="translate(14.936 15.269) rotate(90) scale(8.31345 13.7312)">
<stop offset="0.005" stop-color="#185B85"/>
<stop offset="0.572" stop-color="#3980C2"/>
</radialGradient>
<radialGradient id="paint1_radial_8207_1169" cx="0" cy="0" r="1" gradientUnits="userSpaceOnUse" gradientTransform="translate(22.313 23.306) rotate(-90) scale(9.09375 4.78449)">
<stop stop-color="#5CA5EC"/>
<stop offset="1" stop-color="#5CA5EC" stop-opacity="0"/>
</radialGradient>
<linearGradient id="paint2_linear_8207_1169" x1="15.683" y1="29.931" x2="15.683" y2="26.338" gradientUnits="userSpaceOnUse">
<stop stop-color="#3566B7"/>
<stop offset="1" stop-color="#3566B7" stop-opacity="0"/>
</linearGradient>
<radialGradient id="paint3_radial_8207_1169" cx="0" cy="0" r="1" gradientUnits="userSpaceOnUse" gradientTransform="translate(15.0122 16.3796) rotate(43.128) scale(3.82094 6.99622)">
<stop offset="0.288" stop-color="#A8766B"/>
<stop offset="0.962" stop-color="#C99D88"/>
</radialGradient>
<radialGradient id="paint4_radial_8207_1169" cx="0" cy="0" r="1" gradientUnits="userSpaceOnUse" gradientTransform="translate(24.838 23.3491) rotate(-99.8848) scale(4.36159 1.67693)">
<stop offset="0.033" stop-color="#5DA0E2"/>
<stop offset="1" stop-color="#4F94D1"/>
</radialGradient>
<linearGradient id="paint5_linear_8207_1169" x1="22.679" y1="23.3881" x2="23.656" y2="23.3181" gradientUnits="userSpaceOnUse">
<stop offset="0.197" stop-color="#1979BA"/>
<stop offset="1" stop-color="#1979BA" stop-opacity="0"/>
</linearGradient>
<radialGradient id="paint6_radial_8207_1169" cx="0" cy="0" r="1" gradientUnits="userSpaceOnUse" gradientTransform="translate(5.75798 22.7601) rotate(11.4819) scale(3.04001 8.25604)">
<stop offset="0.179" stop-color="#5E7DA4"/>
<stop offset="1" stop-color="#3C6287"/>
</radialGradient>
<radialGradient id="paint7_radial_8207_1169" cx="0" cy="0" r="1" gradientUnits="userSpaceOnUse" gradientTransform="translate(8.65798 24.7071) rotate(-90) scale(3.91264 0.5297)">
<stop stop-color="#3C6998"/>
<stop offset="1" stop-color="#3C6998" stop-opacity="0"/>
</radialGradient>
<radialGradient id="paint8_radial_8207_1169" cx="0" cy="0" r="1" gradientUnits="userSpaceOnUse" gradientTransform="translate(16.6681 24.8361) rotate(5.34435) scale(14.4591 5.01908)">
<stop stop-color="#E8B59D"/>
<stop offset="1" stop-color="#E8B791"/>
</radialGradient>
<radialGradient id="paint9_radial_8207_1169" cx="0" cy="0" r="1" gradientUnits="userSpaceOnUse" gradientTransform="translate(17.25 26.2125) rotate(66.14) scale(1.77686 7.1485)">
<stop offset="0.178" stop-color="#8F556C"/>
<stop offset="1" stop-color="#8F556C" stop-opacity="0"/>
</radialGradient>
<radialGradient id="paint10_radial_8207_1169" cx="0" cy="0" r="1" gradientUnits="userSpaceOnUse" gradientTransform="translate(28.3472 24.4593) rotate(161.027) scale(6.618 0.52807)">
<stop stop-color="#F3C0A2"/>
<stop offset="1" stop-color="#F3C0A2" stop-opacity="0"/>
</radialGradient>
<radialGradient id="paint11_radial_8207_1169" cx="0" cy="0" r="1" gradientUnits="userSpaceOnUse" gradientTransform="translate(13.3131 24.9621) rotate(-101.31) scale(2.54951 7.05426)">
<stop stop-color="#BF9577"/>
<stop offset="1" stop-color="#BF9577" stop-opacity="0"/>
</radialGradient>
<radialGradient id="paint12_radial_8207_1169" cx="0" cy="0" r="1" gradientUnits="userSpaceOnUse" gradientTransform="translate(16.1964 25.1908) rotate(75.736) scale(3.10269 23.6143)">
<stop stop-color="#F7C5A5"/>
<stop offset="0.479" stop-color="#E4B691"/>
</radialGradient>
<linearGradient id="paint13_linear_8207_1169" x1="16.7501" y1="28.556" x2="15.9691" y2="25.431" gradientUnits="userSpaceOnUse">
<stop stop-color="#D09195"/>
<stop offset="1" stop-color="#D09195" stop-opacity="0"/>
</linearGradient>
<radialGradient id="paint14_radial_8207_1169" cx="0" cy="0" r="1" gradientUnits="userSpaceOnUse" gradientTransform="translate(9.55007 10.5941) scale(1.75001 3.06254)">
<stop offset="0.351" stop-color="#C28775"/>
<stop offset="1" stop-color="#BA7867"/>
</radialGradient>
<linearGradient id="paint15_linear_8207_1169" x1="11.2142" y1="10.8721" x2="10.5752" y2="10.8721" gradientUnits="userSpaceOnUse">
<stop stop-color="#AF6F5D"/>
<stop offset="1" stop-color="#B87862"/>
</linearGradient>
<linearGradient id="paint16_linear_8207_1169" x1="21.7851" y1="9.50608" x2="20.9681" y2="12.0351" gradientUnits="userSpaceOnUse">
<stop stop-color="#F5C8A5"/>
<stop offset="1" stop-color="#DCA189"/>
</linearGradient>
<radialGradient id="paint17_radial_8207_1169" cx="0" cy="0" r="1" gradientUnits="userSpaceOnUse" gradientTransform="translate(21.0721 10.3301) rotate(-36.0602) scale(1.01982 1.16399)">
<stop offset="0.543" stop-color="#E3AB88"/>
<stop offset="1" stop-color="#E3AB88" stop-opacity="0"/>
</radialGradient>
<radialGradient id="paint18_radial_8207_1169" cx="0" cy="0" r="1" gradientUnits="userSpaceOnUse" gradientTransform="translate(20.66 11.4131) rotate(-61.4673) scale(1.71461 1.00356)">
<stop offset="0.69" stop-color="#D79A76" stop-opacity="0"/>
<stop offset="1" stop-color="#D79A76"/>
</radialGradient>
<radialGradient id="paint19_radial_8207_1169" cx="0" cy="0" r="1" gradientUnits="userSpaceOnUse" gradientTransform="translate(20.7011 10.5936) rotate(44.707) scale(0.36382 0.46903)">
<stop stop-color="#CB8E6D"/>
<stop offset="1" stop-color="#CB8E6D" stop-opacity="0"/>
</radialGradient>
<linearGradient id="paint20_linear_8207_1169" x1="19.9742" y1="10.982" x2="12.3582" y2="12.117" gradientUnits="userSpaceOnUse">
<stop stop-color="#FAC39E"/>
<stop offset="1" stop-color="#C9917C"/>
</linearGradient>
<radialGradient id="paint21_radial_8207_1169" cx="0" cy="0" r="1" gradientUnits="userSpaceOnUse" gradientTransform="translate(16.7462 9.11999) rotate(97.2143) scale(8.52841 11.5769)">
<stop offset="0.701" stop-color="#B57195" stop-opacity="0"/>
<stop offset="1" stop-color="#B57195"/>
</radialGradient>
<linearGradient id="paint22_linear_8207_1169" x1="10.5682" y1="13.671" x2="12.8742" y2="13.37" gradientUnits="userSpaceOnUse">
<stop stop-color="#D99E84"/>
<stop offset="1" stop-color="#D99E84" stop-opacity="0"/>
</linearGradient>
<radialGradient id="paint23_radial_8207_1169" cx="0" cy="0" r="1" gradientUnits="userSpaceOnUse" gradientTransform="translate(18.2882 9.32598) rotate(-90) scale(1.30347 1.60427)">
<stop stop-color="#E2A18C"/>
<stop offset="1" stop-color="#E2A18C" stop-opacity="0"/>
</radialGradient>
<radialGradient id="paint24_radial_8207_1169" cx="0" cy="0" r="1" gradientUnits="userSpaceOnUse" gradientTransform="translate(13.7432 9.29298) rotate(-90) scale(1.38702 1.72489)">
<stop stop-color="#C2837A"/>
<stop offset="1" stop-color="#C2837A" stop-opacity="0"/>
</radialGradient>
<radialGradient id="paint25_radial_8207_1169" cx="0" cy="0" r="1" gradientUnits="userSpaceOnUse" gradientTransform="translate(19.6311 2.90204) rotate(127.807) scale(5.59068 9.50746)">
<stop stop-color="#FFFFC2"/>
<stop offset="1" stop-color="#FFFFC2" stop-opacity="0"/>
</radialGradient>
<linearGradient id="paint26_linear_8207_1169" x1="11.1011" y1="10.328" x2="13.9951" y2="5.18704" gradientUnits="userSpaceOnUse">
<stop stop-color="#E8AD8E"/>
<stop offset="1" stop-color="#E8AD8E" stop-opacity="0"/>
</linearGradient>
<radialGradient id="paint27_radial_8207_1169" cx="0" cy="0" r="1" gradientUnits="userSpaceOnUse" gradientTransform="translate(11.7671 7.14904) rotate(-92.056) scale(1.85753 0.912267)">
<stop offset="0.227" stop-color="#EEC19C"/>
<stop offset="1" stop-color="#EEC19C" stop-opacity="0"/>
</radialGradient>
<radialGradient id="paint28_radial_8207_1169" cx="0" cy="0" r="1" gradientUnits="userSpaceOnUse" gradientTransform="translate(20.1641 8.86204) rotate(-66.3998) scale(2.14004 1.74537)">
<stop offset="0.479" stop-color="#E3AB85"/>
<stop offset="1" stop-color="#E3AB85" stop-opacity="0"/>
</radialGradient>
<radialGradient id="paint29_radial_8207_1169" cx="0" cy="0" r="1" gradientUnits="userSpaceOnUse" gradientTransform="translate(15.1761 2.01704) rotate(51.134) scale(1.57775 1.39304)">
<stop stop-color="#FBECAF"/>
<stop offset="1" stop-color="#FBECAF" stop-opacity="0"/>
</radialGradient>
<radialGradient id="paint30_radial_8207_1169" cx="0" cy="0" r="1" gradientUnits="userSpaceOnUse" gradientTransform="translate(16.6411 2.01704) rotate(76.9608) scale(0.801711 1.318)">
<stop offset="0.208" stop-color="#E1D19F"/>
<stop offset="1" stop-color="#E1D19F" stop-opacity="0"/>
</radialGradient>
<radialGradient id="paint31_radial_8207_1169" cx="0" cy="0" r="1" gradientUnits="userSpaceOnUse" gradientTransform="translate(11.6151 3.74004) rotate(51.0439) scale(1.15074 2.57837)">
<stop stop-color="#DCC291"/>
<stop offset="1" stop-color="#DCC291" stop-opacity="0"/>
</radialGradient>
<linearGradient id="paint32_linear_8207_1169" x1="15.087" y1="11.6401" x2="16.023" y2="11.6401" gradientUnits="userSpaceOnUse">
<stop stop-color="#CB9173"/>
<stop offset="1" stop-color="#CB9173" stop-opacity="0"/>
</linearGradient>
<linearGradient id="paint33_linear_8207_1169" x1="16.885" y1="11.9621" x2="15.862" y2="11.9471" gradientUnits="userSpaceOnUse">
<stop stop-color="#FEC8A4"/>
<stop offset="1" stop-color="#FEC8A4" stop-opacity="0"/>
</linearGradient>
<linearGradient id="paint34_linear_8207_1169" x1="16.143" y1="12.7021" x2="16.143" y2="12.1301" gradientUnits="userSpaceOnUse">
<stop stop-color="#C98583"/>
<stop offset="1" stop-color="#C98583" stop-opacity="0"/>
</linearGradient>
<linearGradient id="paint35_linear_8207_1169" x1="16.074" y1="12.7441" x2="16.074" y2="12.5761" gradientUnits="userSpaceOnUse">
<stop stop-color="#C27B77"/>
<stop offset="1" stop-color="#C27B77" stop-opacity="0"/>
</linearGradient>
<radialGradient id="paint36_radial_8207_1169" cx="0" cy="0" r="1" gradientUnits="userSpaceOnUse" gradientTransform="translate(18.1221 10.247) rotate(90) scale(0.90066 1.06571)">
<stop offset="0.75" stop-color="#925C51"/>
<stop offset="1" stop-color="#85534D"/>
</radialGradient>
<radialGradient id="paint37_radial_8207_1169" cx="0" cy="0" r="1" gradientUnits="userSpaceOnUse" gradientTransform="translate(17.893 9.99801) rotate(-127.811) scale(0.377159 0.519252)">
<stop offset="0.766" stop-color="#FFE6E2" stop-opacity="0"/>
<stop offset="0.966" stop-color="#FFE6E2"/>
</radialGradient>
<linearGradient id="paint38_linear_8207_1169" x1="18.897" y1="9.968" x2="18.584" y2="10.161" gradientUnits="userSpaceOnUse">
<stop stop-color="#B4948D"/>
<stop offset="1" stop-color="#B4948D" stop-opacity="0"/>
</linearGradient>
<radialGradient id="paint39_radial_8207_1169" cx="0" cy="0" r="1" gradientUnits="userSpaceOnUse" gradientTransform="translate(13.77 10.247) rotate(90) scale(0.9007 1.06577)">
<stop offset="0.75" stop-color="#925C51"/>
<stop offset="1" stop-color="#85534D"/>
</radialGradient>
<linearGradient id="paint40_linear_8207_1169" x1="14.5121" y1="9.96804" x2="14.2001" y2="10.161" gradientUnits="userSpaceOnUse">
<stop stop-color="#B4948D"/>
<stop offset="1" stop-color="#B4948D" stop-opacity="0"/>
</linearGradient>
<radialGradient id="paint41_radial_8207_1169" cx="0" cy="0" r="1" gradientUnits="userSpaceOnUse" gradientTransform="translate(13.6333 10.1026) rotate(-118.811) scale(0.49267 0.592202)">
<stop offset="0.766" stop-color="#FFE6E2" stop-opacity="0"/>
<stop offset="0.966" stop-color="#FFE6E2"/>
</radialGradient>
<radialGradient id="paint42_radial_8207_1169" cx="0" cy="0" r="1" gradientUnits="userSpaceOnUse" gradientTransform="translate(16.64 14.01) rotate(-62.4024) scale(0.387882 0.93184)">
<stop stop-color="#B89082"/>
<stop offset="1" stop-color="#B89082" stop-opacity="0"/>
</radialGradient>
<radialGradient id="paint43_radial_8207_1169" cx="0" cy="0" r="1" gradientUnits="userSpaceOnUse" gradientTransform="translate(14.817 14.006) rotate(-20.343) scale(0.370787 0.225466)">
<stop stop-color="#B89082"/>
<stop offset="1" stop-color="#B89082" stop-opacity="0"/>
</radialGradient>
<radialGradient id="paint44_radial_8207_1169" cx="0" cy="0" r="1" gradientUnits="userSpaceOnUse" gradientTransform="translate(15.625 14.6861) rotate(-21.1955) scale(0.708059 0.523022)">
<stop stop-color="#D2967A"/>
<stop offset="1" stop-color="#CC8A67"/>
</radialGradient>
<linearGradient id="paint45_linear_8207_1169" x1="13.853" y1="8.92004" x2="13.853" y2="8.48004" gradientUnits="userSpaceOnUse">
<stop stop-color="#794429"/>
<stop offset="1" stop-color="#794429" stop-opacity="0"/>
</linearGradient>
<linearGradient id="paint46_linear_8207_1169" x1="12.062" y1="8.43204" x2="12.607" y2="8.43604" gradientUnits="userSpaceOnUse">
<stop offset="0.344" stop-color="#784826"/>
<stop offset="1" stop-color="#784826" stop-opacity="0"/>
</linearGradient>
<linearGradient id="paint47_linear_8207_1169" x1="18.6201" y1="8.92004" x2="18.6201" y2="8.48004" gradientUnits="userSpaceOnUse">
<stop stop-color="#794429"/>
<stop offset="1" stop-color="#794429" stop-opacity="0"/>
</linearGradient>
<linearGradient id="paint48_linear_8207_1169" x1="16.8301" y1="8.43204" x2="17.3741" y2="8.43604" gradientUnits="userSpaceOnUse">
<stop offset="0.344" stop-color="#784826"/>
<stop offset="1" stop-color="#784826" stop-opacity="0"/>
</linearGradient>
</defs>
</svg>
